{
.appVersion = "3134";
.formatVersion = 3;
DisplayStrings = (
"Aa Bb Cc Dd Ee Ff Gg Hh Ii Jj Kk Ll Mm Nn Oo Pp Qq Rr Ss Tt Uu Vv Ww Xx Yy Zz
0123456789
!@#"
);
customParameters = (
{
name = vendorID;
value = ITFO;
},
{
name = panose;
value = (
0,
0,
3,
0,
0,
0,
0,
0,
0,
0
);
},
{
name = unicodeRanges;
value = (
0,
1,
2,
15
);
},
{
name = codePageRanges;
value = (
"1252",
"1250",
"1254",
"1257",
"bit 29"
);
},
{
name = fsType;
value = (
);
},
{
name = glyphOrder;
value = (
.notdef,
NULL,
CR,
space,
dvA,
dvAA,
dvI,
dvII,
dvU,
dvUU,
dvvR,
dvvRR,
dvvL,
dvvLL,
dvE,
dvAI,
dvO,
dvAU,
dvEcandra,
dvAcandra,
dvOcandra,
dvmAA,
dvmI,
dvmII,
dvmU,
dvmUU,
dvmvR,
dvmvRR,
dvmvL,
dvmvLL,
dvmE,
dvmAI,
dvmO,
dvmAU,
dvmEcandra,
dvmOcandra,
dvKA,
dvKHA,
dvGA,
dvGHA,
dvNGA,
dvCA,
dvCHA,
dvJA,
dvJHA,
dvNYA,
dvTTA,
dvTTHA,
dvDDA,
dvDDHA,
dvNNA,
dvTA,
dvTHA,
dvDA,
dvDHA,
dvNA,
dvPA,
dvPHA,
dvBA,
dvBHA,
dvMA,
dvYA,
dvRA,
dvLA,
dvVA,
dvSHA,
dvSSA,
dvSA,
dvHA,
dvLLA,
dvK_SSA,
dvJ_NYA,
dvKxA,
dvKHxA,
dvGxA,
dvJxA,
dvDDxA,
dvDDHxA,
dvPHxA,
dvRxA,
dvK,
dvKH,
dvG,
dvGH,
dvNG,
dvC,
dvCH,
dvJ,
dvJH,
dvNY,
dvTT,
dvTTH,
dvDD,
dvDDH,
dvNN,
dvT,
dvTH,
dvD,
dvDH,
dvN,
dvP,
dvPH,
dvB,
dvBH,
dvM,
dvY,
dvR,
dvL,
dvV,
dvSH,
dvSS,
dvS,
dvH,
dvLL,
dvK_SS,
dvJ_NY,
dvKx,
dvKHx,
dvGx,
dvJx,
dvPHx,
dvAnusvara,
dvCandrabindu,
dvVisarga,
dvAvagraha,
dvVirama,
dvNukta,
dvZero,
dvOne,
dvTwo,
dvThree,
dvFour,
dvFive,
dvSix,
dvSeven,
dvEight,
dvNine,
dvOm,
dvAbbreviationsign,
danda,
doubledanda,
rupee,
indianrupee,
zerowidthnonjoiner,
zerowidthjoiner,
dottedcircle,
dvReph,
dvEyelash,
dvRashtrasign,
dvK_RA,
dvKH_RA,
dvG_RA,
dvGH_RA,
dvNG_RA,
dvC_RA,
dvCH_RA,
dvJ_RA,
dvJH_RA,
dvNY_RA,
dvTT_RA,
dvTTH_RA,
dvDD_RA,
dvDDH_RA,
dvNN_RA,
dvT_RA,
dvTH_RA,
dvD_RA,
dvDH_RA,
dvN_RA,
dvP_RA,
dvPH_RA,
dvB_RA,
dvBH_RA,
dvM_RA,
dvY_RA,
dvL_RA,
dvV_RA,
dvSH_RA,
dvSS_RA,
dvS_RA,
dvH_RA,
dvLL_RA,
dvKx_RA,
dvKHx_RA,
dvGx_RA,
dvJx_RA,
dvPHx_RA,
dvK_R,
dvKH_R,
dvG_R,
dvGH_R,
dvNG_R,
dvC_R,
dvCH_R,
dvJ_R,
dvJH_R,
dvNY_R,
dvTT_R,
dvTTH_R,

glyphs = (
{
glyphname = .notdef;
lastChange = "2022-10-20 16:08:56 +0000";
layers = (
{
layerId = m01;
shapes = (
{
closed = 1;
nodes = (
(-62,0,l),
(438,0,l),
(562,700,l),
(62,700,l)
);
},
{
closed = 1;
nodes = (
(258,395,l),
(133,650,l),
(473,650,l)
);
},
{
closed = 1;
nodes = (
(280,350,l),
(495,605,l),
(405,95,l)
);
},
{
closed = 1;
nodes = (
(27,50,l),
(242,305,l),
(367,50,l)
);
},
{
closed = 1;
nodes = (
(95,605,l),
(220,350,l),
(5,95,l)
);
}
);
width = 500;
}
);
note = ".notdef";
},
{
glyphname = dvA;
lastChange = "2022-10-20 16:08:56 +0000";
layers = (
{
layerId = m01;
shapes = (
{
closed = 1;
nodes = (
(269,424,l),
(266,408,l),
(300,408,ls),
(435,408,o),
(467,316,o),
(453,238,cs),
(435,135,o),
(351,64,o),
(240,64,cs),
(130,64,o),
(61,137,o),
(80,244,c),
(63,244,l),
(42,127,o),
(119,48,o),
(238,48,cs),
(358,48,o),
(450,124,o),
(470,238,cs),
(480,297,o),
(465,353,o),
(425,386,c),
(675,385,l),
(607,0,l),
(624,0,l),
(752,724,l),
(914,724,l),
(916,740,l),
(737,740,l),
(678,401,l),
(402,401,l),
(387,409,o),
(371,414,o),
(351,416,c),
(351,417,l),
(447,433,o),
(502,497,o),
(516,576,cs),
(534,682,o),
(464,749,o),
(358,749,cs),
(248,749,o),
(150,686,o),
(131,577,c),
(148,577,l),
(164,675,o),
(256,733,o),
(355,733,cs),
(448,733,o),
(516,675,o),
(498,572,cs),
(486,504,o),
(422,424,o),
(303,424,cs)
);
}
);
width = 817;
}
);
note = dvA;
unicode = 2309;
},
{
glyphname = dvAA;
lastChange = "2022-10-20 16:08:56 +0000";
layers = (
{
layerId = m01;
shapes = (
{
closed = 1;
nodes = (
(269,424,l),
(266,408,l),
(300,408,ls),
(435,408,o),
(467,316,o),
(453,238,cs),
(435,135,o),
(351,64,o),
(240,64,cs),
(130,64,o),
(61,137,o),
(80,244,c),
(63,244,l),
(42,127,o),
(119,48,o),
(238,48,cs),
(358,48,o),
(450,124,o),
(470,238,cs),
(480,297,o),
(465,353,o),
(425,386,c),
(675,385,l),
(607,0,l),
(624,0,l),
(752,724,l),
(1006,724,l),
(878,0,l),
(895,0,l),
(1023,724,l),
(1185,724,l),
(1187,740,l),
(737,740,l),
(678,401,l),
(402,401,l),
(387,409,o),
(371,414,o),
(351,416,c),
(351,417,l),
(447,433,o),
(502,497,o),
(516,576,cs),
(534,682,o),
(464,749,o),
(358,749,cs),
(248,749,o),
(150,686,o),
(131,577,c),
(148,577,l),
(164,675,o),
(256,733,o),
(355,733,cs),
(448,733,o),
(516,675,o),
(498,572,cs),
(486,504,o),
(422,424,o),
(303,424,cs)
);
}
);
width = 1078;
}
);
note = dvAA;
unicode = 2310;
},
{
glyphname = dvI;
lastChange = "2022-10-20 16:08:56 +0000";
layers = (
{
layerId = m01;
shapes = (
{
closed = 1;
nodes = (
(19,724,l),
(513,724,l),
(484,562,l),
(324,562,ls),
(240,562,o),
(137,535,o),
(119,429,cs),
(103,338,o),
(171,298,o),
(263,298,cs),
(308,298,ls),
(397,298,o),
(491,268,o),
(470,150,cs),
(457,75,o),
(392,7,o),
(278,7,cs),
(148,7,o),
(90,85,o),
(96,184,c),
(81,184,l),
(37,-70,l),
(53,-70,l),
(86,120,l),
(89,81,o),
(131,-9,o),
(274,-9,cs),
(399,-9,o),
(472,65,o),
(487,150,cs),
(510,276,o),
(412,314,o),
(312,314,cs),
(267,314,ls),
(188,314,o),
(120,343,o),
(136,429,cs),
(153,528,o),
(252,546,o),
(329,546,cs),
(498,546,l),
(530,724,l),
(701,724,l),
(703,740,l),
(21,740,l)
);
}
);
width = 582;
}
);
note = dvI;
unicode = 2311;
},
{
glyphname = dvII;
lastChange = "2022-10-20 16:08:56 +0000";
layers = (
{
layerId = m01;
shapes = (
{
closed = 1;
nodes = (
(64,120,l),
(67,81,o),
(109,-9,o),
(252,-9,cs),
(377,-9,o),
(450,65,o),
(465,150,cs),
(487,276,o),
(390,314,o),
(290,314,cs),
(245,314,ls),
(166,314,o),
(98,343,o),
(113,429,cs),
(131,528,o),
(230,546,o),
(307,546,cs),
(476,546,l),
(507,724,l),
(678,724,l),
(681,740,l),
(510,740,l),
(524,822,ls),
(542,924,o),
(593,978,o),
(673,978,cs),
(744,978,o),
(779,926,o),
(767,858,c),
(783,858,l),
(797,936,o),
(757,994,o),
(676,994,cs),
(589,994,o),
(528,937,o),
(508,823,cs),
(493,740,l),
(-1,740,l),
(-4,724,l),
(490,724,l),
(462,562,l),
(302,562,ls),
(218,562,o),
(115,535,o),
(96,429,cs),
(80,338,o),
(149,298,o),
(241,298,cs),
(286,298,ls),
(375,298,o),
(469,268,o),
(448,150,cs),
(435,75,o),
(370,7,o),
(256,7,cs),
(126,7,o),
(68,85,o),
(74,184,c),
(59,184,l),
(14,-70,l),
(30,-70,l)
);
}
);
width = 582;
}
);
note = dvII;
unicode = 2312;
},
{
glyphname = dvU;
lastChange = "2022-10-20 16:08:56 +0000";
layers = (
{
layerId = m01;
shapes = (
{
closed = 1;
nodes = (
(27,724,l),
(512,724,l),
(488,585,ls),
(474,506,o),
(412,431,o),
(295,431,cs),
(261,431,l),
(258,415,l),
(292,415,ls),
(439,415,o),
(474,306,o),
(458,216,cs),
(437,101,o),
(347,18,o),
(228,18,cs),
(109,18,o),
(31,105,o),
(51,217,c),
(34,217,l),
(13,97,o),
(93,2,o),
(225,2,cs),
(358,2,o),
(453,93,o),
(475,216,cs),
(492,317,o),
(448,407,o),
(348,424,c),
(349,425,l),
(424,436,o),
(489,498,o),
(504,582,cs),
(529,724,l),
(681,724,l),
(684,740,l),
(30,740,l)
);
}
);
width = 584;
}
);
note = dvU;
unicode = 2313;
},
{
glyphname = dvUU;
lastChange = "2022-10-20 16:08:56 +0000";
layers = (
{
layerId = m01;
shapes = (
{
closed = 1;
nodes = (
(27,724,l),
(512,724,l),
(488,585,ls),
(474,506,o),
(412,431,o),
(295,431,cs),
(261,431,l),
(258,415,l),
(292,415,ls),
(439,415,o),
(474,306,o),
(458,216,cs),
(437,101,o),
(347,18,o),
(228,18,cs),
(109,18,o),
(31,105,o),
(51,217,c),
(34,217,l),
(13,97,o),
(93,2,o),
(225,2,cs),
(358,2,o),
(453,93,o),
(475,216,cs),
(489,299,o),
(463,374,o),
(397,408,c),
(579,408,ls),
(690,408,o),
(784,363,o),
(760,227,cs),
(736,95,o),
(644,50,o),
(549,50,cs),
(538,50,o),
(526,51,o),
(513,52,c),
(510,37,l),
(522,36,o),
(534,35,o),
(546,35,cs),
(647,35,o),
(751,82,o),
(777,227,cs),
(802,373,o),
(701,424,o),
(581,424,cs),
(348,424,l),
(349,425,l),
(424,436,o),
(489,498,o),
(504,582,cs),
(529,724,l),
(973,724,l),
(976,740,l),
(30,740,l)
);
}
);
width = 876;
}
);
note = dvUU;
unicode = 2314;
},
{
glyphname = dvvR;
lastChange = "2022-10-20 16:08:56 +0000";
layers = (
{
layerId = m01;
shapes = (
{
closed = 1;
nodes = (
(457,0,l),
(474,0,l),
(546,410,l),
(754,410,ls),
(807,410,o),
(843,428,o),
(866,456,c),
(831,257,l),
(731,257,o),
(661,188,o),
(646,104,cs),
(628,-1,o),
(695,-46,o),
(778,-46,cs),
(799,-46,o),
(825,-41,o),
(837,-36,c),
(840,-20,l),
(826,-25,o),
(803,-30,o),
(781,-30,cs),
(706,-30,o),
(646,7,o),
(663,104,cs),
(676,179,o),
(739,241,o),
(833,241,cs),
(845,241,l),
(908,598,l),
(891,598,l),
(878,520,ls),
(868,466,o),
(836,426,o),
(758,426,cs),
(549,426,l),
(601,724,l),
(1095,724,l),
(1098,740,l),
(34,740,l),
(31,724,l),
(584,724,l),
(538,463,l),
(523,542,o),
(462,596,o),
(359,596,cs),
(226,596,o),
(108,503,o),
(81,352,c),
(98,352,l),
(123,494,o),
(232,580,o),
(358,580,cs),
(472,580,o),
(534,502,o),
(526,400,c),
(89,4,l),
(88,0,l),
(106,0,l),
(523,377,l),
(523,377,l)
);
}
);
width = 994;
}
);
note = dvvR;
unicode = 2315;
},
{
glyphname = dvvRR;
lastChange = "2022-10-20 16:08:56 +0000";
layers = (
{
layerId = m01;
shapes = (
{
closed = 1;
nodes = (
(468,0,l),
(485,0,l),
(557,410,l),
(765,410,ls),
(818,410,o),
(855,428,o),
(878,456,c),
(843,257,l),
(816,257,ls),
(749,257,o),
(679,226,o),
(665,144,cs),
(655,88,o),
(682,54,o),
(729,42,c),
(728,40,l),
(684,31,o),
(639,-3,o),
(628,-64,cs),
(614,-142,o),
(671,-175,o),
(746,-175,cs),
(784,-175,o),
(823,-167,o),
(843,-159,c),
(846,-143,l),
(825,-151,o),
(785,-159,o),
(749,-159,cs),
(682,-159,o),
(633,-132,o),
(645,-64,cs),
(658,9,o),
(719,33,o),
(776,33,cs),
(820,33,l),
(823,49,l),
(786,49,ls),
(719,49,o),
(670,76,o),
(682,144,cs),
(694,217,o),
(756,241,o),
(813,241,cs),
(857,241,l),
(920,598,l),
(903,598,l),
(889,520,ls),
(879,466,o),
(847,426,o),
(769,426,cs),
(560,426,l),
(613,724,l),
(1107,724,l),
(1110,740,l),
(46,740,l),
(43,724,l),
(596,724,l),
(550,463,l),
(535,542,o),
(473,596,o),
(370,596,cs),
(237,596,o),
(119,503,o),
(92,352,c),
(109,352,l),
(134,494,o),
(243,580,o),
(369,580,cs),
(483,580,o),
(546,502,o),
(538,400,c),
(100,4,l),
(99,0,l),
(117,0,l),
(535,377,l),
(535,377,l)
);
}
);
width = 929;
}
);
note = dvvRR;
unicode = 2400;
},
{
glyphname = dvvL;
lastChange = "2022-10-20 16:08:56 +0000";
layers = (
{
layerId = m01;
shapes = (
{
closed = 1;
nodes = (
(31,724,l),
(685,724,l),
(657,560,l),
(541,555,o),
(480,463,o),
(456,387,c),
(454,387,l),
(458,464,o),
(428,560,o),
(314,560,cs),
(189,560,o),
(106,467,o),
(84,341,cs),
(60,208,o),
(115,104,o),
(262,104,cs),
(273,104,o),
(284,105,o),
(296,106,c),
(299,123,l),
(287,122,o),
(277,121,o),
(267,121,cs),
(129,121,o),
(79,217,o),
(101,341,cs),
(121,456,o),
(195,544,o),
(311,544,cs),
(418,544,o),
(457,448,o),
(431,303,cs),
(430,295,l),
(447,295,l),
(448,303,ls),
(474,451,o),
(550,544,o),
(663,544,cs),
(774,544,o),
(812,452,o),
(792,341,cs),
(787,311,o),
(778,283,o),
(765,257,c),
(665,257,o),
(595,188,o),
(580,104,cs),
(562,-1,o),
(629,-46,o),
(712,-46,cs),
(733,-46,o),
(759,-41,o),
(771,-36,c),
(774,-20,l),
(760,-25,o),
(737,-30,o),
(715,-30,cs),
(640,-30,o),
(580,7,o),
(597,104,cs),
(610,179,o),
(673,241,o),
(767,241,cs),
(775,241,l),
(792,271,o),
(803,305,o),
(809,341,cs),
(830,461,o),
(788,556,o),
(674,560,c),
(702,724,l),
(996,724,l),
(999,740,l),
(34,740,l)
);
}
);
width = 895;
}
);
note = dvvL;
unicode = 2316;
},
{
glyphname = dvvLL;
lastChange = "2022-10-20 16:08:56 +0000";
layers = (
{
layerId = m01;
shapes = (
{
closed = 1;
nodes = (
(43,724,l),
(697,724,l),
(668,560,l),
(552,555,o),
(492,463,o),
(467,387,c),
(465,387,l),
(469,464,o),
(439,560,o),
(325,560,cs),
(200,560,o),
(118,467,o),
(95,341,cs),
(72,208,o),
(127,104,o),
(274,104,cs),
(285,104,o),
(296,105,o),
(307,106,c),
(310,123,l),
(299,122,o),
(289,121,o),
(279,121,cs),
(141,121,o),
(90,217,o),
(112,341,cs),
(133,456,o),
(206,544,o),
(322,544,cs),
(429,544,o),
(468,448,o),
(443,303,cs),
(441,295,l),
(458,295,l),
(460,303,ls),
(486,451,o),
(561,544,o),
(674,544,cs),
(785,544,o),
(823,452,o),
(803,341,cs),
(798,311,o),
(789,283,o),
(777,257,c),
(746,257,ls),
(679,257,o),
(609,226,o),
(595,144,cs),
(585,88,o),
(612,54,o),
(659,42,c),
(658,40,l),
(615,31,o),
(569,-3,o),
(558,-63,cs),
(544,-142,o),
(601,-175,o),
(676,-175,cs),
(714,-175,o),
(753,-167,o),
(773,-159,c),
(776,-143,l),
(755,-151,o),
(715,-159,o),
(679,-159,cs),
(612,-159,o),
(563,-132,o),
(575,-64,cs),
(588,9,o),
(649,33,o),
(706,33,cs),
(750,33,l),
(753,49,l),
(716,49,ls),
(649,49,o),
(600,76,o),
(612,144,cs),
(624,217,o),
(686,241,o),
(743,241,cs),
(787,241,l),
(803,271,o),
(814,305,o),
(820,341,cs),
(841,461,o),
(799,556,o),
(685,560,c),
(714,724,l),
(1008,724,l),
(1011,740,l),
(46,740,l)
);
}
);
width = 903;
}
);
note = dvvLL;
unicode = 2401;
},
{
glyphname = dvE;
lastChange = "2022-10-20 16:08:56 +0000";
layers = (
{
layerId = m01;
shapes = (
{
closed = 1;
nodes = (
(26,724,l),
(181,724,l),
(102,278,ls),
(75,123,o),
(126,19,o),
(286,19,cs),
(427,19,o),
(521,106,o),
(546,250,c),
(529,250,l),
(505,114,o),
(418,35,o),
(289,35,cs),
(142,35,o),
(93,131,o),
(119,278,cs),
(198,724,l),
(596,724,l),
(570,576,ls),
(546,442,o),
(492,390,o),
(376,398,c),
(373,382,l),
(500,374,o),
(561,430,o),
(587,576,cs),
(613,724,l),
(747,724,l),
(750,740,l),
(29,740,l)
);
}
);
width = 651;
}
);
note = dvE;
unicode = 2319;
},
{
glyphname = dvAI;
lastChange = "2022-10-20 16:08:56 +0000";
layers = (
{
layerId = m01;
shapes = (
{
closed = 1;
nodes = (
(408,19,o),
(501,106,o),
(526,250,c),
(509,250,l),
(485,114,o),
(399,35,o),
(270,35,cs),
(123,35,o),
(73,131,o),
(99,278,cs),
(178,724,l),
(576,724,l),
(550,576,ls),
(526,442,o),
(472,390,o),
(357,398,c),
(354,382,l),
(480,374,o),
(541,430,o),
(567,576,cs),
(593,724,l),
(727,724,l),
(730,740,l),
(595,740,l),
(500,955,o),
(454,964,o),
(343,964,cs),
(311,964,l),
(308,948,l),
(340,948,ls),
(445,948,o),
(487,938,o),
(577,740,c),
(9,740,l),
(6,724,l),
(161,724,l),
(82,278,ls),
(55,123,o),
(107,19,o),
(267,19,cs)
);
}
);
width = 651;
}
);
note = dvAI;
unicode = 2320;
},
{
glyphname = dvO;
lastChange = "2022-10-20 16:08:56 +0000";
layers = (
{
layerId = m01;
shapes = (
{
closed = 1;
nodes = (
(605,0,l),
(733,724,l),
(987,724,l),
(859,0,l),
(876,0,l),
(1004,724,l),
(1166,724,l),
(1168,740,l),
(1005,740,l),
(910,955,o),
(865,964,o),
(754,964,cs),
(722,964,l),
(719,948,l),
(751,948,ls),
(856,948,o),
(897,938,o),
(987,740,c),
(718,740,l),
(659,401,l),
(383,401,l),
(368,409,o),
(352,414,o),
(332,416,c),
(333,417,l),
(428,433,o),
(483,497,o),
(497,576,cs),
(515,682,o),
(445,749,o),
(339,749,cs),
(229,749,o),
(131,686,o),
(112,577,c),
(129,577,l),
(145,675,o),
(237,733,o),
(336,733,cs),
(429,733,o),
(497,675,o),
(479,572,cs),
(467,504,o),
(403,424,o),
(284,424,cs),
(250,424,l),
(247,408,l),
(281,408,ls),
(416,408,o),
(448,316,o),
(434,238,cs),
(416,135,o),
(332,64,o),
(221,64,cs),
(111,64,o),
(42,137,o),
(61,244,c),
(44,244,l),
(23,127,o),
(100,48,o),
(219,48,cs),
(339,48,o),
(431,124,o),
(451,238,cs),
(461,297,o),
(446,353,o),
(406,386,c),
(656,385,l),
(588,0,l)
);
}
);
width = 1088;
}
);
note = dvO;
unicode = 2323;
},
{
glyphname = dvAU;
lastChange = "2022-10-20 16:08:56 +0000";
layers = (
{
layerId = m01;
shapes = (
{
closed = 1;
nodes = (
(601,0,l),
(728,724,l),
(982,724,l),
(855,0,l),
(872,0,l),
(999,724,l),
(1161,724,l),
(1164,740,l),
(1001,740,l),
(914,1003,o),
(869,1014,o),
(758,1014,cs),
(726,1014,l),
(724,998,l),
(756,998,ls),
(858,998,o),
(900,987,o),
(979,764,c),
(884,870,o),
(837,874,o),
(734,874,cs),
(702,874,l),
(699,858,l),
(731,858,ls),
(836,858,o),
(881,852,o),
(984,740,c),
(714,740,l),
(654,401,l),
(378,401,l),
(364,409,o),
(348,414,o),
(328,416,c),
(328,417,l),
(424,433,o),
(478,497,o),
(492,576,cs),
(511,682,o),
(441,749,o),
(335,749,cs),
(225,749,o),
(127,686,o),
(107,577,c),
(124,577,l),
(141,675,o),
(233,733,o),
(332,733,cs),
(425,733,o),
(493,675,o),
(474,572,cs),
(462,504,o),
(398,424,o),
(279,424,cs),
(245,424,l),
(243,408,l),
(277,408,ls),
(412,408,o),
(443,316,o),
(430,238,cs),
(411,135,o),
(328,64,o),
(217,64,cs),
(107,64,o),
(38,137,o),
(57,244,c),
(40,244,l),
(19,127,o),
(96,48,o),
(215,48,cs),
(335,48,o),
(426,124,o),
(447,238,cs),
(457,297,o),
(442,353,o),
(402,386,c),
(651,385,l),
(584,0,l)
);
}
);
width = 1088;
}
);
note = dvAU;
unicode = 2324;
},
{
glyphname = dvEcandra;
lastChange = "2022-10-20 16:08:56 +0000";
layers = (
{
layerId = m01;
shapes = (
{
closed = 1;
nodes = (
(3,724,l),
(158,724,l),
(79,278,ls),
(52,123,o),
(104,19,o),
(264,19,cs),
(405,19,o),
(498,106,o),
(523,250,c),
(506,250,l),
(482,114,o),
(395,35,o),
(266,35,cs),
(119,35,o),
(70,131,o),
(96,278,cs),
(175,724,l),
(573,724,l),
(547,576,ls),
(523,442,o),
(469,390,o),
(353,398,c),
(351,382,l),
(477,374,o),
(538,430,o),
(564,576,cs),
(590,724,l),
(724,724,l),
(727,740,l),
(6,740,l)
);
},
{
closed = 1;
nodes = (
(510,854,o),
(576,935,o),
(587,999,c),
(571,999,l),
(561,941,o),
(502,870,o),
(394,870,cs),
(285,870,o),
(251,941,o),
(261,999,c),
(245,999,l),
(234,935,o),
(271,854,o),
(391,854,cs)
);
}
);
width = 651;
}
);
note = dvEcandra;
unicode = 2317;
},
{
glyphname = dvAcandra;
lastChange = "2022-10-20 16:08:56 +0000";
layers = (
{
layerId = m01;
shapes = (
{
closed = 1;
nodes = (
(247,424,l),
(244,408,l),
(278,408,ls),
(413,408,o),
(445,316,o),
(431,238,cs),
(413,135,o),
(329,64,o),
(218,64,cs),
(108,64,o),
(39,137,o),
(58,244,c),
(41,244,l),
(20,127,o),
(97,48,o),
(216,48,cs),
(336,48,o),
(428,124,o),
(448,238,cs),
(458,297,o),
(443,353,o),
(403,386,c),
(653,385,l),
(585,0,l),
(602,0,l),
(730,724,l),
(892,724,l),
(894,740,l),
(715,740,l),
(656,401,l),
(380,401,l),
(365,409,o),
(349,414,o),
(329,416,c),
(329,417,l),
(425,433,o),
(480,497,o),
(493,576,cs),
(512,682,o),
(442,749,o),
(336,749,cs),
(226,749,o),
(128,686,o),
(109,577,c),
(126,577,l),
(142,675,o),
(234,733,o),
(333,733,cs),
(426,733,o),
(494,675,o),
(476,572,cs),
(464,504,o),
(400,424,o),
(281,424,cs)
);
},
{
closed = 1;
nodes = (
(872,854,o),
(938,935,o),
(949,999,c),
(933,999,l),
(923,941,o),
(863,870,o),
(755,870,cs),
(646,870,o),
(613,941,o),
(623,999,c),
(607,999,l),
(596,935,o),
(633,854,o),
(753,854,cs)
);
}
);
width = 817;
}
);
note = dvAcandra;
unicode = 2418;
},
{
glyphname = dvOcandra;
lastChange = "2022-10-20 16:08:56 +0000";
layers = (
{
layerId = m01;
shapes = (
{
closed = 1;
nodes = (
(247,424,l),
(244,408,l),
(278,408,ls),
(413,408,o),
(445,316,o),
(431,238,cs),
(413,135,o),
(329,64,o),
(218,64,cs),
(108,64,o),
(39,137,o),
(58,244,c),
(41,244,l),
(20,127,o),
(97,48,o),
(216,48,cs),
(336,48,o),
(428,124,o),
(448,238,cs),
(458,297,o),
(443,353,o),
(403,386,c),
(653,385,l),
(585,0,l),
(602,0,l),
(730,724,l),
(984,724,l),
(856,0,l),
(873,0,l),
(1001,724,l),
(1163,724,l),
(1165,740,l),
(715,740,l),
(656,401,l),
(380,401,l),
(365,409,o),
(349,414,o),
(329,416,c),
(329,417,l),
(425,433,o),
(480,497,o),
(493,576,cs),
(512,682,o),
(442,749,o),
(336,749,cs),
(226,749,o),
(128,686,o),
(109,577,c),
(126,577,l),
(142,675,o),
(234,733,o),
(333,733,cs),
(426,733,o),
(494,675,o),
(476,572,cs),
(464,504,o),
(400,424,o),
(281,424,cs)
);
},
{
closed = 1;
nodes = (
(1000,854,o),
(1066,935,o),
(1077,999,c),
(1061,999,l),
(1051,941,o),
(991,870,o),
(883,870,cs),
(774,870,o),
(741,941,o),
(751,999,c),
(735,999,l),
(724,935,o),
(761,854,o),
(881,854,cs)
);
}
);
width = 1088;
}
);
note = dvOcandra;
unicode = 2321;
},
{
glyphname = dvmAA;
lastChange = "2022-10-20 16:08:56 +0000";
layers = (
{
layerId = m01;
shapes = (
{
closed = 1;
nodes = (
(62,0,l),
(79,0,l),
(206,724,l),
(368,724,l),
(371,740,l),
(30,740,l),
(27,724,l),
(189,724,l)
);
}
);
width = 271;
}
);
note = dvmAA;
unicode = 2366;
},
{
glyphname = dvmI;
lastChange = "2022-10-20 16:08:56 +0000";
layers = (
{
layerId = m01;
shapes = (
{
closed = 1;
nodes = (
(187,724,l),
(349,724,l),
(351,740,l),
(189,740,l),
(190,745,ls),
(222,927,o),
(426,949,o),
(564,949,cs),
(700,949,o),
(895,913,o),
(866,750,cs),
(863,733,l),
(880,733,l),
(883,750,ls),
(914,923,o),
(719,965,o),
(567,965,cs),
(414,965,o),
(207,937,o),
(173,745,cs),
(172,740,l),
(10,740,l),
(8,724,l),
(170,724,l),
(42,0,l),
(59,0,l)
);
}
);
width = 271;
}
);
note = dvmI;
unicode = 2367;
},
{
glyphname = dvmII;
lastChange = "2022-10-20 16:08:56 +0000";
layers = (
{
layerId = m01;
shapes = (
{
closed = 1;
nodes = (
(-100,734,l),
(-83,734,l),
(-73,786,ls),
(-58,872,o),
(-13,949,o),
(83,949,cs),
(179,949,o),
(196,872,o),
(181,786,cs),
(172,740,l),
(10,740,l),
(8,724,l),
(170,724,l),
(42,0,l),
(59,0,l),
(187,724,l),
(349,724,l),
(351,740,l),
(189,740,l),
(198,786,ls),
(215,884,o),
(192,965,o),
(86,965,cs),
(-20,965,o),
(-74,882,o),
(-90,786,cs)
);
}
);
width = 271;
}
);
note = dvmII;
unicode = 2368;
},
{
glyphname = dvmU;
lastChange = "2022-10-20 16:08:56 +0000";
layers = (
{
layerId = m01;
shapes = (
{
closed = 1;
nodes = (
(-98,-264,o),
(-21,-208,o),
(-4,-114,cs),
(7,-48,o),
(-26,16,o),
(-105,16,cs),
(-119,16,l),
(-122,0,l),
(-108,0,ls),
(-40,0,o),
(-11,-57,o),
(-21,-114,cs),
(-37,-201,o),
(-111,-248,o),
(-207,-248,cs),
(-314,-248,o),
(-391,-195,o),
(-363,-75,c),
(-379,-75,l),
(-408,-203,o),
(-328,-264,o),
(-210,-264,cs)
);
}
);
width = 0;
}
);
note = dvmU;
unicode = 2369;
},
{
glyphname = dvmUU;
lastChange = "2022-10-20 16:08:56 +0000";
layers = (
{
layerId = m01;
shapes = (
{
closed = 1;
nodes = (
(-174,-262,o),
(-161,-261,o),
(-148,-259,c),
(-145,-242,l),
(-159,-244,o),
(-173,-245,o),
(-185,-245,cs),
(-258,-245,o),
(-300,-198,o),
(-288,-128,cs),
(-275,-53,o),
(-209,0,o),
(-111,0,cs),
(2,0,o),
(77,-86,o),
(51,-233,cs),
(47,-254,l),
(64,-254,l),
(66,-241,ls),
(96,-71,o),
(12,16,o),
(-111,16,cs),
(-212,16,o),
(-290,-41,o),
(-305,-128,cs),
(-320,-211,o),
(-270,-262,o),
(-188,-262,cs)
);
}
);
width = 0;
}
);
note = dvmUU;
unicode = 2370;
},
{
glyphname = dvmvR;
lastChange = "2022-10-20 16:08:56 +0000";
layers = (
{
layerId = m01;
shapes = (
{
closed = 1;
nodes = (
(-141,-287,o),
(-112,-282,o),
(-98,-277,c),
(-95,-261,l),
(-111,-266,o),
(-137,-271,o),
(-162,-271,cs),
(-240,-271,o),
(-302,-234,o),
(-285,-137,cs),
(-272,-62,o),
(-209,0,o),
(-115,0,cs),
(-103,0,l),
(-100,16,l),
(-112,16,ls),
(-217,16,o),
(-287,-53,o),
(-302,-137,cs),
(-321,-242,o),
(-251,-287,o),
(-165,-287,cs)
);
}
);
width = 0;
}
);
note = dvmvR;
unicode = 2371;
},
{
glyphname = dvmvRR;
lastChange = "2022-10-20 16:08:56 +0000";
layers = (
{
layerId = m01;
shapes = (
{
closed = 1;
nodes = (
(-164,-416,o),
(-126,-408,o),
(-105,-400,c),
(-102,-384,l),
(-124,-392,o),
(-163,-400,o),
(-199,-400,cs),
(-266,-400,o),
(-316,-373,o),
(-304,-305,cs),
(-291,-232,o),
(-229,-208,o),
(-172,-208,cs),
(-128,-208,l),
(-126,-192,l),
(-163,-192,ls),
(-230,-192,o),
(-279,-165,o),
(-267,-97,cs),
(-254,-24,o),
(-193,0,o),
(-136,0,cs),
(-92,0,l),
(-89,16,l),
(-133,16,ls),
(-200,16,o),
(-269,-15,o),
(-284,-97,cs),
(-294,-153,o),
(-267,-187,o),
(-220,-199,c),
(-220,-201,l),
(-265,-210,o),
(-310,-244,o),
(-321,-305,cs),
(-334,-383,o),
(-277,-416,o),
(-202,-416,cs)
);
}
);
width = 0;
}
);
note = dvmvRR;
unicode = 2372;
},
{
glyphname = dvmvL;
lastChange = "2022-10-20 16:08:56 +0000";
layers = (
{
layerId = m01;
shapes = (
{
closed = 1;
nodes = (
(82,-451,o),
(99,-448,o),
(108,-445,c),
(111,-429,l),
(101,-433,o),
(85,-436,o),
(69,-436,cs),
(18,-436,o),
(-28,-409,o),
(-16,-342,cs),
(-7,-290,o),
(39,-247,o),
(105,-247,cs),
(111,-247,l),
(123,-225,o),
(130,-201,o),
(134,-177,cs),
(150,-89,o),
(119,-20,o),
(34,-20,cs),
(-54,-20,o),
(-98,-88,o),
(-116,-143,c),
(-118,-143,l),
(-115,-88,o),
(-136,-20,o),
(-217,-20,cs),
(-305,-20,o),
(-365,-86,o),
(-381,-177,cs),
(-397,-270,o),
(-358,-344,o),
(-254,-344,cs),
(-246,-344,o),
(-235,-343,o),
(-230,-342,c),
(-227,-327,l),
(-232,-328,o),
(-242,-329,o),
(-249,-329,cs),
(-344,-329,o),
(-380,-262,o),
(-365,-177,cs),
(-350,-96,o),
(-300,-35,o),
(-220,-35,cs),
(-145,-35,o),
(-117,-101,o),
(-135,-203,cs),
(-136,-208,l),
(-120,-208,l),
(-119,-203,ls),
(-101,-102,o),
(-50,-35,o),
(29,-35,cs),
(108,-35,o),
(132,-98,o),
(118,-177,cs),
(115,-196,o),
(110,-215,o),
(102,-232,c),
(30,-232,o),
(-21,-281,o),
(-32,-344,cs),
(-45,-418,o),
(5,-451,o),
(66,-451,cs)
);
}
);
width = 0;
}
);
note = dvmvL;
unicode = 2402;
},
{
glyphname = dvmvLL;
lastChange = "2022-10-20 16:08:56 +0000";
layers = (
{
layerId = m01;
shapes = (
{
closed = 1;
nodes = (
(111,-517,l),
(96,-523,o),
(69,-529,o),
(43,-529,cs),
(-3,-529,o),
(-37,-509,o),
(-29,-464,cs),
(-20,-412,o),
(25,-397,o),
(65,-397,cs),
(92,-397,l),
(94,-382,l),
(69,-382,ls),
(23,-382,o),
(-10,-363,o),
(-2,-314,cs),
(7,-264,o),
(49,-247,o),
(87,-247,cs),
(119,-247,l),
(131,-225,o),
(138,-201,o),
(142,-177,cs),
(158,-89,o),
(127,-20,o),
(42,-20,cs),
(-46,-20,o),
(-90,-88,o),
(-108,-143,c),
(-110,-143,l),
(-107,-88,o),
(-128,-20,o),
(-209,-20,cs),
(-297,-20,o),
(-357,-86,o),
(-373,-177,cs),
(-389,-270,o),
(-350,-344,o),
(-246,-344,cs),
(-238,-344,o),
(-227,-343,o),
(-222,-342,c),
(-219,-327,l),
(-224,-328,o),
(-234,-329,o),
(-241,-329,cs),
(-336,-329,o),
(-372,-262,o),
(-357,-177,cs),
(-342,-96,o),
(-292,-35,o),
(-212,-35,cs),
(-137,-35,o),
(-109,-101,o),
(-127,-203,cs),
(-128,-208,l),
(-112,-208,l),
(-111,-203,ls),
(-93,-102,o),
(-42,-35,o),
(37,-35,cs),
(116,-35,o),
(140,-98,o),
(126,-177,cs),
(123,-196,o),
(118,-215,o),
(110,-232,c),
(90,-232,ls),
(42,-232,o),
(-7,-256,o),
(-17,-314,cs),
(-24,-354,o),
(-6,-380,o),
(28,-389,c),
(28,-390,l),
(-3,-396,o),
(-35,-420,o),
(-43,-463,cs),
(-53,-518,o),
(-13,-543,o),
(41,-543,cs),
(68,-543,o),
(95,-537,o),
(109,-532,c)
);
}
);
width = 0;
}
);
note = dvmvLL;
unicode = 2403;
},
{
glyphname = dvmE;
lastChange = "2022-10-20 16:08:56 +0000";
layers = (
{
layerId = m01;
shapes = (
{
closed = 1;
nodes = (
(-146,737,l),
(-243,955,o),
(-288,964,o),
(-399,964,cs),
(-431,964,l),
(-434,948,l),
(-402,948,ls),
(-296,948,o),
(-256,938,o),
(-164,737,c)
);
}
);
width = 0;
}
);
note = dvmE;
unicode = 2375;
},
{
glyphname = dvmAI;
lastChange = "2022-10-20 16:08:56 +0000";
layers = (
{
layerId = m01;
shapes = (
{
closed = 1;
nodes = (
(-150,737,l),
(-239,1003,o),
(-284,1014,o),
(-395,1014,cs),
(-427,1014,l),
(-429,998,l),
(-397,998,ls),
(-295,998,o),
(-253,987,o),
(-174,764,c),
(-269,870,o),
(-316,874,o),
(-419,874,cs),
(-451,874,l),
(-454,858,l),
(-422,858,ls),
(-316,858,o),
(-271,852,o),
(-166,737,c)
);
}
);
width = 0;
}
);
note = dvmAI;
unicode = 2376;
},
{
glyphname = dvmO;
lastChange = "2022-10-20 16:08:56 +0000";
layers = (
{
layerId = m01;
shapes = (
{
closed = 1;
nodes = (
(59,0,l),
(187,724,l),
(349,724,l),
(351,740,l),
(188,740,l),
(93,955,o),
(48,964,o),
(-63,964,cs),
(-95,964,l),
(-98,948,l),
(-66,948,ls),
(39,948,o),
(80,938,o),
(170,740,c),
(10,740,l),
(8,724,l),
(170,724,l),
(42,0,l)
);
}
);
width = 271;
}
);
note = dvmO;
unicode = 2379;
},
{
glyphname = dvmAU;
lastChange = "2022-10-20 16:08:56 +0000";
layers = (
{
layerId = m01;
shapes = (
{
closed = 1;
nodes = (
(55,0,l),
(182,724,l),
(344,724,l),
(347,740,l),
(184,740,l),
(97,1003,o),
(52,1014,o),
(-59,1014,cs),
(-91,1014,l),
(-93,998,l),
(-61,998,ls),
(41,998,o),
(83,987,o),
(162,764,c),
(67,870,o),
(20,874,o),
(-83,874,cs),
(-115,874,l),
(-118,858,l),
(-86,858,ls),
(19,858,o),
(64,852,o),
(167,740,c),
(6,740,l),
(3,724,l),
(165,724,l),
(38,0,l)
);
}
);
width = 271;
}
);
note = dvmAU;
unicode = 2380;
},
{
glyphname = dvmEcandra;
lastChange = "2022-10-20 16:08:56 +0000";
layers = (
{
layerId = m01;
shapes = (
{
closed = 1;
nodes = (
(-30,824,o),
(36,905,o),
(48,969,c),
(32,969,l),
(22,911,o),
(-38,840,o),
(-146,840,cs),
(-255,840,o),
(-288,911,o),
(-278,969,c),
(-294,969,l),
(-306,905,o),
(-269,824,o),
(-149,824,cs)
);
}
);
width = 0;
}
);
note = dvmEcandra;
unicode = 2373;
},
{
glyphname = dvmOcandra;
lastChange = "2022-10-20 16:08:56 +0000";
layers = (
{
layerId = m01;
shapes = (
{
closed = 1;
nodes = (
(42,0,l),
(59,0,l),
(186,724,l),
(348,724,l),
(351,740,l),
(10,740,l),
(7,724,l),
(169,724,l)
);
},
{
closed = 1;
nodes = (
(315,824,o),
(381,905,o),
(392,969,c),
(376,969,l),
(366,911,o),
(307,840,o),
(199,840,cs),
(90,840,o),
(56,911,o),
(66,969,c),
(50,969,l),
(39,905,o),
(76,824,o),
(196,824,cs)
);
}
);
width = 271;
}
);
note = dvmOcandra;
unicode = 2377;
},
{
glyphname = dvKA;
lastChange = "2022-10-20 16:08:56 +0000";
layers = (
{
layerId = m01;
shapes = (
{
closed = 1;
nodes = (
(442,0,l),
(458,0,l),
(520,351,ls),
(537,449,o),
(613,568,o),
(757,568,cs),
(863,568,o),
(940,490,o),
(917,359,cs),
(893,221,o),
(794,143,o),
(685,143,cs),
(666,143,o),
(645,145,o),
(629,149,c),
(626,133,l),
(639,130,o),
(661,127,o),
(682,127,cs),
(801,127,o),
(908,212,o),
(934,359,cs),
(959,499,o),
(876,584,o),
(760,584,cs),
(647,584,o),
(573,517,o),
(535,440,c),
(585,724,l),
(1118,724,l),
(1121,740,l),
(30,740,l),
(27,724,l),
(569,724,l),
(520,443,l),
(508,518,o),
(456,584,o),
(342,584,cs),
(222,584,o),
(108,499,o),
(83,359,cs),
(57,212,o),
(138,127,o),
(261,127,cs),
(373,127,o),
(451,193,o),
(489,268,c)
);
},
{
closed = 1;
nodes = (
(151,143,o),
(76,221,o),
(100,359,cs),
(123,490,o),
(229,568,o),
(339,568,cs),
(485,568,o),
(522,453,o),
(504,355,cs),
(504,354,ls),
(488,263,o),
(410,143,o),
(264,143,cs)
);
}
);
width = 1021;
}
);
note = dvKA;
unicode = 2325;
},
{
glyphname = dvKHA;
lastChange = "2022-10-20 16:08:56 +0000";
layers = (
{
layerId = m01;
shapes = (
{
closed = 1;
nodes = (
(449,175,o),
(378,244,o),
(399,366,cs),
(420,481,o),
(518,549,o),
(617,549,cs),
(746,549,o),
(779,448,o),
(764,362,cs),
(763,361,ls),
(749,280,o),
(680,175,o),
(551,175,cs)
);
},
{
closed = 1;
nodes = (
(717,0,l),
(844,724,l),
(1006,724,l),
(1009,740,l),
(30,740,l),
(27,724,l),
(355,724,l),
(327,563,ls),
(302,419,o),
(217,394,o),
(148,394,cs),
(104,394,l),
(72,214,ls),
(49,82,o),
(123,0,o),
(255,0,cs),
(371,0,o),
(456,77,o),
(502,164,c),
(516,161,o),
(532,159,o),
(548,159,cs),
(647,159,o),
(716,218,o),
(750,285,c),
(700,0,l)
);
},
{
closed = 1;
nodes = (
(134,16,o),
(68,94,o),
(89,214,cs),
(118,378,l),
(125,378,o),
(132,378,o),
(139,378,cs),
(227,378,o),
(317,410,o),
(344,563,cs),
(372,724,l),
(827,724,l),
(778,441,l),
(767,507,o),
(720,565,o),
(619,565,cs),
(508,565,o),
(404,490,o),
(382,366,cs),
(364,260,o),
(408,191,o),
(485,168,c),
(444,87,o),
(364,16,o),
(259,16,cs)
);
}
);
width = 909;
}
);
note = dvKHA;
unicode = 2326;
},
{
glyphname = dvGA;
lastChange = "2022-10-20 16:08:56 +0000";
layers = (
{
layerId = m01;
shapes = (
{
closed = 1;
nodes = (
(474,0,l),
(491,0,l),
(618,724,l),
(780,724,l),
(783,740,l),
(30,740,l),
(27,724,l),
(359,724,l),
(305,414,ls),
(294,353,o),
(259,289,o),
(172,289,cs),
(89,289,o),
(73,354,o),
(83,411,cs),
(89,442,l),
(72,442,l),
(66,412,ls),
(54,343,o),
(78,273,o),
(169,273,cs),
(263,273,o),
(309,340,o),
(322,414,cs),
(376,724,l),
(601,724,l)
);
}
);
width = 683;
}
);
note = dvGA;
unicode = 2327;
},
{
glyphname = dvGHA;
lastChange = "2022-10-20 16:08:56 +0000";
layers = (
{
layerId = m01;
shapes = (
{
closed = 1;
nodes = (
(166,132,o),
(82,185,o),
(102,299,cs),
(117,382,o),
(186,451,o),
(328,451,cs),
(382,451,l),
(385,467,l),
(331,467,ls),
(205,467,o),
(163,521,o),
(180,622,cs),
(198,724,l),
(639,724,l),
(576,364,ls),
(552,227,o),
(424,132,o),
(287,132,cs)
);
},
{
closed = 1;
nodes = (
(27,724,l),
(181,724,l),
(163,622,ls),
(144,513,o),
(198,468,o),
(270,460,c),
(270,458,l),
(185,451,o),
(102,395,o),
(85,299,cs),
(64,178,o),
(147,116,o),
(284,116,cs),
(404,116,o),
(508,180,o),
(560,276,c),
(512,0,l),
(529,0,l),
(656,724,l),
(818,724,l),
(821,740,l),
(30,740,l)
);
}
);
width = 721;
}
);
note = dvGHA;
unicode = 2328;
},
{
glyphname = dvNGA;
lastChange = "2022-10-20 16:08:56 +0000";
layers = (
{
layerId = m01;
shapes = (
{
closed = 1;
nodes = (
(587,391,o),
(599,401,o),
(602,415,cs),
(604,429,o),
(596,439,o),
(582,439,cs),
(567,439,o),
(555,429,o),
(553,415,cs),
(550,401,o),
(558,391,o),
(573,391,cs)
);
},
{
closed = 1;
nodes = (
(28,724,l),
(507,724,l),
(479,562,l),
(319,562,ls),
(236,562,o),
(135,535,o),
(116,429,cs),
(100,338,o),
(166,298,o),
(258,298,cs),
(303,298,ls),
(392,298,o),
(486,268,o),
(465,150,cs),
(451,72,o),
(383,7,o),
(259,7,cs),
(109,7,o),
(56,88,o),
(73,184,c),
(56,184,l),
(37,75,o),
(101,-9,o),
(256,-9,cs),
(389,-9,o),
(466,62,o),
(482,150,cs),
(504,276,o),
(407,314,o),
(307,314,cs),
(262,314,ls),
(185,314,o),
(118,343,o),
(133,429,cs),
(151,528,o),
(248,546,o),
(324,546,cs),
(493,546,l),
(524,724,l),
(720,724,l),
(723,740,l),
(31,740,l)
);
}
);
width = 622;
}
);
note = dvNGA;
unicode = 2329;
},
{
glyphname = dvCA;
lastChange = "2022-10-20 16:08:56 +0000";
layers = (
{
layerId = m01;
shapes = (
{
closed = 1;
nodes = (
(27,724,l),
(636,724,l),
(567,333,ls),
(549,227,o),
(443,131,o),
(323,131,cs),
(216,131,o),
(134,200,o),
(156,324,cs),
(176,436,o),
(271,525,o),
(404,525,cs),
(433,525,l),
(436,541,l),
(79,541,l),
(76,525,l),
(317,525,l),
(222,496,o),
(156,421,o),
(139,324,cs),
(115,190,o),
(203,115,o),
(321,115,cs),
(419,115,o),
(508,174,o),
(553,253,c),
(509,0,l),
(526,0,l),
(653,724,l),
(815,724,l),
(818,740,l),
(30,740,l)
);
}
);
width = 718;
}
);
note = dvCA;
unicode = 2330;
},
{
glyphname = dvCHA;
lastChange = "2022-10-20 16:08:56 +0000";
layers = (
{
layerId = m01;
shapes = (
{
closed = 1;
nodes = (
(25,724,l),
(174,724,l),
(150,589,ls),
(130,480,o),
(185,435,o),
(256,427,c),
(256,425,l),
(166,417,o),
(79,359,o),
(60,251,cs),
(35,110,o),
(148,33,o),
(332,33,cs),
(540,33,o),
(720,152,o),
(756,356,cs),
(780,494,o),
(712,557,o),
(631,561,c),
(660,724,l),
(906,724,l),
(908,740,l),
(27,740,l)
);
},
{
closed = 1;
nodes = (
(167,49,o),
(53,116,o),
(77,251,cs),
(93,342,o),
(167,418,o),
(315,418,cs),
(339,418,l),
(341,434,l),
(317,434,ls),
(191,434,o),
(149,488,o),
(167,589,cs),
(191,724,l),
(643,724,l),
(614,561,l),
(541,558,o),
(454,516,o),
(433,397,cs),
(427,365,o),
(427,329,o),
(434,290,c),
(451,290,l),
(445,329,o),
(444,365,o),
(450,397,cs),
(470,510,o),
(557,545,o),
(619,545,cs),
(692,545,o),
(762,488,o),
(738,355,cs),
(705,167,o),
(529,49,o),
(334,49,cs)
);
}
);
width = 811;
}
);
note = dvCHA;
unicode = 2331;
},
{
glyphname = dvJA;
lastChange = "2022-10-20 16:08:56 +0000";
layers = (
{
layerId = m01;
shapes = (
{
closed = 1;
nodes = (
(27,724,l),
(741,724,l),
(704,509,l),
(430,509,l),
(400,339,ls),
(383,243,o),
(314,175,o),
(222,175,cs),
(134,175,o),
(91,243,o),
(108,339,cs),
(138,509,l),
(121,509,l),
(91,340,ls),
(72,234,o),
(119,159,o),
(218,159,cs),
(322,159,o),
(398,234,o),
(417,340,cs),
(444,493,l),
(701,493,l),
(614,0,l),
(631,0,l),
(758,724,l),
(920,724,l),
(923,740,l),
(30,740,l)
);
}
);
width = 823;
}
);
note = dvJA;
unicode = 2332;
},
{
glyphname = dvJHA;
lastChange = "2022-10-20 16:08:56 +0000";
layers = (
{
layerId = m01;
shapes = (
{
closed = 1;
nodes = (
(756,724,l),
(683,314,l),
(267,314,ls),
(188,314,o),
(120,343,o),
(136,429,cs),
(153,528,o),
(252,546,o),
(329,546,cs),
(498,546,l),
(530,724,l)
);
},
{
closed = 1;
nodes = (
(628,0,l),
(645,0,l),
(773,724,l),
(935,724,l),
(938,740,l),
(37,740,l),
(34,724,l),
(513,724,l),
(484,562,l),
(324,562,ls),
(240,562,o),
(137,535,o),
(119,429,cs),
(103,338,o),
(172,298,o),
(264,298,cs),
(309,298,ls),
(430,298,o),
(487,242,o),
(470,150,cs),
(458,80,o),
(400,16,o),
(286,16,cs),
(154,16,o),
(102,92,o),
(103,173,c),
(88,173,l),
(44,-71,l),
(61,-71,l),
(95,117,l),
(100,88,o),
(137,0,o),
(282,0,cs),
(407,0,o),
(473,70,o),
(487,150,cs),
(503,239,o),
(458,284,o),
(397,300,c),
(681,299,l)
);
}
);
width = 831;
}
);
note = dvJHA;
unicode = 2333;
},
{
glyphname = dvNYA;
lastChange = "2022-10-20 16:08:56 +0000";
layers = (
{
layerId = m01;
shapes = (
{
closed = 1;
nodes = (
(27,724,l),
(705,724,l),
(642,363,l),
(512,363,l),
(527,473,o),
(480,583,o),
(332,583,cs),
(195,583,o),
(123,497,o),
(95,428,c),
(112,428,l),
(137,489,o),
(205,567,o),
(329,567,cs),
(465,567,o),
(513,465,o),
(493,354,cs),
(473,239,o),
(389,138,o),
(253,138,cs),
(133,138,o),
(91,213,o),
(85,276,c),
(68,276,l),
(74,208,o),
(116,121,o),
(250,121,cs),
(399,121,o),
(486,233,o),
(509,347,c),
(639,347,l),
(578,0,l),
(595,0,l),
(722,724,l),
(884,724,l),
(887,740,l),
(30,740,l)
);
}
);
width = 787;
}
);
note = dvNYA;
unicode = 2334;
},
{
glyphname = dvTTA;
lastChange = "2022-10-20 16:08:56 +0000";
layers = (
{
layerId = m01;
shapes = (
{
closed = 1;
nodes = (
(22,724,l),
(481,724,l),
(454,573,l),
(403,573,ls),
(242,573,o),
(101,492,o),
(69,311,cs),
(43,166,o),
(134,63,o),
(280,63,cs),
(431,63,o),
(553,169,o),
(580,320,c),
(563,320,l),
(538,179,o),
(422,79,o),
(283,79,cs),
(147,79,o),
(62,176,o),
(86,312,cs),
(116,479,o),
(247,557,o),
(400,557,cs),
(468,557,l),
(498,724,l),
(746,724,l),
(749,740,l),
(25,740,l)
);
}
);
width = 654;
}
);
note = dvTTA;
unicode = 2335;
},
{
glyphname = dvTTHA;
lastChange = "2022-10-20 16:08:56 +0000";
layers = (
{
layerId = m01;
shapes = (
{
closed = 1;
nodes = (
(147,79,o),
(62,176,o),
(86,311,cs),
(110,447,o),
(229,543,o),
(365,543,cs),
(501,543,o),
(586,447,o),
(562,311,cs),
(538,176,o),
(419,79,o),
(283,79,cs)
);
},
{
closed = 1;
nodes = (
(426,63,o),
(553,166,o),
(579,311,cs),
(604,453,o),
(517,555,o),
(376,559,c),
(405,724,l),
(772,724,l),
(775,740,l),
(25,740,l),
(22,724,l),
(388,724,l),
(359,559,l),
(217,555,o),
(94,453,o),
(69,311,cs),
(43,166,o),
(134,63,o),
(280,63,cs)
);
}
);
width = 680;
}
);
note = dvTTHA;
unicode = 2336;
},
{
glyphname = dvDDA;
lastChange = "2022-10-20 16:08:56 +0000";
layers = (
{
layerId = m01;
shapes = (
{
closed = 1;
nodes = (
(28,724,l),
(499,724,l),
(471,562,l),
(319,562,ls),
(236,562,o),
(135,535,o),
(116,429,cs),
(100,338,o),
(166,298,o),
(258,298,cs),
(303,298,ls),
(392,298,o),
(486,268,o),
(465,150,cs),
(451,72,o),
(383,7,o),
(259,7,cs),
(109,7,o),
(56,88,o),
(73,184,c),
(56,184,l),
(37,75,o),
(101,-9,o),
(256,-9,cs),
(389,-9,o),
(466,62,o),
(482,150,cs),
(504,276,o),
(407,314,o),
(307,314,cs),
(262,314,ls),
(185,314,o),
(118,343,o),
(133,429,cs),
(151,528,o),
(248,546,o),
(324,546,cs),
(485,546,l),
(516,724,l),
(680,724,l),
(683,740,l),
(31,740,l)
);
}
);
width = 582;
}
);
note = dvDDA;
unicode = 2337;
},
{
glyphname = dvDDHA;
lastChange = "2022-10-20 16:08:56 +0000";
layers = (
{
layerId = m01;
shapes = (
{
closed = 1;
nodes = (
(25,724,l),
(502,724,l),
(476,573,l),
(417,573,ls),
(250,573,o),
(104,487,o),
(70,294,cs),
(41,133,o),
(143,23,o),
(304,23,cs),
(434,23,o),
(537,102,o),
(556,211,cs),
(572,304,o),
(521,371,o),
(427,371,cs),
(349,371,o),
(274,319,o),
(259,233,cs),
(258,226,o),
(257,216,o),
(257,210,c),
(274,210,l),
(274,216,o),
(274,225,o),
(276,232,cs),
(289,308,o),
(357,355,o),
(424,355,cs),
(506,355,o),
(554,294,o),
(539,211,cs),
(521,112,o),
(425,39,o),
(307,39,cs),
(156,39,o),
(60,143,o),
(87,295,cs),
(118,474,o),
(255,557,o),
(414,557,cs),
(490,557,l),
(519,724,l),
(723,724,l),
(726,740,l),
(28,740,l)
);
}
);
width = 628;
}
);
note = dvDDHA;
unicode = 2338;
},
{
glyphname = dvNNA;
lastChange = "2022-10-20 16:08:56 +0000";
layers = (
{
layerId = m01;
shapes = (
{
closed = 1;
nodes = (
(149,234,o),
(105,302,o),
(122,398,cs),
(179,724,l),
(471,724,l),
(414,398,ls),
(397,302,o),
(331,234,o),
(239,234,cs)
);
},
{
closed = 1;
nodes = (
(27,724,l),
(162,724,l),
(105,399,ls),
(86,293,o),
(134,218,o),
(235,218,cs),
(339,218,o),
(412,293,o),
(431,399,cs),
(488,724,l),
(738,724,l),
(611,0,l),
(628,0,l),
(755,724,l),
(917,724,l),
(920,740,l),
(30,740,l)
);
}
);
width = 820;
}
);
note = dvNNA;
unicode = 2339;
},
{
glyphname = dvTA;
lastChange = "2022-10-20 16:08:56 +0000";
layers = (
{
layerId = m01;
shapes = (
{
closed = 1;
nodes = (
(27,724,l),
(599,724,l),
(560,503,l),
(394,503,ls),
(221,503,o),
(95,426,o),
(64,253,cs),
(36,94,o),
(116,2,o),
(280,2,cs),
(304,2,l),
(307,18,l),
(283,18,ls),
(128,18,o),
(55,103,o),
(81,253,cs),
(110,414,o),
(229,487,o),
(392,487,cs),
(558,487,l),
(472,0,l),
(489,0,l),
(616,724,l),
(778,724,l),
(781,740,l),
(30,740,l)
);
}
);
width = 681;
}
);
note = dvTA;
unicode = 2340;
},
{
glyphname = dvTHA;
lastChange = "2022-10-20 16:08:56 +0000";
layers = (
{
layerId = m01;
shapes = (
{
closed = 1;
nodes = (
(531,0,l),
(548,0,l),
(676,724,l),
(838,724,l),
(840,740,l),
(661,740,l),
(591,343,ls),
(569,215,o),
(445,130,o),
(319,130,cs),
(155,130,o),
(85,231,o),
(121,395,c),
(214,395,ls),
(334,395,o),
(462,434,o),
(488,581,cs),
(505,674,o),
(455,749,o),
(351,749,cs),
(244,749,o),
(166,678,o),
(148,577,cs),
(145,560,o),
(143,540,o),
(144,525,c),
(161,525,l),
(161,542,o),
(162,559,o),
(164,575,cs),
(181,668,o),
(249,733,o),
(348,733,cs),
(443,733,o),
(486,665,o),
(471,581,cs),
(446,439,o),
(316,411,o),
(216,411,cs),
(108,411,l),
(105,399,o),
(102,387,o),
(100,376,cs),
(72,217,o),
(148,114,o),
(315,114,cs),
(450,114,o),
(542,193,o),
(578,264,c)
);
}
);
width = 741;
}
);
note = dvTHA;
unicode = 2341;
},
{
glyphname = dvDA;
lastChange = "2022-10-20 16:08:56 +0000";
layers = (
{
layerId = m01;
shapes = (
{
closed = 1;
nodes = (
(27,724,l),
(516,724,l),
(492,588,l),
(388,588,ls),
(247,588,o),
(111,515,o),
(82,355,cs),
(59,221,o),
(128,129,o),
(269,129,cs),
(359,129,o),
(442,177,o),
(476,240,c),
(434,0,l),
(451,0,l),
(507,321,l),
(492,321,l),
(470,193,o),
(353,145,o),
(273,145,cs),
(144,145,o),
(77,228,o),
(99,355,cs),
(125,502,o),
(253,572,o),
(386,572,cs),
(507,572,l),
(533,724,l),
(704,724,l),
(707,740,l),
(30,740,l)
);
}
);
width = 607;
}
);
note = dvDA;
unicode = 2342;
},
{
glyphname = dvDHA;
lastChange = "2022-10-20 16:08:56 +0000";
layers = (
{
layerId = m01;
shapes = (
{
closed = 1;
nodes = (
(380,116,o),
(482,179,o),
(532,275,c),
(484,0,l),
(501,0,l),
(629,724,l),
(791,724,l),
(793,740,l),
(614,740,l),
(548,364,ls),
(524,227,o),
(400,132,o),
(269,132,cs),
(166,132,o),
(86,180,o),
(104,284,cs),
(118,361,o),
(181,424,o),
(300,424,cs),
(354,424,l),
(357,440,l),
(303,440,ls),
(185,440,o),
(138,504,o),
(154,593,cs),
(167,671,o),
(229,733,o),
(317,733,cs),
(406,733,o),
(442,671,o),
(430,601,cs),
(429,596,o),
(427,587,o),
(424,573,c),
(441,573,l),
(444,585,o),
(446,595,o),
(447,600,cs),
(462,687,o),
(415,749,o),
(320,749,cs),
(224,749,o),
(152,681,o),
(137,594,cs),
(119,495,o),
(175,444,o),
(241,432,c),
(241,430,l),
(175,424,o),
(103,372,o),
(87,284,cs),
(67,173,o),
(148,116,o),
(266,116,cs)
);
}
);
width = 694;
}
);
note = dvDHA;
unicode = 2343;
},
{
glyphname = dvNA;
lastChange = "2022-10-20 16:08:56 +0000";
layers = (
{
layerId = m01;
shapes = (
{
closed = 1;
nodes = (
(125,176,o),
(69,241,o),
(86,334,cs),
(103,430,o),
(183,495,o),
(281,495,cs),
(376,495,o),
(432,429,o),
(416,336,cs),
(399,242,o),
(320,176,o),
(225,176,cs)
);
},
{
closed = 1;
nodes = (
(27,724,l),
(678,724,l),
(641,511,l),
(286,511,ls),
(175,511,o),
(87,440,o),
(69,334,cs),
(51,233,o),
(110,160,o),
(222,160,cs),
(328,160,o),
(415,233,o),
(433,336,cs),
(447,418,o),
(408,477,o),
(351,496,c),
(638,496,l),
(551,0,l),
(568,0,l),
(695,724,l),
(857,724,l),
(860,740,l),
(30,740,l)
);
}
);
width = 760;
}
);
note = dvNA;
unicode = 2344;
},
{
glyphname = dvPA;
lastChange = "2022-10-20 16:08:56 +0000";
layers = (
{
layerId = m01;
shapes = (
{
closed = 1;
nodes = (
(154,247,o),
(110,330,o),
(134,469,cs),
(179,724,l),
(553,724,l),
(502,435,ls),
(484,333,o),
(403,247,o),
(285,247,cs)
);
},
{
closed = 1;
nodes = (
(27,724,l),
(162,724,l),
(117,469,ls),
(91,320,o),
(143,231,o),
(281,231,cs),
(374,231,o),
(448,279,o),
(488,352,c),
(426,0,l),
(443,0,l),
(570,724,l),
(732,724,l),
(735,740,l),
(30,740,l)
);
}
);
width = 635;
}
);
note = dvPA;
unicode = 2346;
},
{
glyphname = dvPHA;
lastChange = "2022-10-20 16:08:56 +0000";
layers = (
{
layerId = m01;
shapes = (
{
closed = 1;
nodes = (
(151,247,o),
(110,330,o),
(134,469,cs),
(179,724,l),
(533,724,l),
(482,435,ls),
(464,333,o),
(387,247,o),
(275,247,cs)
);
},
{
closed = 1;
nodes = (
(27,724,l),
(162,724,l),
(117,469,ls),
(91,320,o),
(140,231,o),
(271,231,cs),
(360,231,o),
(430,279,o),
(468,352,c),
(406,0,l),
(423,0,l),
(485,351,ls),
(502,449,o),
(578,568,o),
(722,568,cs),
(828,568,o),
(905,490,o),
(882,359,cs),
(858,221,o),
(759,143,o),
(650,143,cs),
(631,143,o),
(610,145,o),
(594,149,c),
(591,133,l),
(604,130,o),
(626,127,o),
(647,127,cs),
(766,127,o),
(873,212,o),
(899,359,cs),
(924,499,o),
(841,584,o),
(725,584,cs),
(611,584,o),
(537,515,o),
(500,438,c),
(550,724,l),
(1083,724,l),
(1086,740,l),
(30,740,l)
);
}
);
width = 986;
}
);
note = dvPHA;
unicode = 2347;
},
{
glyphname = dvBA;
lastChange = "2022-10-20 16:08:56 +0000";
layers = (
{
layerId = m01;
shapes = (
{
closed = 1;
nodes = (
(481,0,l),
(498,0,l),
(625,724,l),
(787,724,l),
(790,740,l),
(30,740,l),
(27,724,l),
(608,724,l),
(559,444,l),
(545,523,o),
(483,593,o),
(363,593,cs),
(231,593,o),
(108,502,o),
(82,353,cs),
(56,207,o),
(152,120,o),
(283,120,cs),
(401,120,o),
(486,188,o),
(527,265,c)
);
},
{
closed = 1;
nodes = (
(513,577,o),
(562,458,o),
(543,355,cs),
(535,307,o),
(508,251,o),
(463,207,c),
(195,519,l),
(242,557,o),
(300,577,o),
(360,577,cs)
);
},
{
closed = 1;
nodes = (
(164,136,o),
(75,215,o),
(99,353,cs),
(110,418,o),
(141,470,o),
(182,508,c),
(451,196,l),
(409,160,o),
(355,136,o),
(286,136,cs)
);
}
);
width = 690;
}
);
note = dvBA;
unicode = 2348;
},
{
glyphname = dvBHA;
lastChange = "2022-10-20 16:08:56 +0000";
layers = (
{
layerId = m01;
shapes = (
{
closed = 1;
nodes = (
(131,152,o),
(82,207,o),
(97,290,cs),
(112,375,o),
(183,429,o),
(270,429,cs),
(392,429,l),
(373,324,ls),
(354,214,o),
(292,152,o),
(210,152,cs)
);
},
{
closed = 1;
nodes = (
(299,136,o),
(368,198,o),
(390,325,cs),
(409,429,l),
(609,429,l),
(533,0,l),
(550,0,l),
(678,724,l),
(840,724,l),
(842,740,l),
(663,740,l),
(611,445,l),
(411,445,l),
(431,557,ls),
(452,676,o),
(419,749,o),
(322,749,cs),
(240,749,o),
(171,690,o),
(153,592,cs),
(151,578,o),
(150,563,o),
(150,548,c),
(167,548,l),
(166,564,o),
(168,578,o),
(170,592,cs),
(186,681,o),
(247,732,o),
(319,732,cs),
(407,732,o),
(433,664,o),
(414,556,cs),
(394,445,l),
(272,445,ls),
(174,445,o),
(97,384,o),
(80,290,cs),
(64,199,o),
(114,136,o),
(207,136,cs)
);
}
);
width = 743;
}
);
note = dvBHA;
unicode = 2349;
},
{
glyphname = dvMA;
lastChange = "2022-10-20 16:08:56 +0000";
layers = (
{
layerId = m01;
shapes = (
{
closed = 1;
nodes = (
(92,152,o),
(43,207,o),
(58,290,cs),
(73,375,o),
(143,429,o),
(230,429,cs),
(352,429,l),
(334,324,ls),
(314,214,o),
(253,152,o),
(171,152,cs)
);
},
{
closed = 1;
nodes = (
(604,445,l),
(372,445,l),
(421,724,l),
(653,724,l)
);
},
{
closed = 1;
nodes = (
(27,724,l),
(404,724,l),
(355,445,l),
(233,445,ls),
(135,445,o),
(57,384,o),
(41,290,cs),
(25,199,o),
(75,136,o),
(168,136,cs),
(260,136,o),
(329,198,o),
(351,325,cs),
(369,429,l),
(601,429,l),
(526,0,l),
(543,0,l),
(670,724,l),
(832,724,l),
(835,740,l),
(30,740,l)
);
}
);
width = 735;
}
);
note = dvMA;
unicode = 2350;
},
{
glyphname = dvYA;
lastChange = "2022-10-20 16:08:56 +0000";
layers = (
{
layerId = m01;
shapes = (
{
closed = 1;
nodes = (
(150,154,o),
(76,253,o),
(106,420,cs),
(107,424,o),
(108,431,o),
(110,439,c),
(113,439,ls),
(241,439,o),
(344,480,o),
(372,635,cs),
(387,724,l),
(638,724,l),
(576,368,ls),
(553,238,o),
(428,154,o),
(303,154,cs)
);
},
{
closed = 1;
nodes = (
(27,724,l),
(370,724,l),
(355,635,ls),
(328,486,o),
(228,455,o),
(116,455,cs),
(98,455,l),
(95,445,o),
(92,431,o),
(90,420,cs),
(60,249,o),
(133,138,o),
(299,138,cs),
(432,138,o),
(525,216,o),
(561,285,c),
(511,0,l),
(528,0,l),
(655,724,l),
(817,724,l),
(820,740,l),
(30,740,l)
);
}
);
width = 720;
}
);
note = dvYA;
unicode = 2351;
},
{
glyphname = dvRA;
lastChange = "2022-10-20 16:08:56 +0000";
layers = (
{
layerId = m01;
shapes = (
{
closed = 1;
nodes = (
(28,724,l),
(470,724,l),
(447,591,ls),
(422,452,o),
(334,390,o),
(214,390,cs),
(104,390,l),
(72,205,ls),
(49,78,o),
(93,-9,o),
(213,-9,cs),
(323,-9,o),
(406,68,o),
(427,188,cs),
(429,199,l),
(412,199,l),
(410,188,ls),
(390,79,o),
(316,7,o),
(216,7,cs),
(106,7,o),
(68,89,o),
(89,204,cs),
(118,374,l),
(211,374,ls),
(341,374,o),
(437,440,o),
(464,591,cs),
(487,724,l),
(637,724,l),
(640,740,l),
(31,740,l)
);
}
);
width = 539;
}
);
note = dvRA;
unicode = 2352;
},
{
glyphname = dvLA;
lastChange = "2022-10-20 16:08:56 +0000";
layers = (
{
layerId = m01;
shapes = (
{
closed = 1;
nodes = (
(681,104,o),
(772,208,o),
(796,341,cs),
(817,461,o),
(775,556,o),
(660,560,c),
(689,724,l),
(983,724,l),
(986,740,l),
(21,740,l),
(18,724,l),
(672,724,l),
(643,560,l),
(527,555,o),
(467,463,o),
(443,387,c),
(441,387,l),
(444,464,o),
(414,560,o),
(300,560,cs),
(175,560,o),
(93,467,o),
(71,341,cs),
(47,208,o),
(102,104,o),
(249,104,cs),
(260,104,o),
(271,105,o),
(282,106,c),
(285,123,l),
(274,122,o),
(264,121,o),
(254,121,cs),
(116,121,o),
(66,217,o),
(88,341,cs),
(108,456,o),
(182,544,o),
(298,544,cs),
(405,544,o),
(444,448,o),
(418,303,cs),
(417,295,l),
(434,295,l),
(435,303,ls),
(461,451,o),
(537,544,o),
(650,544,cs),
(761,544,o),
(798,452,o),
(779,341,cs),
(757,217,o),
(673,121,o),
(535,121,cs),
(525,121,o),
(515,122,o),
(504,123,c),
(501,106,l),
(512,105,o),
(523,104,o),
(534,104,cs)
);
}
);
width = 895;
}
);
note = dvLA;
unicode = 2354;
},
{
glyphname = dvVA;
lastChange = "2022-10-20 16:08:56 +0000";
layers = (
{
layerId = m01;
shapes = (
{
closed = 1;
nodes = (
(157,141,o),
(76,220,o),
(100,359,cs),
(124,493,o),
(237,572,o),
(354,572,cs),
(511,572,o),
(552,455,o),
(534,355,cs),
(534,354,ls),
(518,262,o),
(435,141,o),
(278,141,cs)
);
},
{
closed = 1;
nodes = (
(778,724,l),
(781,740,l),
(30,740,l),
(27,724,l),
(599,724,l),
(550,441,l),
(537,519,o),
(480,588,o),
(356,588,cs),
(229,588,o),
(108,501,o),
(83,359,cs),
(57,211,o),
(144,125,o),
(275,125,cs),
(397,125,o),
(480,194,o),
(520,271,c),
(472,0,l),
(489,0,l),
(616,724,l)
);
}
);
width = 681;
}
);
note = dvVA;
unicode = 2357;
},
{
glyphname = dvSHA;
lastChange = "2022-10-20 16:08:56 +0000";
layers = (
{
layerId = m01;
shapes = (
{
closed = 1;
nodes = (
(342,-9,o),
(425,68,o),
(446,188,cs),
(448,199,l),
(431,199,l),
(429,188,ls),
(410,79,o),
(335,7,o),
(235,7,cs),
(118,7,o),
(77,89,o),
(98,204,cs),
(123,349,l),
(259,349,ls),
(390,349,o),
(499,420,o),
(522,550,cs),
(544,676,o),
(481,749,o),
(367,749,cs),
(253,749,o),
(165,672,o),
(144,553,cs),
(141,535,o),
(140,518,o),
(140,500,c),
(157,500,l),
(157,518,o),
(158,535,o),
(161,553,cs),
(181,664,o),
(262,733,o),
(364,733,cs),
(468,733,o),
(525,665,o),
(505,550,cs),
(484,431,o),
(384,365,o),
(262,365,cs),
(109,365,l),
(81,205,ls),
(59,78,o),
(105,-9,o),
(232,-9,cs)
);
},
{
closed = 1;
nodes = (
(568,0,l),
(585,0,l),
(712,724,l),
(874,724,l),
(877,740,l),
(698,740,l)
);
}
);
width = 777;
}
);
note = dvSHA;
unicode = 2358;
},
{
glyphname = dvSSA;
lastChange = "2022-10-20 16:08:56 +0000";
layers = (
{
layerId = m01;
shapes = (
{
closed = 1;
nodes = (
(154,247,o),
(110,330,o),
(134,469,cs),
(176,703,l),
(482,371,l),
(447,299,o),
(377,247,o),
(285,247,cs)
);
},
{
closed = 1;
nodes = (
(502,435,ls),
(500,419,o),
(495,403,o),
(489,388,c),
(179,724,l),
(553,724,l)
);
},
{
closed = 1;
nodes = (
(27,724,l),
(162,724,l),
(117,469,ls),
(91,320,o),
(143,231,o),
(281,231,cs),
(374,231,o),
(448,279,o),
(488,352,c),
(426,0,l),
(443,0,l),
(570,724,l),
(732,724,l),
(735,740,l),
(30,740,l)
);
}
);
width = 635;
}
);
note = dvSSA;
unicode = 2359;
},
{
glyphname = dvSA;
lastChange = "2022-10-20 16:08:56 +0000";
layers = (
{
layerId = m01;
shapes = (
{
closed = 1;
nodes = (
(486,724,l),
(730,724,l),
(675,409,l),
(298,409,l),
(376,430,o),
(446,497,o),
(466,611,cs)
);
},
{
closed = 1;
nodes = (
(28,724,l),
(470,724,l),
(450,611,ls),
(428,487,o),
(338,410,o),
(218,410,cs),
(108,410,l),
(72,205,ls),
(49,78,o),
(93,-9,o),
(213,-9,cs),
(323,-9,o),
(406,68,o),
(427,188,cs),
(429,199,l),
(412,199,l),
(410,188,ls),
(390,79,o),
(316,7,o),
(216,7,cs),
(106,7,o),
(68,89,o),
(89,204,cs),
(122,394,l),
(672,394,l),
(603,0,l),
(620,0,l),
(747,724,l),
(909,724,l),
(912,740,l),
(31,740,l)
);
}
);
width = 811;
}
);
note = dvSA;
unicode = 2360;
},
{
glyphname = dvHA;
lastChange = "2022-10-20 16:08:56 +0000";
layers = (
{
layerId = m01;
shapes = (
{
closed = 1;
nodes = (
(451,48,l),
(424,-10,o),
(350,-80,o),
(237,-80,cs),
(101,-80,o),
(51,11,o),
(70,115,cs),
(88,218,o),
(170,312,o),
(306,312,cs),
(423,312,o),
(471,240,o),
(475,183,c),
(492,183,l),
(487,248,o),
(439,328,o),
(309,328,cs),
(286,328,o),
(265,325,o),
(244,321,c),
(184,335,o),
(139,373,o),
(151,440,cs),
(165,522,o),
(240,549,o),
(317,549,cs),
(509,549,l),
(540,724,l),
(693,724,l),
(696,740,l),
(39,740,l),
(36,724,l),
(523,724,l),
(495,565,l),
(320,565,ls),
(231,565,o),
(150,531,o),
(134,440,cs),
(120,363,o),
(175,325,o),
(217,313,c),
(127,281,o),
(68,204,o),
(53,115,cs),
(33,5,o),
(85,-97,o),
(234,-97,cs),
(361,-97,o),
(438,-16,o),
(468,48,c)
);
}
);
width = 587;
}
);
note = dvHA;
unicode = 2361;
},
{
glyphname = dvLLA;
lastChange = "2022-10-20 16:08:56 +0000";
layers = (
{
layerId = m01;
shapes = (
{
closed = 1;
nodes = (
(138,149,o),
(66,231,o),
(87,351,cs),
(109,478,o),
(210,560,o),
(326,560,cs),
(448,560,o),
(512,474,o),
(490,351,cs),
(469,234,o),
(374,149,o),
(254,149,cs)
);
},
{
closed = 1;
nodes = (
(554,149,o),
(489,234,o),
(510,351,cs),
(532,474,o),
(626,560,o),
(748,560,cs),
(864,560,o),
(935,478,o),
(913,351,cs),
(892,231,o),
(790,149,o),
(674,149,cs)
);
},
{
closed = 1;
nodes = (
(799,133,o),
(908,225,o),
(930,351,cs),
(953,482,o),
(881,570,o),
(764,576,c),
(790,724,l),
(1116,724,l),
(1119,740,l),
(19,740,l),
(16,724,l),
(773,724,l),
(747,576,l),
(624,576,o),
(545,494,o),
(513,417,c),
(511,417,l),
(505,494,o),
(456,576,o),
(329,576,cs),
(204,576,o),
(94,487,o),
(70,351,cs),
(48,225,o),
(123,133,o),
(251,133,cs),
(368,133,o),
(458,210,o),
(489,294,c),
(491,294,l),
(492,210,o),
(554,133,o),
(671,133,cs)
);
}
);
width = 1030;
}
);
note = dvLLA;
unicode = 2355;
},
{
glyphname = dvK_SSA;
lastChange = "2022-10-20 16:08:56 +0000";
layers = (
{
layerId = m01;
shapes = (
{
closed = 1;
nodes = (
(184,687,o),
(267,732,o),
(346,732,cs),
(427,732,o),
(491,680,o),
(475,589,cs),
(461,508,o),
(402,462,o),
(334,424,c),
(226,427,o),
(148,484,o),
(167,588,cs)
);
},
{
closed = 1;
nodes = (
(328,-47,l),
(345,-47,l),
(388,197,l),
(371,197,l),
(356,112,o),
(288,45,o),
(194,45,cs),
(101,45,o),
(59,108,o),
(73,187,cs),
(95,311,o),
(224,350,o),
(334,408,c),
(613,408,l),
(541,0,l),
(558,0,l),
(686,724,l),
(848,724,l),
(851,740,l),
(672,740,l),
(616,424,l),
(363,424,l),
(425,462,o),
(478,509,o),
(492,589,cs),
(510,690,o),
(440,750,o),
(349,750,cs),
(259,750,o),
(169,697,o),
(150,588,cs),
(131,481,o),
(207,418,o),
(305,409,c),
(199,355,o),
(78,312,o),
(56,187,cs),
(40,98,o),
(90,29,o),
(191,29,cs),
(291,29,o),
(347,95,o),
(358,124,c)
);
}
);
width = 747;
}
);
note = dvK_SSA;
},
{
glyphname = dvJ_NYA;
lastChange = "2022-10-20 16:08:56 +0000";
layers = (
{
layerId = m01;
shapes = (
{
closed = 1;
nodes = (
(563,0,l),
(580,0,l),
(707,724,l),
(869,724,l),
(872,740,l),
(30,740,l),
(27,724,l),
(690,724,l),
(659,545,l),
(274,545,l),
(271,529,l),
(273,529,ls),
(404,529,o),
(487,458,o),
(465,334,cs),
(447,232,o),
(366,156,o),
(258,156,cs),
(166,156,o),
(83,211,o),
(91,326,c),
(75,326,l),
(29,64,l),
(46,64,l),
(81,265,l),
(89,207,o),
(146,140,o),
(255,140,cs),
(371,140,o),
(462,220,o),
(482,334,cs),
(500,438,o),
(449,504,o),
(366,529,c),
(656,529,l)
);
}
);
width = 772;
}
);
note = dvJ_NYA;
},
{
glyphname = dvKxA;
lastChange = "2022-10-20 16:08:56 +0000";
layers = (
{
layerId = m01;
shapes = (
{
closed = 1;
nodes = (
(444,0,l),
(460,0,l),
(522,351,ls),
(539,449,o),
(615,568,o),
(759,568,cs),
(865,568,o),
(942,490,o),
(919,359,cs),
(895,221,o),
(796,143,o),
(687,143,cs),
(668,143,o),
(647,145,o),
(631,149,c),
(628,133,l),
(641,130,o),
(663,127,o),
(684,127,cs),
(803,127,o),
(910,212,o),
(936,359,cs),
(961,499,o),
(878,584,o),
(762,584,cs),
(649,584,o),
(575,517,o),
(537,440,c),
(587,724,l),
(1120,724,l),
(1123,740,l),
(32,740,l),
(29,724,l),
(571,724,l),
(522,443,l),
(510,518,o),
(458,584,o),
(344,584,cs),
(224,584,o),
(110,499,o),
(85,359,cs),
(59,212,o),
(140,127,o),
(263,127,cs),
(375,127,o),
(453,193,o),
(491,268,c)
);
},
{
closed = 1;
nodes = (
(153,143,o),
(78,221,o),
(102,359,cs),
(125,490,o),
(231,568,o),
(341,568,cs),
(487,568,o),
(523,453,o),
(506,355,cs),
(506,354,ls),
(490,263,o),
(412,143,o),
(266,143,cs)
);
},
{
closed = 1;
nodes = (
(245,-21,o),
(257,-11,o),
(259,3,cs),
(262,17,o),
(253,27,o),
(239,27,cs),
(224,27,o),
(213,17,o),
(210,3,cs),
(208,-11,o),
(216,-21,o),
(231,-21,cs)
);
}
);
width = 1021;
}
);
note = dvKxA;
unicode = 2392;
},
{
glyphname = dvKHxA;
lastChange = "2022-10-20 16:08:56 +0000";
layers = (
{
layerId = m01;
shapes = (
{
closed = 1;
nodes = (
(462,175,o),
(391,244,o),
(412,366,cs),
(433,481,o),
(531,549,o),
(630,549,cs),
(759,549,o),
(792,448,o),
(777,362,cs),
(776,361,ls),
(762,280,o),
(693,175,o),
(564,175,cs)
);
},
{
closed = 1;
nodes = (
(730,0,l),
(857,724,l),
(1019,724,l),
(1022,740,l),
(43,740,l),
(40,724,l),
(368,724,l),
(340,563,ls),
(315,419,o),
(230,394,o),
(161,394,cs),
(117,394,l),
(86,214,ls),
(62,82,o),
(136,0,o),
(268,0,cs),
(384,0,o),
(469,77,o),
(515,164,c),
(529,161,o),
(545,159,o),
(561,159,cs),
(660,159,o),
(729,218,o),
(763,285,c),
(713,0,l)
);
},
{
closed = 1;
nodes = (
(244,-148,o),
(255,-138,o),
(258,-124,cs),
(260,-110,o),
(252,-100,o),
(238,-100,cs),
(223,-100,o),
(211,-110,o),
(209,-124,cs),
(206,-138,o),
(215,-148,o),
(230,-148,cs)
);
},
{
closed = 1;
nodes = (
(147,16,o),
(81,94,o),
(103,214,cs),
(131,378,l),
(138,378,o),
(145,378,o),
(152,378,cs),
(240,378,o),
(330,410,o),
(357,563,cs),
(385,724,l),
(840,724,l),
(791,441,l),
(780,507,o),
(733,565,o),
(632,565,cs),
(521,565,o),
(417,490,o),
(395,366,cs),
(377,260,o),
(421,191,o),
(498,168,c),
(457,87,o),
(377,16,o),
(272,16,cs)
);
}
);
width = 909;
}
);
note = dvKHxA;
unicode = 2393;
},
{
glyphname = dvGxA;
lastChange = "2022-10-20 16:08:56 +0000";
layers = (
{
layerId = m01;
shapes = (
{
closed = 1;
nodes = (
(474,0,l),
(491,0,l),
(618,724,l),
(780,724,l),
(783,740,l),
(30,740,l),
(27,724,l),
(359,724,l),
(305,414,ls),
(294,353,o),
(259,289,o),
(172,289,cs),
(89,289,o),
(73,354,o),
(83,411,cs),
(89,442,l),
(72,442,l),
(66,412,ls),
(54,343,o),
(78,273,o),
(169,273,cs),
(263,273,o),
(309,340,o),
(322,414,cs),
(376,724,l),
(601,724,l)
);
},
{
closed = 1;
nodes = (
(164,118,o),
(175,128,o),
(178,142,cs),
(180,156,o),
(172,166,o),
(158,166,cs),
(143,166,o),
(131,156,o),
(129,142,cs),
(126,128,o),
(135,118,o),
(150,118,cs)
);
}
);
width = 683;
}
);
note = dvGxA;
unicode = 2394;
},
{
glyphname = dvJxA;
lastChange = "2022-10-20 16:08:56 +0000";
layers = (
{
layerId = m01;
shapes = (
{
closed = 1;
nodes = (
(27,724,l),
(741,724,l),
(704,509,l),
(430,509,l),
(400,339,ls),
(383,243,o),
(314,175,o),
(222,175,cs),
(134,175,o),
(91,243,o),
(108,339,cs),
(138,509,l),
(121,509,l),
(91,340,ls),
(72,234,o),
(119,159,o),
(218,159,cs),
(322,159,o),
(398,234,o),
(417,340,cs),
(444,493,l),
(701,493,l),
(614,0,l),
(631,0,l),
(758,724,l),
(920,724,l),
(923,740,l),
(30,740,l)
);
},
{
closed = 1;
nodes = (
(213,11,o),
(224,21,o),
(227,35,cs),
(229,49,o),
(221,59,o),
(207,59,cs),
(192,59,o),
(180,49,o),
(178,35,cs),
(175,21,o),
(184,11,o),
(199,11,cs)
);
}
);
width = 823;
}
);
note = dvJxA;
unicode = 2395;
},
{
glyphname = dvDDxA;
lastChange = "2022-10-20 16:08:56 +0000";
layers = (
{
layerId = m01;
shapes = (
{
closed = 1;
nodes = (
(41,724,l),
(512,724,l),
(484,562,l),
(332,562,ls),
(249,562,o),
(148,535,o),
(129,429,cs),
(113,338,o),
(179,298,o),
(271,298,cs),
(316,298,ls),
(405,298,o),
(499,268,o),
(478,150,cs),
(464,72,o),
(396,7,o),
(272,7,cs),
(122,7,o),
(69,88,o),
(86,184,c),
(69,184,l),
(50,75,o),
(114,-9,o),
(269,-9,cs),
(402,-9,o),
(480,62,o),
(495,150,cs),
(517,276,o),
(420,314,o),
(320,314,cs),
(275,314,ls),
(198,314,o),
(131,343,o),
(146,429,cs),
(164,528,o),
(261,546,o),
(337,546,cs),
(498,546,l),
(529,724,l),
(693,724,l),
(696,740,l),
(44,740,l)
);
},
{
closed = 1;
nodes = (
(250,-157,o),
(262,-147,o),
(264,-133,cs),
(267,-119,o),
(258,-109,o),
(244,-109,cs),
(229,-109,o),
(218,-119,o),
(215,-133,cs),
(213,-147,o),
(221,-157,o),
(236,-157,cs)
);
}
);
width = 582;
}
);
note = dvDDxA;
unicode = 2396;
},
{
glyphname = dvDDHxA;
lastChange = "2022-10-20 16:08:56 +0000";
layers = (
{
layerId = m01;
shapes = (
{
closed = 1;
nodes = (
(38,724,l),
(515,724,l),
(489,573,l),
(430,573,ls),
(263,573,o),
(117,487,o),
(83,294,cs),
(54,133,o),
(156,23,o),
(317,23,cs),
(447,23,o),
(550,102,o),
(569,211,cs),
(585,304,o),
(534,371,o),
(440,371,cs),
(362,371,o),
(287,319,o),
(272,233,cs),
(271,226,o),
(270,216,o),
(270,210,c),
(287,210,l),
(287,216,o),
(287,225,o),
(289,232,cs),
(302,308,o),
(370,355,o),
(437,355,cs),
(519,355,o),
(567,294,o),
(552,211,cs),
(535,112,o),
(438,39,o),
(320,39,cs),
(169,39,o),
(73,143,o),
(100,295,cs),
(131,474,o),
(268,557,o),
(427,557,cs),
(503,557,l),
(532,724,l),
(736,724,l),
(739,740,l),
(41,740,l)
);
},
{
closed = 1;
nodes = (
(277,-125,o),
(289,-115,o),
(291,-101,cs),
(293,-87,o),
(285,-77,o),
(271,-77,cs),
(256,-77,o),
(244,-87,o),
(242,-101,cs),
(240,-115,o),
(248,-125,o),
(263,-125,cs)
);
}
);
width = 628;
}
);
note = dvDDHxA;
unicode = 2397;
},
{
glyphname = dvPHxA;
lastChange = "2022-10-20 16:08:56 +0000";
layers = (
{
layerId = m01;
shapes = (
{
closed = 1;
nodes = (
(151,247,o),
(110,330,o),
(134,469,cs),
(179,724,l),
(533,724,l),
(482,435,ls),
(464,333,o),
(387,247,o),
(275,247,cs)
);
},
{
closed = 1;
nodes = (
(27,724,l),
(162,724,l),
(117,469,ls),
(91,320,o),
(140,231,o),
(271,231,cs),
(360,231,o),
(430,279,o),
(468,352,c),
(406,0,l),
(423,0,l),
(485,351,ls),
(502,449,o),
(578,568,o),
(722,568,cs),
(828,568,o),
(905,490,o),
(882,359,cs),
(858,221,o),
(759,143,o),
(650,143,cs),
(631,143,o),
(610,145,o),
(594,149,c),
(591,133,l),
(604,130,o),
(626,127,o),
(647,127,cs),
(766,127,o),
(873,212,o),
(899,359,cs),
(924,499,o),
(841,584,o),
(725,584,cs),
(611,584,o),
(537,515,o),
(500,438,c),
(550,724,l),
(1083,724,l),
(1086,740,l),
(30,740,l)
);
},
{
closed = 1;
nodes = (
(252,83,o),
(264,93,o),
(267,107,cs),
(269,121,o),
(261,131,o),
(247,131,cs),
(232,131,o),
(220,121,o),
(218,107,cs),
(215,93,o),
(223,83,o),
(238,83,cs)
);
}
);
width = 986;
}
);
note = dvPHxA;
unicode = 2398;
},
{
glyphname = dvRxA;
lastChange = "2022-10-20 16:08:56 +0000";
layers = (
{
layerId = m01;
shapes = (
{
closed = 1;
nodes = (
(37,724,l),
(479,724,l),
(456,591,ls),
(431,452,o),
(343,390,o),
(223,390,cs),
(113,390,l),
(81,205,ls),
(58,78,o),
(102,-9,o),
(222,-9,cs),
(332,-9,o),
(415,68,o),
(436,188,cs),
(438,199,l),
(421,199,l),
(419,188,ls),
(400,79,o),
(325,7,o),
(225,7,cs),
(115,7,o),
(77,89,o),
(98,204,cs),
(128,374,l),
(221,374,ls),
(351,374,o),
(446,440,o),
(473,591,cs),
(496,724,l),
(646,724,l),
(649,740,l),
(40,740,l)
);
},
{
closed = 1;
nodes = (
(61,-112,o),
(73,-102,o),
(75,-88,cs),
(78,-74,o),
(69,-64,o),
(55,-64,cs),
(40,-64,o),
(29,-74,o),
(26,-88,cs),
(24,-102,o),
(32,-112,o),
(47,-112,cs)
);
}
);
width = 539;
}
);
note = dvRxA;
unicode = 2353;
},
{
glyphname = dvK;
lastChange = "2022-10-20 16:08:56 +0000";
layers = (
{
layerId = m01;
shapes = (
{
closed = 1;
nodes = (
(442,0,l),
(458,0,l),
(520,351,ls),
(537,449,o),
(613,568,o),
(757,568,cs),
(863,568,o),
(940,490,o),
(917,359,c),
(934,359,l),
(959,499,o),
(876,584,o),
(760,584,cs),
(647,584,o),
(573,517,o),
(535,440,c),
(585,724,l),
(998,724,l),
(1001,740,l),
(30,740,l),
(27,724,l),
(569,724,l),
(520,443,l),
(508,518,o),
(456,584,o),
(342,584,cs),
(222,584,o),
(108,499,o),
(83,359,cs),
(57,212,o),
(138,127,o),
(261,127,cs),
(373,127,o),
(451,193,o),
(489,268,c)
);
},
{
closed = 1;
nodes = (
(151,143,o),
(76,221,o),
(100,359,cs),
(123,490,o),
(229,568,o),
(339,568,cs),
(485,568,o),
(522,453,o),
(504,355,cs),
(504,354,ls),
(488,263,o),
(410,143,o),
(264,143,cs)
);
}
);
width = 771;
}
);
note = dvK;
},
{
glyphname = dvKH;
lastChange = "2022-10-20 16:08:56 +0000";
layers = (
{
layerId = m01;
shapes = (
{
closed = 1;
nodes = (
(27,724,l),
(355,724,l),
(327,563,ls),
(302,419,o),
(217,394,o),
(148,394,cs),
(104,394,l),
(72,214,ls),
(49,82,o),
(123,0,o),
(255,0,cs),
(371,0,o),
(458,78,o),
(502,165,c),
(517,162,o),
(534,160,o),
(551,160,cs),
(673,160,o),
(771,237,o),
(793,362,cs),
(815,487,o),
(746,565,o),
(622,565,cs),
(499,565,o),
(404,487,o),
(382,362,cs),
(364,264,o),
(405,192,o),
(487,169,c),
(448,90,o),
(366,16,o),
(259,16,cs),
(134,16,o),
(68,94,o),
(89,214,cs),
(118,378,l),
(125,378,o),
(132,378,o),
(139,378,cs),
(227,378,o),
(317,410,o),
(344,563,cs),
(372,724,l),
(856,724,l),
(859,740,l),
(30,740,l)
);
},
{
closed = 1;
nodes = (
(419,476,o),
(507,549,o),
(620,549,cs),
(734,549,o),
(796,476,o),
(776,362,cs),
(756,250,o),
(668,176,o),
(554,176,cs),
(441,176,o),
(379,250,o),
(399,362,cs)
);
}
);
width = 679;
}
);
note = dvKH;
},
{
glyphname = dvG;
lastChange = "2022-10-20 16:08:56 +0000";
layers = (
{
layerId = m01;
shapes = (
{
closed = 1;
nodes = (
(3,724,l),
(335,724,l),
(281,414,ls),
(270,353,o),
(235,289,o),
(148,289,cs),
(65,289,o),
(49,354,o),
(59,411,cs),
(65,442,l),
(48,442,l),
(42,412,ls),
(30,343,o),
(54,273,o),
(145,273,cs),
(239,273,o),
(285,340,o),
(298,414,cs),
(352,724,l),
(493,724,l),
(496,740,l),
(6,740,l)
);
}
);
width = 420;
}
);
note = dvG;
},
{
glyphname = dvGH;
lastChange = "2022-10-20 16:08:56 +0000";
layers = (
{
layerId = m01;
shapes = (
{
closed = 1;
nodes = (
(17,724,l),
(171,724,l),
(153,622,ls),
(134,513,o),
(188,468,o),
(260,460,c),
(259,458,l),
(175,451,o),
(92,395,o),
(75,299,cs),
(54,178,o),
(137,116,o),
(274,116,cs),
(427,116,o),
(555,220,o),
(581,364,c),
(566,364,l),
(542,227,o),
(414,132,o),
(277,132,cs),
(156,132,o),
(72,185,o),
(92,299,cs),
(107,382,o),
(176,451,o),
(318,451,cs),
(372,451,l),
(375,467,l),
(321,467,ls),
(195,467,o),
(152,521,o),
(170,622,cs),
(188,724,l),
(644,724,l),
(647,740,l),
(20,740,l)
);
}
);
width = 456;
}
);
note = dvGH;
},
{
glyphname = dvNG;
lastChange = "2022-10-20 16:08:56 +0000";
layers = (
{
layerId = m01;
shapes = (
{
closed = 1;
nodes = (
(612,391,o),
(624,401,o),
(626,415,cs),
(629,429,o),
(620,439,o),
(606,439,cs),
(591,439,o),
(580,429,o),
(577,415,cs),
(575,401,o),
(583,391,o),
(598,391,cs)
);
},
{
closed = 1;
nodes = (
(333,-287,l),
(352,-287,l),
(268,-109,l),
(250,-109,l)
);
},
{
closed = 1;
nodes = (
(53,724,l),
(532,724,l),
(503,562,l),
(343,562,ls),
(260,562,o),
(159,535,o),
(141,429,cs),
(125,338,o),
(191,298,o),
(283,298,cs),
(328,298,ls),
(417,298,o),
(510,268,o),
(490,150,cs),
(476,72,o),
(407,7,o),
(283,7,cs),
(133,7,o),
(81,88,o),
(98,184,c),
(81,184,l),
(61,75,o),
(125,-9,o),
(280,-9,cs),
(413,-9,o),
(491,62,o),
(507,150,cs),
(529,276,o),
(431,314,o),
(331,314,cs),
(286,314,ls),
(209,314,o),
(143,343,o),
(158,429,cs),
(175,528,o),
(272,546,o),
(348,546,cs),
(517,546,l),
(549,724,l),
(745,724,l),
(748,740,l),
(56,740,l)
);
}
);
width = 622;
}
);
note = dvNG;
},
{
glyphname = dvC;
lastChange = "2022-10-20 16:08:56 +0000";
layers = (
{
layerId = m01;
shapes = (
{
closed = 1;
nodes = (
(66,525,l),
(307,525,l),
(212,496,o),
(146,421,o),
(129,324,cs),
(105,190,o),
(193,115,o),
(311,115,cs),
(441,115,o),
(555,219,o),
(571,333,c),
(557,333,l),
(539,227,o),
(433,131,o),
(313,131,cs),
(206,131,o),
(124,200,o),
(146,324,cs),
(165,436,o),
(261,525,o),
(394,525,cs),
(423,525,l),
(426,541,l),
(69,541,l)
);
},
{
closed = 1;
nodes = (
(17,724,l),
(640,724,l),
(643,740,l),
(20,740,l)
);
}
);
width = 467;
}
);
note = dvC;
},
{
glyphname = dvCH;
lastChange = "2022-10-20 16:08:56 +0000";
layers = (
{
layerId = m01;
shapes = (
{
closed = 1;
nodes = (
(25,724,l),
(174,724,l),
(150,589,ls),
(130,480,o),
(185,435,o),
(256,427,c),
(256,425,l),
(166,417,o),
(79,359,o),
(60,251,cs),
(35,110,o),
(148,33,o),
(332,33,cs),
(540,33,o),
(720,152,o),
(756,356,cs),
(781,499,o),
(707,561,o),
(622,561,cs),
(548,561,o),
(455,520,o),
(433,397,cs),
(427,365,o),
(427,329,o),
(434,290,c),
(451,290,l),
(445,329,o),
(444,365,o),
(450,397,cs),
(470,510,o),
(557,545,o),
(619,545,cs),
(692,545,o),
(762,488,o),
(738,355,cs),
(705,167,o),
(529,49,o),
(334,49,cs),
(167,49,o),
(53,116,o),
(77,251,cs),
(93,342,o),
(167,418,o),
(315,418,cs),
(339,418,l),
(341,434,l),
(317,434,ls),
(191,434,o),
(149,488,o),
(167,589,cs),
(191,724,l),
(906,724,l),
(908,740,l),
(27,740,l)
);
}
);
width = 811;
}
);
note = dvCH;
},
{
glyphname = dvJ;
lastChange = "2022-10-20 16:08:56 +0000";
layers = (
{
layerId = m01;
shapes = (
{
closed = 1;
nodes = (
(308,159,o),
(384,234,o),
(403,340,cs),
(430,493,l),
(692,493,l),
(694,509,l),
(415,509,l),
(386,339,ls),
(369,243,o),
(300,175,o),
(208,175,cs),
(120,175,o),
(77,243,o),
(94,339,cs),
(123,509,l),
(106,509,l),
(77,340,ls),
(58,234,o),
(105,159,o),
(204,159,cs)
);
},
{
closed = 1;
nodes = (
(13,724,l),
(732,724,l),
(735,740,l),
(16,740,l)
);
}
);
width = 541;
}
);
note = dvJ;
},
{
glyphname = dvJH;
lastChange = "2022-10-20 16:08:56 +0000";
layers = (
{
layerId = m01;
shapes = (
{
closed = 1;
nodes = (
(95,117,l),
(100,88,o),
(137,0,o),
(282,0,cs),
(407,0,o),
(473,70,o),
(487,150,cs),
(503,239,o),
(458,284,o),
(397,300,c),
(670,299,l),
(672,314,l),
(267,314,ls),
(188,314,o),
(120,343,o),
(136,429,cs),
(153,528,o),
(252,546,o),
(329,546,cs),
(498,546,l),
(530,724,l),
(745,724,l),
(748,740,l),
(37,740,l),
(34,724,l),
(513,724,l),
(484,562,l),
(324,562,ls),
(240,562,o),
(137,535,o),
(119,429,cs),
(103,338,o),
(172,298,o),
(264,298,cs),
(309,298,ls),
(430,298,o),
(487,242,o),
(470,150,cs),
(458,80,o),
(400,16,o),
(286,16,cs),
(154,16,o),
(102,92,o),
(103,173,c),
(88,173,l),
(44,-71,l),
(61,-71,l)
);
}
);
width = 577;
}
);
note = dvJH;
},
{
glyphname = dvNY;
lastChange = "2022-10-20 16:08:56 +0000";
layers = (
{
layerId = m01;
shapes = (
{
closed = 1;
nodes = (
(388,121,o),
(475,233,o),
(498,347,c),
(635,347,l),
(638,363,l),
(501,363,l),
(516,473,o),
(469,583,o),
(321,583,cs),
(184,583,o),
(113,497,o),
(85,428,c),
(102,428,l),
(126,489,o),
(194,567,o),
(318,567,cs),
(454,567,o),
(502,465,o),
(483,354,cs),
(462,239,o),
(378,138,o),
(242,138,cs),
(122,138,o),
(81,213,o),
(75,276,c),
(58,276,l),
(64,208,o),
(105,121,o),
(239,121,cs)
);
},
{
closed = 1;
nodes = (
(17,724,l),
(702,724,l),
(705,740,l),
(20,740,l)
);
}
);
width = 552;
}
);
note = dvNY;
},
{
glyphname = dvTT;
lastChange = "2022-10-20 16:08:56 +0000";
layers = (
{
layerId = m01;
shapes = (
{
closed = 1;
nodes = (
(364,-215,l),
(383,-215,l),
(298,-37,l),
(280,-37,l)
);
},
{
closed = 1;
nodes = (
(46,724,l),
(505,724,l),
(479,573,l),
(428,573,ls),
(267,573,o),
(125,492,o),
(94,311,cs),
(68,166,o),
(159,63,o),
(305,63,cs),
(456,63,o),
(578,169,o),
(604,320,c),
(587,320,l),
(562,179,o),
(447,79,o),
(308,79,cs),
(172,79,o),
(87,176,o),
(111,312,cs),
(140,479,o),
(272,557,o),
(425,557,cs),
(493,557,l),
(522,724,l),
(770,724,l),
(773,740,l),
(49,740,l)
);
}
);
width = 654;
}
);
note = dvTT;
},
{
glyphname = dvTTH;
lastChange = "2022-10-20 16:08:56 +0000";
layers = (
{
layerId = m01;
shapes = (
{
closed = 1;
nodes = (
(172,79,o),
(87,176,o),
(111,311,cs),
(135,447,o),
(253,543,o),
(389,543,cs),
(525,543,o),
(611,447,o),
(587,311,cs),
(563,176,o),
(444,79,o),
(308,79,cs)
);
},
{
closed = 1;
nodes = (
(451,63,o),
(578,166,o),
(604,311,cs),
(629,453,o),
(542,555,o),
(400,559,c),
(429,724,l),
(796,724,l),
(799,740,l),
(49,740,l),
(46,724,l),
(412,724,l),
(383,559,l),
(242,555,o),
(119,453,o),
(94,311,cs),
(68,166,o),
(159,63,o),
(305,63,cs)
);
},
{
closed = 1;
nodes = (
(362,-215,l),
(381,-215,l),
(296,-37,l),
(278,-37,l)
);
}
);
width = 680;
}
);
note = dvTTH;
},
{
glyphname = dvDD;
lastChange = "2022-10-20 16:08:56 +0000";
layers = (
{
layerId = m01;
shapes = (
{
closed = 1;
nodes = (
(339,-287,l),
(358,-287,l),
(274,-109,l),
(256,-109,l)
);
},
{
closed = 1;
nodes = (
(53,724,l),
(524,724,l),
(495,562,l),
(343,562,ls),
(260,562,o),
(159,535,o),
(141,429,cs),
(125,338,o),
(191,298,o),
(283,298,cs),
(328,298,ls),
(417,298,o),
(510,268,o),
(490,150,cs),
(476,72,o),
(407,7,o),
(283,7,cs),
(133,7,o),
(81,88,o),
(98,184,c),
(81,184,l),
(61,75,o),
(125,-9,o),
(280,-9,cs),
(413,-9,o),
(491,62,o),
(507,150,cs),
(529,276,o),
(431,314,o),
(331,314,cs),
(286,314,ls),
(209,314,o),
(143,343,o),
(158,429,cs),
(175,528,o),
(272,546,o),
(348,546,cs),
(509,546,l),
(541,724,l),
(705,724,l),
(708,740,l),
(56,740,l)
);
}
);
width = 582;
}
);
note = dvDD;
},
{
glyphname = dvDDH;
lastChange = "2022-10-20 16:08:56 +0000";
layers = (
{
layerId = m01;
shapes = (
{
closed = 1;
nodes = (
(372,-255,l),
(391,-255,l),
(307,-77,l),
(289,-77,l)
);
},
{
closed = 1;
nodes = (
(50,724,l),
(527,724,l),
(500,573,l),
(441,573,ls),
(274,573,o),
(128,487,o),
(94,294,cs),
(66,133,o),
(167,23,o),
(328,23,cs),
(458,23,o),
(561,102,o),
(580,211,cs),
(597,304,o),
(546,371,o),
(452,371,cs),
(374,371,o),
(298,319,o),
(283,233,cs),
(282,226,o),
(281,216,o),
(281,210,c),
(298,210,l),
(298,216,o),
(299,225,o),
(300,232,cs),
(314,308,o),
(382,355,o),
(449,355,cs),
(531,355,o),
(578,294,o),
(563,211,cs),
(546,112,o),
(449,39,o),
(331,39,cs),
(180,39,o),
(84,143,o),
(111,295,cs),
(143,474,o),
(279,557,o),
(438,557,cs),
(514,557,l),
(544,724,l),
(748,724,l),
(751,740,l),
(53,740,l)
);
}
);
width = 628;
}
);
note = dvDDH;
},
{
glyphname = dvNN;
lastChange = "2022-10-20 16:08:56 +0000";
layers = (
{
layerId = m01;
shapes = (
{
closed = 1;
nodes = (
(8,724,l),
(143,724,l),
(86,399,ls),
(67,293,o),
(115,218,o),
(216,218,cs),
(320,218,o),
(393,293,o),
(412,399,cs),
(469,724,l),
(624,724,l),
(627,740,l),
(11,740,l)
);
},
{
closed = 1;
nodes = (
(130,234,o),
(86,302,o),
(103,398,cs),
(160,724,l),
(452,724,l),
(395,398,ls),
(378,302,o),
(312,234,o),
(220,234,cs)
);
}
);
width = 546;
}
);
note = dvNN;
},
{
glyphname = dvT;
lastChange = "2022-10-20 16:08:56 +0000";
layers = (
{
layerId = m01;
shapes = (
{
closed = 1;
nodes = (
(557,487,l),
(560,503,l),
(394,503,ls),
(221,503,o),
(95,426,o),
(64,253,cs),
(36,94,o),
(116,2,o),
(280,2,cs),
(304,2,l),
(307,18,l),
(283,18,ls),
(128,18,o),
(55,103,o),
(81,253,cs),
(110,414,o),
(228,487,o),
(391,487,cs)
);
},
{
closed = 1;
nodes = (
(27,724,l),
(599,724,l),
(602,740,l),
(30,740,l)
);
}
);
width = 400;
}
);
note = dvT;
},
{
glyphname = dvTH;
lastChange = "2022-10-20 16:08:56 +0000";
layers = (
{
layerId = m01;
shapes = (
{
closed = 1;
nodes = (
(581,343,l),
(559,215,o),
(446,130,o),
(309,130,cs),
(145,130,o),
(75,231,o),
(111,395,c),
(204,395,ls),
(324,395,o),
(452,434,o),
(478,581,cs),
(495,674,o),
(445,749,o),
(341,749,cs),
(234,749,o),
(155,678,o),
(138,577,cs),
(135,560,o),
(133,540,o),
(133,525,c),
(150,525,l),
(150,542,o),
(151,559,o),
(154,575,cs),
(171,668,o),
(239,733,o),
(338,733,cs),
(433,733,o),
(476,665,o),
(461,581,cs),
(436,439,o),
(306,411,o),
(206,411,cs),
(98,411,l),
(95,399,o),
(92,387,o),
(90,376,cs),
(62,217,o),
(138,114,o),
(305,114,cs),
(459,114,o),
(575,211,o),
(598,343,c)
);
}
);
width = 469;
}
);
note = dvTH;
},
{
glyphname = dvD;
lastChange = "2022-10-20 16:08:56 +0000";
layers = (
{
layerId = m01;
shapes = (
{
closed = 1;
nodes = (
(524,-278,l),
(543,-278,l),
(459,-100,l),
(441,-100,l)
);
},
{
closed = 1;
nodes = (
(52,724,l),
(541,724,l),
(517,588,l),
(413,588,ls),
(272,588,o),
(135,515,o),
(107,355,cs),
(83,221,o),
(152,129,o),
(293,129,cs),
(383,129,o),
(466,177,o),
(501,240,c),
(458,0,l),
(475,0,l),
(532,321,l),
(517,321,l),
(494,193,o),
(378,145,o),
(298,145,cs),
(169,145,o),
(101,228,o),
(124,355,cs),
(150,502,o),
(277,572,o),
(410,572,cs),
(531,572,l),
(558,724,l),
(729,724,l),
(732,740,l),
(55,740,l)
);
}
);
width = 607;
}
);
note = dvD;
},
{
glyphname = dvDH;
lastChange = "2022-10-20 16:08:56 +0000";
layers = (
{
layerId = m01;
shapes = (
{
closed = 1;
nodes = (
(413,116,o),
(525,207,o),
(548,334,c),
(533,334,l),
(512,215,o),
(400,132,o),
(259,132,cs),
(156,132,o),
(75,180,o),
(94,284,cs),
(107,361,o),
(171,424,o),
(290,424,cs),
(344,424,l),
(346,440,l),
(292,440,ls),
(174,440,o),
(128,504,o),
(143,593,cs),
(157,671,o),
(219,733,o),
(307,733,cs),
(396,733,o),
(432,671,o),
(420,601,cs),
(419,596,o),
(417,587,o),
(414,573,c),
(431,573,l),
(434,585,o),
(436,595,o),
(437,600,cs),
(452,687,o),
(405,749,o),
(310,749,cs),
(214,749,o),
(142,681,o),
(126,594,cs),
(109,495,o),
(165,444,o),
(231,432,c),
(231,430,l),
(165,424,o),
(92,372,o),
(77,284,cs),
(57,173,o),
(138,116,o),
(256,116,cs)
);
}
);
width = 429;
}
);
note = dvDH;
},
{
glyphname = dvN;
lastChange = "2022-10-20 16:08:56 +0000";
layers = (
{
layerId = m01;
shapes = (
{
closed = 1;
nodes = (
(314,160,o),
(401,233,o),
(419,336,cs),
(433,418,o),
(394,477,o),
(337,496,c),
(651,496,l),
(654,511,l),
(272,511,ls),
(161,511,o),
(73,440,o),
(55,334,cs),
(37,233,o),
(96,160,o),
(208,160,cs)
);
},
{
closed = 1;
nodes = (
(111,176,o),
(55,241,o),
(72,334,cs),
(88,430,o),
(169,495,o),
(267,495,cs),
(362,495,o),
(418,429,o),
(402,336,cs),
(385,242,o),
(306,176,o),
(211,176,cs)
);
},
{
closed = 1;
nodes = (
(13,724,l),
(691,724,l),
(694,740,l),
(16,740,l)
);
}
);
width = 505;
}
);
note = dvN;
},
{
glyphname = dvP;
lastChange = "2022-10-20 16:08:56 +0000";
layers = (
{
layerId = m01;
shapes = (
{
closed = 1;
nodes = (
(7,724,l),
(142,724,l),
(97,469,ls),
(71,320,o),
(123,231,o),
(261,231,cs),
(387,231,o),
(477,317,o),
(498,435,c),
(482,435,l),
(464,333,o),
(383,247,o),
(265,247,cs),
(134,247,o),
(90,330,o),
(114,469,cs),
(159,724,l),
(549,724,l),
(552,740,l),
(10,740,l)
);
}
);
width = 378;
}
);
note = dvP;
},
{
glyphname = dvPH;
lastChange = "2022-10-20 16:08:56 +0000";
layers = (
{
layerId = m01;
shapes = (
{
closed = 1;
nodes = (
(151,247,o),
(110,330,o),
(134,469,cs),
(179,724,l),
(533,724,l),
(482,435,ls),
(464,333,o),
(387,247,o),
(275,247,cs)
);
},
{
closed = 1;
nodes = (
(27,724,l),
(162,724,l),
(117,469,ls),
(91,320,o),
(140,231,o),
(271,231,cs),
(360,231,o),
(430,279,o),
(468,352,c),
(406,0,l),
(423,0,l),
(485,351,ls),
(502,449,o),
(578,568,o),
(722,568,cs),
(848,568,o),
(905,490,o),
(882,359,c),
(899,359,l),
(924,499,o),
(861,584,o),
(725,584,cs),
(611,584,o),
(537,515,o),
(500,438,c),
(550,724,l),
(963,724,l),
(966,740,l),
(30,740,l)
);
}
);
width = 771;
}
);
note = dvPH;
},
{
glyphname = dvB;
lastChange = "2022-10-20 16:08:56 +0000";
layers = (
{
layerId = m01;
shapes = (
{
closed = 1;
nodes = (
(418,120,o),
(527,231,o),
(549,355,cs),
(567,461,o),
(519,593,o),
(353,593,cs),
(221,593,o),
(98,502,o),
(71,353,cs),
(46,207,o),
(141,120,o),
(272,120,cs)
);
},
{
closed = 1;
nodes = (
(503,577,o),
(551,458,o),
(533,355,cs),
(524,307,o),
(497,251,o),
(453,207,c),
(185,519,l),
(231,557,o),
(290,577,o),
(350,577,cs)
);
},
{
closed = 1;
nodes = (
(17,724,l),
(614,724,l),
(617,740,l),
(20,740,l)
);
},
{
closed = 1;
nodes = (
(155,136,o),
(64,215,o),
(88,353,cs),
(100,418,o),
(130,470,o),
(172,508,c),
(441,196,l),
(398,160,o),
(344,136,o),
(275,136,cs)
);
}
);
width = 439;
}
);
note = dvB;
},
{
glyphname = dvBH;
lastChange = "2022-10-20 16:08:56 +0000";
layers = (
{
layerId = m01;
shapes = (
{
closed = 1;
nodes = (
(119,152,o),
(70,207,o),
(85,290,cs),
(100,375,o),
(171,429,o),
(258,429,cs),
(380,429,l),
(361,324,ls),
(342,214,o),
(280,152,o),
(198,152,cs)
);
},
{
closed = 1;
nodes = (
(287,136,o),
(356,198,o),
(378,325,cs),
(397,429,l),
(590,429,l),
(592,445,l),
(399,445,l),
(419,557,ls),
(440,676,o),
(407,749,o),
(310,749,cs),
(228,749,o),
(159,690,o),
(141,592,cs),
(139,578,o),
(138,563,o),
(138,548,c),
(155,548,l),
(154,564,o),
(156,578,o),
(158,592,cs),
(174,681,o),
(235,732,o),
(307,732,cs),
(395,732,o),
(421,664,o),
(402,556,cs),
(382,445,l),
(260,445,ls),
(162,445,o),
(85,384,o),
(68,290,cs),
(52,199,o),
(102,136,o),
(195,136,cs)
);
}
);
width = 483;
}
);
note = dvBH;
},
{
glyphname = dvM;
lastChange = "2022-10-20 16:08:56 +0000";
layers = (
{
layerId = m01;
shapes = (
{
closed = 1;
nodes = (
(80,152,o),
(31,207,o),
(46,290,cs),
(61,375,o),
(131,429,o),
(218,429,cs),
(340,429,l),
(322,324,ls),
(303,214,o),
(241,152,o),
(159,152,cs)
);
},
{
closed = 1;
nodes = (
(15,724,l),
(392,724,l),
(343,445,l),
(221,445,ls),
(123,445,o),
(45,384,o),
(29,290,cs),
(13,199,o),
(63,136,o),
(156,136,cs),
(248,136,o),
(317,198,o),
(339,325,cs),
(357,429,l),
(587,429,l),
(590,445,l),
(360,445,l),
(409,724,l),
(639,724,l),
(642,740,l),
(18,740,l)
);
}
);
width = 480;
}
);
note = dvM;
},
{
glyphname = dvY;
lastChange = "2022-10-20 16:08:56 +0000";
layers = (
{
layerId = m01;
shapes = (
{
closed = 1;
nodes = (
(15,724,l),
(358,724,l),
(343,635,ls),
(316,486,o),
(216,455,o),
(104,455,cs),
(86,455,l),
(83,445,o),
(80,431,o),
(78,420,cs),
(47,249,o),
(121,138,o),
(287,138,cs),
(431,138,o),
(556,234,o),
(579,368,c),
(563,368,l),
(541,238,o),
(416,154,o),
(291,154,cs),
(138,154,o),
(64,253,o),
(94,420,cs),
(94,424,o),
(96,431,o),
(98,439,c),
(101,439,ls),
(229,439,o),
(332,480,o),
(360,635,cs),
(375,724,l),
(642,724,l),
(645,740,l),
(18,740,l)
);
}
);
width = 458;
}
);
note = dvY;
},
{
glyphname = dvR;
lastChange = "2022-10-20 16:08:56 +0000";
layers = (
{
layerId = m01;
shapes = (
{
closed = 1;
nodes = (
(293,-289,l),
(312,-289,l),
(228,-111,l),
(210,-111,l)
);
},
{
closed = 1;
nodes = (
(53,724,l),
(495,724,l),
(471,591,ls),
(447,452,o),
(359,390,o),
(239,390,cs),
(129,390,l),
(96,205,ls),
(74,78,o),
(118,-9,o),
(238,-9,cs),
(348,-9,o),
(430,68,o),
(451,188,cs),
(453,199,l),
(436,199,l),
(434,188,ls),
(415,79,o),
(340,7,o),
(240,7,cs),
(130,7,o),
(93,89,o),
(113,204,cs),
(143,374,l),
(236,374,ls),
(366,374,o),
(462,440,o),
(488,591,cs),
(512,724,l),
(662,724,l),
(665,740,l),
(56,740,l)
);
}
);
width = 539;
}
);
note = dvR;
},
{
glyphname = dvL;
lastChange = "2022-10-20 16:08:56 +0000";
layers = (
{
layerId = m01;
shapes = (
{
closed = 1;
nodes = (
(441,387,l),
(444,464,o),
(414,560,o),
(300,560,cs),
(175,560,o),
(93,467,o),
(71,341,cs),
(47,208,o),
(102,104,o),
(249,104,cs),
(260,104,o),
(271,105,o),
(282,106,c),
(285,123,l),
(274,122,o),
(264,121,o),
(254,121,cs),
(116,121,o),
(66,217,o),
(88,341,cs),
(108,456,o),
(182,544,o),
(298,544,cs),
(405,544,o),
(444,448,o),
(418,303,cs),
(417,295,l),
(434,295,l),
(435,303,ls),
(461,451,o),
(537,544,o),
(650,544,cs),
(761,544,o),
(798,452,o),
(779,341,c),
(796,341,l),
(817,463,o),
(773,560,o),
(653,560,cs),
(531,560,o),
(468,465,o),
(443,387,c)
);
},
{
closed = 1;
nodes = (
(18,724,l),
(863,724,l),
(866,740,l),
(21,740,l)
);
}
);
width = 688;
}
);
note = dvL;
},
{
glyphname = dvV;
lastChange = "2022-10-20 16:08:56 +0000";
layers = (
{
layerId = m01;
shapes = (
{
closed = 1;
nodes = (
(431,125,o),
(522,253,o),
(540,355,cs),
(558,458,o),
(515,588,o),
(348,588,cs),
(219,588,o),
(97,501,o),
(72,359,cs),
(46,211,o),
(134,125,o),
(267,125,cs)
);
},
{
closed = 1;
nodes = (
(147,141,o),
(65,220,o),
(89,359,cs),
(113,493,o),
(227,572,o),
(346,572,cs),
(501,572,o),
(541,455,o),
(523,355,cs),
(507,262,o),
(425,141,o),
(270,141,cs)
);
},
{
closed = 1;
nodes = (
(16,724,l),
(605,724,l),
(608,740,l),
(19,740,l)
);
}
);
width = 426;
}
);
note = dvV;
},
{
glyphname = dvSH;
lastChange = "2022-10-20 16:08:56 +0000";
layers = (
{
layerId = m01;
shapes = (
{
closed = 1;
nodes = (
(342,-9,o),
(425,68,o),
(446,188,cs),
(448,199,l),
(431,199,l),
(429,188,ls),
(410,79,o),
(335,7,o),
(235,7,cs),
(118,7,o),
(77,89,o),
(98,204,cs),
(123,349,l),
(259,349,ls),
(390,349,o),
(499,420,o),
(522,550,cs),
(544,676,o),
(481,749,o),
(367,749,cs),
(253,749,o),
(165,672,o),
(144,553,cs),
(141,535,o),
(140,518,o),
(140,500,c),
(157,500,l),
(157,518,o),
(158,535,o),
(161,553,cs),
(181,664,o),
(262,733,o),
(364,733,cs),
(468,733,o),
(525,665,o),
(505,550,cs),
(484,431,o),
(384,365,o),
(262,365,cs),
(109,365,l),
(81,205,ls),
(59,78,o),
(105,-9,o),
(232,-9,cs)
);
}
);
width = 525;
}
);
note = dvSH;
},
{
glyphname = dvSS;
lastChange = "2022-10-20 16:08:56 +0000";
layers = (
{
layerId = m01;
shapes = (
{
closed = 1;
nodes = (
(134,247,o),
(90,330,o),
(114,469,cs),
(155,703,l),
(463,369,l),
(448,318,o),
(374,247,o),
(265,247,cs)
);
},
{
closed = 1;
nodes = (
(7,724,l),
(142,724,l),
(97,469,ls),
(71,320,o),
(123,231,o),
(261,231,cs),
(384,231,o),
(469,312,o),
(481,376,c),
(159,724,l),
(542,724,l),
(545,740,l),
(10,740,l)
);
}
);
width = 390;
}
);
note = dvSS;
},
{
glyphname = dvS;
lastChange = "2022-10-20 16:08:56 +0000";
layers = (
{
layerId = m01;
shapes = (
{
closed = 1;
nodes = (
(429,199,l),
(412,199,l),
(410,188,ls),
(390,79,o),
(316,7,o),
(216,7,cs),
(106,7,o),
(68,89,o),
(89,204,cs),
(122,394,l),
(640,394,l),
(643,409,l),
(298,409,l),
(376,430,o),
(446,497,o),
(466,611,cs),
(486,724,l),
(698,724,l),
(701,740,l),
(31,740,l),
(28,724,l),
(470,724,l),
(450,611,ls),
(428,487,o),
(338,410,o),
(218,410,cs),
(108,410,l),
(72,205,ls),
(49,78,o),
(93,-9,o),
(213,-9,cs),
(323,-9,o),
(406,68,o),
(427,188,cs)
);
}
);
width = 536;
}
);
note = dvS;
},
{
glyphname = dvH;
lastChange = "2022-10-20 16:08:56 +0000";
layers = (
{
layerId = m01;
shapes = (
{
closed = 1;
nodes = (
(475,48,l),
(448,-10,o),
(375,-80,o),
(262,-80,cs),
(126,-80,o),
(76,11,o),
(94,115,cs),
(112,218,o),
(195,312,o),
(331,312,cs),
(448,312,o),
(495,240,o),
(499,183,c),
(516,183,l),
(511,248,o),
(464,328,o),
(334,328,cs),
(311,328,o),
(289,325,o),
(268,321,c),
(209,335,o),
(164,373,o),
(175,440,cs),
(190,522,o),
(265,549,o),
(342,549,cs),
(534,549,l),
(564,724,l),
(717,724,l),
(720,740,l),
(63,740,l),
(60,724,l),
(547,724,l),
(519,565,l),
(344,565,ls),
(255,565,o),
(174,531,o),
(158,440,cs),
(145,363,o),
(199,325,o),
(241,313,c),
(151,281,o),
(93,204,o),
(77,115,cs),
(58,5,o),
(110,-97,o),
(259,-97,cs),
(386,-97,o),
(463,-16,o),
(492,48,c)
);
},
{
closed = 1;
nodes = (
(311,-374,l),
(330,-374,l),
(245,-196,l),
(227,-196,l)
);
}
);
width = 587;
}
);
note = dvH;
},
{
glyphname = dvLL;
lastChange = "2022-10-20 16:08:56 +0000";
layers = (
{
layerId = m01;
shapes = (
{
closed = 1;
nodes = (
(368,133,o),
(458,210,o),
(489,294,c),
(491,294,l),
(492,210,o),
(554,133,o),
(671,133,cs),
(799,133,o),
(908,225,o),
(930,351,cs),
(954,487,o),
(876,576,o),
(751,576,cs),
(624,576,o),
(545,494,o),
(513,417,c),
(511,417,l),
(505,494,o),
(456,576,o),
(329,576,cs),
(204,576,o),
(94,487,o),
(70,351,cs),
(48,225,o),
(123,133,o),
(251,133,cs)
);
},
{
closed = 1;
nodes = (
(138,149,o),
(66,231,o),
(87,351,cs),
(109,478,o),
(210,560,o),
(326,560,cs),
(448,560,o),
(512,474,o),
(490,351,cs),
(469,234,o),
(374,149,o),
(254,149,cs)
);
},
{
closed = 1;
nodes = (
(554,149,o),
(489,234,o),
(510,351,cs),
(532,474,o),
(626,560,o),
(748,560,cs),
(864,560,o),
(935,478,o),
(913,351,cs),
(892,231,o),
(790,149,o),
(674,149,cs)
);
},
{
closed = 1;
nodes = (
(16,724,l),
(1116,724,l),
(1119,740,l),
(19,740,l)
);
}
);
width = 1030;
}
);
note = dvLL;
},
{
glyphname = dvK_SS;
lastChange = "2022-10-20 16:08:56 +0000";
layers = (
{
layerId = m01;
shapes = (
{
closed = 1;
nodes = (
(184,687,o),
(267,732,o),
(346,732,cs),
(427,732,o),
(491,680,o),
(475,589,cs),
(461,508,o),
(402,462,o),
(334,424,c),
(226,427,o),
(148,484,o),
(167,588,cs)
);
},
{
closed = 1;
nodes = (
(328,-47,l),
(345,-47,l),
(388,197,l),
(371,197,l),
(356,112,o),
(288,45,o),
(194,45,cs),
(101,45,o),
(59,108,o),
(73,187,cs),
(95,311,o),
(224,350,o),
(334,408,c),
(612,408,l),
(615,424,l),
(363,424,l),
(425,462,o),
(478,509,o),
(492,589,cs),
(510,690,o),
(440,750,o),
(349,750,cs),
(259,750,o),
(169,697,o),
(150,588,cs),
(131,481,o),
(207,418,o),
(305,409,c),
(199,355,o),
(78,312,o),
(56,187,cs),
(40,98,o),
(90,29,o),
(191,29,cs),
(291,29,o),
(347,95,o),
(358,124,c)
);
}
);
width = 503;
}
);
note = dvK_SS;
},
{
glyphname = dvJ_NY;
lastChange = "2022-10-20 16:08:56 +0000";
layers = (
{
layerId = m01;
shapes = (
{
closed = 1;
nodes = (
(22,724,l),
(753,724,l),
(756,740,l),
(25,740,l)
);
},
{
closed = 1;
nodes = (
(265,529,l),
(267,529,ls),
(398,529,o),
(481,458,o),
(459,334,cs),
(441,232,o),
(361,156,o),
(253,156,cs),
(161,156,o),
(77,211,o),
(86,326,c),
(70,326,l),
(23,64,l),
(40,64,l),
(76,265,l),
(84,207,o),
(141,140,o),
(250,140,cs),
(366,140,o),
(456,220,o),
(476,334,cs),
(494,438,o),
(443,504,o),
(360,529,c),
(718,529,l),
(721,545,l),
(268,545,l)
);
}
);
width = 525;
}
);
note = dvJ_NY;
},
{
glyphname = dvKx;
lastChange = "2022-10-20 16:08:56 +0000";
layers = (
{
layerId = m01;
shapes = (
{
closed = 1;
nodes = (
(444,0,l),
(460,0,l),
(522,351,ls),
(539,449,o),
(615,568,o),
(759,568,cs),
(865,568,o),
(942,490,o),
(919,359,c),
(936,359,l),
(961,499,o),
(878,584,o),
(762,584,cs),
(649,584,o),
(575,517,o),
(537,440,c),
(587,724,l),
(1000,724,l),
(1003,740,l),
(32,740,l),
(29,724,l),
(571,724,l),
(522,443,l),
(510,518,o),
(458,584,o),
(344,584,cs),
(224,584,o),
(110,499,o),
(85,359,cs),
(59,212,o),
(140,127,o),
(263,127,cs),
(375,127,o),
(453,193,o),
(491,268,c)
);
},
{
closed = 1;
nodes = (
(153,143,o),
(78,221,o),
(102,359,cs),
(125,490,o),
(231,568,o),
(341,568,cs),
(487,568,o),
(523,453,o),
(506,355,cs),
(506,354,ls),
(490,263,o),
(412,143,o),
(266,143,cs)
);
},
{
closed = 1;
nodes = (
(245,-21,o),
(257,-11,o),
(259,3,cs),
(262,17,o),
(253,27,o),
(239,27,cs),
(224,27,o),
(213,17,o),
(210,3,cs),
(208,-11,o),
(216,-21,o),
(231,-21,cs)
);
}
);
width = 771;
}
);
note = dvKx;
},
{
glyphname = dvKHx;
lastChange = "2022-10-20 16:08:56 +0000";
layers = (
{
layerId = m01;
shapes = (
{
closed = 1;
nodes = (
(40,724,l),
(368,724,l),
(340,563,ls),
(315,419,o),
(230,394,o),
(161,394,cs),
(117,394,l),
(86,214,ls),
(62,82,o),
(136,0,o),
(268,0,cs),
(384,0,o),
(471,78,o),
(515,165,c),
(530,162,o),
(547,160,o),
(564,160,cs),
(686,160,o),
(784,237,o),
(806,362,cs),
(828,487,o),
(759,565,o),
(635,565,cs),
(512,565,o),
(417,487,o),
(395,362,cs),
(377,264,o),
(418,192,o),
(500,169,c),
(461,90,o),
(379,16,o),
(272,16,cs),
(147,16,o),
(81,94,o),
(103,214,cs),
(131,378,l),
(138,378,o),
(145,378,o),
(152,378,cs),
(240,378,o),
(330,410,o),
(357,563,cs),
(385,724,l),
(869,724,l),
(872,740,l),
(43,740,l)
);
},
{
closed = 1;
nodes = (
(244,-148,o),
(255,-138,o),
(258,-124,cs),
(260,-110,o),
(252,-100,o),
(238,-100,cs),
(223,-100,o),
(211,-110,o),
(209,-124,cs),
(206,-138,o),
(215,-148,o),
(230,-148,cs)
);
},
{
closed = 1;
nodes = (
(432,476,o),
(520,549,o),
(633,549,cs),
(747,549,o),
(809,476,o),
(789,362,cs),
(769,250,o),
(681,176,o),
(567,176,cs),
(454,176,o),
(392,250,o),
(412,362,cs)
);
}
);
width = 679;
}
);
note = dvKHx;
},
{
glyphname = dvGx;
lastChange = "2022-10-20 16:08:56 +0000";
layers = (
{
layerId = m01;
shapes = (
{
closed = 1;
nodes = (
(17,724,l),
(349,724,l),
(294,414,ls),
(284,353,o),
(248,289,o),
(161,289,cs),
(78,289,o),
(63,354,o),
(73,411,cs),
(78,442,l),
(61,442,l),
(56,412,ls),
(44,343,o),
(67,273,o),
(158,273,cs),
(252,273,o),
(298,340,o),
(311,414,cs),
(366,724,l),
(507,724,l),
(510,740,l),
(20,740,l)
);
},
{
closed = 1;
nodes = (
(153,118,o),
(165,128,o),
(167,142,cs),
(170,156,o),
(162,166,o),
(148,166,cs),
(133,166,o),
(121,156,o),
(118,142,cs),
(116,128,o),
(124,118,o),
(139,118,cs)
);
}
);
width = 420;
}
);
note = dvGx;
},
{
glyphname = dvJx;
lastChange = "2022-10-20 16:08:56 +0000";
layers = (
{
layerId = m01;
shapes = (
{
closed = 1;
nodes = (
(321,159,o),
(397,234,o),
(416,340,cs),
(443,493,l),
(705,493,l),
(708,509,l),
(429,509,l),
(399,339,ls),
(382,243,o),
(313,175,o),
(221,175,cs),
(133,175,o),
(90,243,o),
(107,339,cs),
(137,509,l),
(120,509,l),
(90,340,ls),
(71,234,o),
(118,159,o),
(217,159,cs)
);
},
{
closed = 1;
nodes = (
(26,724,l),
(745,724,l),
(748,740,l),
(29,740,l)
);
},
{
closed = 1;
nodes = (
(212,11,o),
(223,21,o),
(226,35,cs),
(228,49,o),
(220,59,o),
(206,59,cs),
(191,59,o),
(179,49,o),
(177,35,cs),
(174,21,o),
(183,11,o),
(198,11,cs)
);
}
);
width = 541;
}
);
note = dvJx;
},
{
glyphname = dvPHx;
lastChange = "2022-10-20 16:08:56 +0000";
layers = (
{
layerId = m01;
shapes = (
{
closed = 1;
nodes = (
(151,247,o),
(110,330,o),
(134,469,cs),
(179,724,l),
(533,724,l),
(482,435,ls),
(464,333,o),
(387,247,o),
(275,247,cs)
);
},
{
closed = 1;
nodes = (
(27,724,l),
(162,724,l),
(117,469,ls),
(91,320,o),
(140,231,o),
(271,231,cs),
(360,231,o),
(430,279,o),
(468,352,c),
(406,0,l),
(423,0,l),
(485,351,ls),
(502,449,o),
(578,568,o),
(722,568,cs),
(848,568,o),
(905,490,o),
(882,359,c),
(899,359,l),
(924,499,o),
(861,584,o),
(725,584,cs),
(611,584,o),
(537,515,o),
(500,438,c),
(550,724,l),
(963,724,l),
(966,740,l),
(30,740,l)
);
},
{
closed = 1;
nodes = (
(252,83,o),
(264,93,o),
(267,107,cs),
(269,121,o),
(261,131,o),
(247,131,cs),
(232,131,o),
(220,121,o),
(218,107,cs),
(215,93,o),
(223,83,o),
(238,83,cs)
);
}
);
width = 771;
}
);
note = dvPHx;
},
{
glyphname = dvAnusvara;
lastChange = "2022-10-20 16:08:56 +0000";
layers = (
{
layerId = m01;
shapes = (
{
closed = 1;
nodes = (
(-125,855,o),
(-113,865,o),
(-111,879,cs),
(-109,893,o),
(-117,903,o),
(-131,903,cs),
(-146,903,o),
(-158,893,o),
(-160,879,cs),
(-162,865,o),
(-154,855,o),
(-139,855,cs)
);
}
);
width = 0;
}
);
note = dvAnusvara;
unicode = 2306;
},
{
glyphname = dvCandrabindu;
lastChange = "2022-10-20 16:08:56 +0000";
layers = (
{
layerId = m01;
shapes = (
{
closed = 1;
nodes = (
(-35,824,o),
(31,905,o),
(43,969,c),
(27,969,l),
(17,911,o),
(-43,840,o),
(-151,840,cs),
(-260,840,o),
(-293,911,o),
(-283,969,c),
(-299,969,l),
(-311,905,o),
(-274,824,o),
(-154,824,cs)
);
},
{
closed = 1;
nodes = (
(-112,978,o),
(-100,988,o),
(-97,1002,cs),
(-95,1016,o),
(-103,1026,o),
(-117,1026,cs),
(-132,1026,o),
(-144,1016,o),
(-146,1002,cs),
(-149,988,o),
(-141,978,o),
(-126,978,cs)
);
}
);
width = 0;
}
);
note = dvCandrabindu;
unicode = 2305;
},
{
glyphname = dvVisarga;
lastChange = "2022-10-20 16:08:56 +0000";
layers = (
{
layerId = m01;
shapes = (
{
closed = 1;
nodes = (
(133,489,o),
(144,499,o),
(147,513,cs),
(149,527,o),
(141,537,o),
(127,537,cs),
(112,537,o),
(100,527,o),
(98,513,cs),
(95,499,o),
(104,489,o),
(119,489,cs)
);
},
{
closed = 1;
nodes = (
(77,173,o),
(89,183,o),
(91,197,cs),
(94,211,o),
(85,221,o),
(71,221,cs),
(56,221,o),
(45,211,o),
(42,197,cs),
(40,183,o),
(48,173,o),
(63,173,cs)
);
}
);
width = 189;
}
);
note = dvVisarga;
unicode = 2307;
},
{
glyphname = dvAvagraha;
lastChange = "2022-10-20 16:08:56 +0000";
layers = (
{
layerId = m01;
shapes = (
{
closed = 1;
nodes = (
(40,75,l),
(271,75,ls),
(366,75,o),
(408,129,o),
(416,177,cs),
(443,326,o),
(174,428,o),
(199,571,cs),
(211,640,o),
(269,656,o),
(333,656,cs),
(513,656,l),
(516,672,l),
(334,672,ls),
(265,672,o),
(196,651,o),
(182,571,cs),
(154,416,o),
(424,315,o),
(399,177,cs),
(391,131,o),
(348,91,o),
(274,91,cs),
(43,91,l)
);
}
);
width = 558;
}
);
note = dvAvagraha;
unicode = 2365;
},
{
glyphname = dvVirama;
lastChange = "2022-10-20 16:08:56 +0000";
layers = (
{
layerId = m01;
shapes = (
{
closed = 1;
nodes = (
(-42,-244,l),
(-23,-244,l),
(-107,-66,l),
(-125,-66,l)
);
}
);
width = 0;
}
);
note = dvVirama;
unicode = 2381;
},
{
glyphname = dvNukta;
lastChange = "2022-10-20 16:08:56 +0000";
layers = (
{
layerId = m01;
shapes = (
{
closed = 1;
nodes = (
(-417,-45,o),
(-405,-35,o),
(-403,-21,cs),
(-401,-7,o),
(-409,3,o),
(-423,3,cs),
(-438,3,o),
(-450,-7,o),
(-452,-21,cs),
(-454,-35,o),
(-446,-45,o),
(-431,-45,cs)
);
}
);
width = 0;
}
);
note = dvNukta;
unicode = 2364;
},
{
glyphname = dvZero;
lastChange = "2022-10-20 16:08:56 +0000";
layers = (
{
layerId = m01;
shapes = (
{
closed = 1;
nodes = (
(34,149,o),
(43,-7,o),
(231,-7,cs),
(418,-7,o),
(482,149,o),
(518,354,cs),
(554,557,o),
(544,711,o),
(357,711,cs),
(169,711,o),
(106,557,o),
(70,354,cs)
);
},
{
closed = 1;
nodes = (
(464,159,o),
(407,11,o),
(234,11,cs),
(61,11,o),
(56,159,o),
(90,354,cs),
(124,547,o),
(181,693,o),
(354,693,cs),
(527,693,o),
(532,547,o),
(498,354,cs)
);
}
);
width = 588;
}
);
note = dvZero;
unicode = 2406;
},
{
glyphname = dvOne;
lastChange = "2022-10-20 16:08:56 +0000";
layers = (
{
layerId = m01;
shapes = (
{
closed = 1;
nodes = (
(59,0,l),
(79,0,l),
(203,704,l),
(77,704,l),
(74,686,l),
(180,686,l)
);
}
);
width = 226;
}
);
note = dvOne;
unicode = 2407;
},
{
glyphname = dvTwo;
lastChange = "2022-10-20 16:08:56 +0000";
layers = (
{
layerId = m01;
shapes = (
{
closed = 1;
nodes = (
(-13,0,l),
(454,0,l),
(457,18,l),
(28,18,l),
(213,117,o),
(488,325,o),
(521,515,cs),
(547,661,o),
(456,711,o),
(356,711,cs),
(222,711,o),
(124,623,o),
(88,480,c),
(108,480,l),
(138,599,o),
(217,693,o),
(353,693,cs),
(492,693,o),
(517,606,o),
(501,515,cs),
(472,351,o),
(263,170,o),
(-11,11,c)
);
}
);
width = 567;
}
);
note = dvTwo;
unicode = 2408;
},
{
glyphname = dvThree;
lastChange = "2022-10-20 16:08:56 +0000";
layers = (
{
layerId = m01;
shapes = (
{
closed = 1;
nodes = (
(115,516,l),
(154,645,o),
(258,693,o),
(357,693,cs),
(472,693,o),
(524,628,o),
(508,537,cs),
(490,438,o),
(407,376,o),
(231,376,cs),
(213,376,l),
(210,357,l),
(227,357,ls),
(389,357,o),
(478,297,o),
(457,179,cs),
(441,87,o),
(367,13,o),
(236,13,cs),
(108,13,o),
(46,92,o),
(46,197,c),
(26,197,l),
(25,68,o),
(101,-7,o),
(233,-7,cs),
(382,-7,o),
(460,78,o),
(477,179,cs),
(497,291,o),
(427,352,o),
(322,364,c),
(323,370,l),
(460,381,o),
(515,463,o),
(528,537,cs),
(545,635,o),
(489,711,o),
(360,711,cs),
(224,711,o),
(129,635,o),
(95,516,c)
);
}
);
width = 575;
}
);
note = dvThree;
unicode = 2409;
},
{
glyphname = dvFour;
lastChange = "2022-10-20 16:08:56 +0000";
layers = (
{
layerId = m01;
shapes = (
{
closed = 1;
nodes = (
(355,0,l),
(375,0,l),
(408,190,l),
(530,190,l),
(534,208,l),
(412,208,l),
(499,704,l),
(479,704,l),
(-6,206,l),
(-9,190,l),
(388,190,l)
);
},
{
closed = 1;
nodes = (
(20,208,l),
(473,672,l),
(392,208,l)
);
}
);
width = 574;
}
);
note = dvFour;
unicode = 2410;
},
{
glyphname = dvFive;
lastChange = "2022-10-20 16:08:56 +0000";
layers = (
{
layerId = m01;
shapes = (
{
closed = 1;
nodes = (
(144,704,l),
(78,333,l),
(96,333,l),
(148,401,o),
(232,443,o),
(325,443,cs),
(461,443,o),
(519,362,o),
(497,236,cs),
(475,109,o),
(391,13,o),
(244,13,cs),
(137,13,o),
(64,73,o),
(62,192,c),
(42,192,l),
(40,68,o),
(116,-7,o),
(241,-7,cs),
(410,-7,o),
(495,112,o),
(517,236,cs),
(538,352,o),
(494,461,o),
(328,461,cs),
(239,461,o),
(152,422,o),
(104,366,c),
(161,686,l),
(563,686,l),
(566,704,l)
);
}
);
width = 592;
}
);
note = dvFive;
unicode = 2411;
},
{
glyphname = dvSix;
lastChange = "2022-10-20 16:08:56 +0000";
layers = (
{
layerId = m01;
shapes = (
{
closed = 1;
nodes = (
(555,522,l),
(561,635,o),
(507,712,o),
(383,712,cs),
(197,712,o),
(107,564,o),
(68,339,cs),
(36,161,o),
(46,-7,o),
(264,-7,cs),
(431,-7,o),
(511,109,o),
(531,224,cs),
(558,374,o),
(491,468,o),
(342,468,cs),
(225,468,o),
(116,403,o),
(80,297,c),
(119,588,o),
(228,694,o),
(380,694,cs),
(490,694,o),
(540,628,o),
(535,522,c)
);
},
{
closed = 1;
nodes = (
(468,450,o),
(538,373,o),
(511,224,cs),
(488,90,o),
(390,11,o),
(267,11,cs),
(100,11,o),
(57,132,o),
(77,245,cs),
(102,386,o),
(234,450,o),
(339,450,cs)
);
}
);
width = 614;
}
);
note = dvSix;
unicode = 2412;
},
{
glyphname = dvSeven;
lastChange = "2022-10-20 16:08:56 +0000";
layers = (
{
layerId = m01;
shapes = (
{
closed = 1;
nodes = (
(72,704,l),
(69,686,l),
(504,686,l),
(99,0,l),
(120,0,l),
(521,686,l),
(524,704,l)
);
}
);
width = 502;
}
);
note = dvSeven;
unicode = 2413;
},
{
glyphname = dvEight;
lastChange = "2022-10-20 16:08:56 +0000";
layers = (
{
layerId = m01;
shapes = (
{
closed = 1;
nodes = (
(121,344,o),
(43,277,o),
(26,177,cs),
(4,53,o),
(81,-25,o),
(239,-25,cs),
(397,-25,o),
(502,53,o),
(524,177,cs),
(541,277,o),
(487,344,o),
(383,362,c),
(497,385,o),
(552,453,o),
(566,532,cs),
(585,639,o),
(513,711,o),
(369,711,cs),
(225,711,o),
(127,639,o),
(108,532,cs),
(94,453,o),
(125,385,o),
(231,362,c)
);
},
{
closed = 1;
nodes = (
(181,371,o),
(110,429,o),
(128,532,cs),
(147,638,o),
(242,693,o),
(366,693,cs),
(490,693,o),
(565,638,o),
(546,532,cs),
(528,429,o),
(437,371,o),
(309,371,cs)
);
},
{
closed = 1;
nodes = (
(428,353,o),
(526,305,o),
(504,177,cs),
(483,57,o),
(379,-7,o),
(242,-7,cs),
(105,-7,o),
(25,57,o),
(46,177,cs),
(68,305,o),
(184,353,o),
(306,353,cs)
);
}
);
width = 608;
}
);
note = dvEight;
unicode = 2414;
},
{
glyphname = dvNine;
lastChange = "2022-10-20 16:08:56 +0000";
layers = (
{
layerId = m01;
shapes = (
{
closed = 1;
nodes = (
(59,182,l),
(53,69,o),
(107,-8,o),
(231,-8,cs),
(417,-8,o),
(507,140,o),
(546,365,cs),
(578,543,o),
(568,711,o),
(350,711,cs),
(183,711,o),
(103,595,o),
(83,480,cs),
(56,330,o),
(123,236,o),
(272,236,cs),
(389,236,o),
(498,301,o),
(534,407,c),
(495,116,o),
(386,10,o),
(234,10,cs),
(124,10,o),
(74,76,o),
(79,182,c)
);
},
{
closed = 1;
nodes = (
(146,254,o),
(76,331,o),
(103,480,cs),
(126,614,o),
(224,693,o),
(347,693,cs),
(514,693,o),
(557,572,o),
(537,459,cs),
(512,318,o),
(380,254,o),
(275,254,cs)
);
}
);
width = 614;
}
);
note = dvNine;
unicode = 2415;
},
{
glyphname = dvOm;
lastChange = "2022-10-20 16:08:56 +0000";
layers = (
{
layerId = m01;
shapes = (
{
closed = 1;
nodes = (
(336,14,o),
(428,94,o),
(450,214,cs),
(460,273,o),
(447,326,o),
(410,360,c),
(449,360,ls),
(534,360,o),
(602,398,o),
(622,510,cs),
(638,600,o),
(689,674,o),
(801,674,cs),
(920,674,o),
(942,586,o),
(917,442,cs),
(890,292,ls),
(862,134,o),
(796,49,o),
(625,49,cs),
(599,49,o),
(566,53,o),
(531,59,c),
(528,43,l),
(562,37,o),
(594,33,o),
(622,33,cs),
(804,33,o),
(878,124,o),
(907,292,cs),
(934,442,ls),
(961,598,o),
(936,690,o),
(804,690,cs),
(679,690,o),
(623,611,o),
(605,510,cs),
(587,407,o),
(527,376,o),
(452,376,cs),
(389,376,l),
(373,386,o),
(354,393,o),
(332,396,c),
(332,397,l),
(428,413,o),
(483,482,o),
(498,566,cs),
(517,678,o),
(446,749,o),
(338,749,cs),
(230,749,o),
(134,686,o),
(115,577,c),
(132,577,l),
(149,676,o),
(238,733,o),
(335,733,cs),
(430,733,o),
(499,671,o),
(480,562,cs),
(467,489,o),
(402,404,o),
(283,404,cs),
(249,404,l),
(246,388,l),
(280,388,ls),
(415,388,o),
(447,294,o),
(433,214,cs),
(413,105,o),
(329,30,o),
(218,30,cs),
(108,30,o),
(39,103,o),
(58,210,c),
(41,210,l),
(20,93,o),
(97,14,o),
(216,14,cs)
);
},
{
closed = 1;
nodes = (
(755,761,o),
(821,842,o),
(833,906,c),
(817,906,l),
(806,848,o),
(747,777,o),
(639,777,cs),
(530,777,o),
(496,848,o),
(507,906,c),
(491,906,l),
(479,842,o),
(516,761,o),
(636,761,cs)
);
},
{
closed = 1;
nodes = (
(678,915,o),
(690,925,o),
(692,939,cs),
(695,953,o),
(687,963,o),
(673,963,cs),
(658,963,o),
(646,953,o),
(643,939,cs),
(641,925,o),
(649,915,o),
(664,915,cs)
);
}
);
width = 1042;
}
);
note = dvOm;
unicode = 2384;
},
{
glyphname = dvAbbreviationsign;
lastChange = "2022-10-20 16:08:56 +0000";
layers = (
{
layerId = m01;
shapes = (
{
closed = 1;
nodes = (
(190,516,o),
(110,451,o),
(94,360,cs),
(78,269,o),
(134,204,o),
(229,204,cs),
(322,204,o),
(399,268,o),
(415,358,cs),
(431,451,o),
(378,516,o),
(285,516,cs)
);
},
{
closed = 1;
nodes = (
(365,500,o),
(412,441,o),
(398,358,cs),
(383,277,o),
(315,220,o),
(232,220,cs),
(146,220,o),
(97,278,o),
(111,360,cs),
(125,442,o),
(196,500,o),
(282,500,cs)
);
}
);
width = 509;
}
);
note = dvAbbreviationsign;
unicode = 2416;
},
{
glyphname = danda;
lastChange = "2022-10-20 16:08:56 +0000";
layers = (
{
layerId = m01;
shapes = (
{
closed = 1;
nodes = (
(247,742,l),
(230,742,l),
(100,0,l),
(117,0,l)
);
}
);
width = 227;
}
);
note = danda;
unicode = 2404;
},
{
glyphname = doubledanda;
lastChange = "2022-10-20 16:08:56 +0000";
layers = (
{
layerId = m01;
shapes = (
{
closed = 1;
nodes = (
(247,742,l),
(230,742,l),
(100,0,l),
(117,0,l)
);
},
{
closed = 1;
nodes = (
(402,742,l),
(385,742,l),
(255,0,l),
(272,0,l)
);
}
);
width = 382;
}
);
note = doubledanda;
unicode = 2405;
},
{
glyphname = rupee;
lastChange = "2022-10-20 16:08:56 +0000";
layers = (
{
layerId = m01;
shapes = (
{
closed = 1;
nodes = (
(477,401,o),
(410,328,o),
(259,328,cs),
(101,328,l),
(164,684,l),
(322,684,ls),
(473,684,o),
(515,614,o),
(496,505,cs)
);
},
{
closed = 1;
nodes = (
(148,704,l),
(24,0,l),
(44,0,l),
(98,307,l),
(248,307,l),
(409,0,l),
(434,0,l),
(271,307,l),
(409,312,o),
(494,380,o),
(516,505,cs),
(536,622,o),
(486,704,o),
(326,704,cs)
);
},
{
closed = 1;
nodes = (
(548,206,o),
(905,321,o),
(872,133,cs),
(860,64,o),
(802,11,o),
(714,11,cs),
(596,11,o),
(548,80,o),
(553,158,c),
(533,158,l),
(528,57,o),
(596,-7,o),
(710,-7,cs),
(804,-7,o),
(878,51,o),
(892,133,cs),
(929,342,o),
(571,226,o),
(603,407,cs),
(616,479,o),
(678,529,o),
(769,529,cs),
(877,529,o),
(917,458,o),
(912,382,c),
(932,382,l),
(938,483,o),
(880,547,o),
(772,547,cs),
(674,547,o),
(598,493,o),
(583,407,cs)
);
}
);
width = 990;
}
);
note = rupee;
unicode = 8360;
},
{
glyphname = indianrupee;
lastChange = "2022-10-20 16:08:56 +0000";
layers = (
{
layerId = m01;
shapes = (
{
closed = 1;
nodes = (
(125,686,l),
(482,686,l),
(458,550,ls),
(456,540,o),
(454,530,o),
(453,521,c),
(96,521,l),
(93,503,l),
(449,503,l),
(417,369,o),
(358,341,o),
(119,341,c),
(92,188,ls),
(71,70,o),
(115,-10,o),
(241,-10,cs),
(350,-10,o),
(430,55,o),
(452,184,c),
(432,184,l),
(412,71,o),
(348,8,o),
(244,8,cs),
(133,8,o),
(91,76,o),
(112,194,cs),
(135,323,l),
(357,323,o),
(431,353,o),
(468,503,c),
(637,503,l),
(640,521,l),
(472,521,l),
(473,529,o),
(475,539,o),
(476,548,cs),
(501,686,l),
(669,686,l),
(672,704,l),
(128,704,l)
);
}
);
width = 674;
}
);
note = indianrupee;
unicode = 8377;
},
{
glyphname = zerowidthnonjoiner;
lastChange = "2022-10-20 16:08:56 +0000";
layers = (
{
layerId = m01;
shapes = (
{
closed = 1;
nodes = (
(-68,-230,l),
(116,811,l),
(69,811,l),
(-115,-230,l)
);
}
);
width = 0;
}
);
note = zerowidthnonjoiner;
unicode = 8204;
},
{
glyphname = zerowidthjoiner;
lastChange = "2022-10-20 16:08:56 +0000";
layers = (
{
layerId = m01;
shapes = (
{
closed = 1;
nodes = (
(181,593,l),
(102,688,l),
(215,784,l),
(188,816,l),
(75,721,l),
(-3,816,l),
(-42,783,l),
(37,688,l),
(-73,595,l),
(-46,562,l),
(36,635,l),
(-116,-230,l),
(-69,-230,l),
(83,635,l),
(142,560,l)
);
}
);
width = 0;
}
);
note = zerowidthjoiner;
unicode = 8205;
},
{
glyphname = dottedcircle;
lastChange = "2022-10-20 16:08:56 +0000";
layers = (
{
layerId = m01;
shapes = (
{
closed = 1;
nodes = (
(587,434,o),
(572,451,o),
(547,451,cs),
(522,451,o),
(501,434,o),
(496,409,cs),
(492,384,o),
(507,367,o),
(532,367,cs),
(557,367,o),
(578,384,o),
(582,409,cs)
);
},
{
closed = 1;
nodes = (
(160,148,o),
(145,165,o),
(120,165,cs),
(95,165,o),
(74,148,o),
(70,123,cs),
(65,98,o),
(80,81,o),
(105,81,cs),
(130,81,o),
(151,98,o),
(156,123,cs)
);
},
{
closed = 1;
nodes = (
(245,72,o),
(230,89,o),
(205,89,cs),
(180,89,o),
(159,72,o),
(154,47,cs),
(150,22,o),
(165,5,o),
(190,5,cs),
(215,5,o),
(236,22,o),
(240,47,cs)
);
},
{
closed = 1;
nodes = (
(135,261,o),
(120,278,o),
(95,278,cs),
(70,278,o),
(49,261,o),
(45,236,cs),
(40,211,o),
(55,194,o),
(80,194,cs),
(105,194,o),
(126,211,o),
(131,236,cs)
);
},
{
closed = 1;
nodes = (
(366,58,o),
(351,75,o),
(326,75,cs),
(301,75,o),
(280,58,o),
(276,33,cs),
(272,8,o),
(287,-9,o),
(312,-9,cs),
(337,-9,o),
(358,8,o),
(362,33,cs)
);
},
{
closed = 1;
nodes = (
(172,382,o),
(157,399,o),
(132,399,cs),
(107,399,o),
(86,382,o),
(81,357,cs),
(77,332,o),
(92,315,o),
(117,315,cs),
(142,315,o),
(163,332,o),
(167,357,cs)
);
},
{
closed = 1;
nodes = (
(490,104,o),
(475,121,o),
(450,121,cs),
(425,121,o),
(404,104,o),
(399,79,cs),
(395,54,o),
(410,37,o),
(435,37,cs),
(460,37,o),
(481,54,o),
(485,79,cs)
);
},
{
closed = 1;
nodes = (
(265,481,o),
(250,498,o),
(225,498,cs),
(200,498,o),
(179,481,o),
(175,456,cs),
(170,431,o),
(185,414,o),
(210,414,cs),
(235,414,o),
(256,431,o),
(261,456,cs)
);
},
{
closed = 1;
nodes = (
(579,200,o),
(564,217,o),
(539,217,cs),
(514,217,o),
(493,200,o),
(489,175,cs),
(485,150,o),
(500,133,o),
(525,133,cs),
(550,133,o),
(571,150,o),
(575,175,cs)
);
},
{
closed = 1;
nodes = (
(389,523,o),
(374,540,o),
(349,540,cs),
(324,540,o),
(303,523,o),
(299,498,cs),
(295,473,o),
(310,456,o),
(335,456,cs),
(360,456,o),
(381,473,o),
(385,498,cs)
);
},
{
closed = 1;
nodes = (
(611,320,o),
(596,337,o),
(571,337,cs),
(546,337,o),
(525,320,o),
(520,295,cs),
(516,270,o),
(531,253,o),
(556,253,cs),
(581,253,o),
(602,270,o),
(606,295,cs)
);
},
{
closed = 1;
nodes = (
(508,508,o),
(493,525,o),
(468,525,cs),
(443,525,o),
(422,508,o),
(417,483,cs),
(413,458,o),
(428,441,o),
(453,441,cs),
(478,441,o),
(499,458,o),
(503,483,cs)
);
}
);
width = 651;
}
);
note = dottedcircle;
unicode = 9676;
},
{
glyphname = dvReph;
lastChange = "2022-10-20 16:08:56 +0000";
layers = (
{
layerId = m01;
shapes = (
{
closed = 1;
nodes = (
(-167,733,l),
(-150,733,l),
(-134,822,ls),
(-116,924,o),
(-66,978,o),
(14,978,cs),
(85,978,o),
(120,926,o),
(108,858,c),
(124,858,l),
(138,936,o),
(98,994,o),
(17,994,cs),
(-70,994,o),
(-131,937,o),
(-151,823,cs)
);
}
);
width = 0;
}
);
note = dvReph;
},
{
glyphname = dvEyelash;
lastChange = "2022-10-20 16:08:56 +0000";
layers = (
{
layerId = m01;
shapes = (
{
closed = 1;
nodes = (
(299,441,l),
(282,439,o),
(263,436,o),
(230,436,cs),
(134,436,o),
(28,474,o),
(50,597,c),
(34,597,l),
(10,463,o),
(123,419,o),
(225,419,cs),
(256,419,o),
(285,422,o),
(298,425,c)
);
},
{
closed = 1;
nodes = (
(-10,724,l),
(322,724,l),
(325,740,l),
(-7,740,l)
);
}
);
width = 240;
}
);
note = dvEyelash;
},
{
glyphname = dvRashtrasign;
lastChange = "2022-10-20 16:08:56 +0000";
layers = (
{
layerId = m01;
shapes = (
{
closed = 1;
nodes = (
(-388,-97,l),
(-365,-97,l),
(-162,72,l),
(-18,-97,l),
(5,-97,l),
(-148,82,l),
(-171,82,l)
);
}
);
width = 0;
}
);
note = dvRashtrasign;
},
{
glyphname = dvK_RA;
lastChange = "2022-10-20 16:08:56 +0000";
layers = (
{
layerId = m01;
shapes = (
{
closed = 1;
nodes = (
(446,0,l),
(462,0,l),
(524,351,ls),
(541,449,o),
(617,568,o),
(761,568,cs),
(867,568,o),
(944,490,o),
(921,359,cs),
(897,221,o),
(798,143,o),
(689,143,cs),
(670,143,o),
(649,145,o),
(633,149,c),
(630,133,l),
(643,130,o),
(665,127,o),
(686,127,cs),
(805,127,o),
(912,212,o),
(938,359,cs),
(963,499,o),
(880,584,o),
(764,584,cs),
(651,584,o),
(577,517,o),
(539,440,c),
(589,724,l),
(1122,724,l),
(1125,740,l),
(34,740,l),
(31,724,l),
(573,724,l),
(524,443,l),
(512,518,o),
(460,584,o),
(346,584,cs),
(226,584,o),
(112,499,o),
(87,359,cs),
(61,212,o),
(142,127,o),
(265,127,cs),
(294,127,o),
(321,131,o),
(345,139,c),
(102,-46,l),
(125,-46,l),
(410,172,ls),
(447,198,o),
(475,232,o),
(493,268,c)
);
},
{
closed = 1;
nodes = (
(155,143,o),
(80,221,o),
(104,359,cs),
(127,490,o),
(233,568,o),
(343,568,cs),
(489,568,o),
(526,453,o),
(508,355,cs),
(508,354,ls),
(492,263,o),
(414,143,o),
(268,143,cs)
);
}
);
width = 1021;
}
);
note = dvK_RA;
},
{
glyphname = dvKH_RA;
lastChange = "2022-10-20 16:08:56 +0000";
layers = (
{
layerId = m01;
shapes = (
{
closed = 1;
nodes = (
(713,0,l),
(730,0,l),
(858,724,l),
(1020,724,l),
(1023,740,l),
(44,740,l),
(41,724,l),
(369,724,l),
(340,563,ls),
(315,419,o),
(231,394,o),
(162,394,cs),
(118,394,l),
(86,214,ls),
(63,82,o),
(136,0,o),
(268,0,cs),
(297,0,o),
(324,5,o),
(349,13,c),
(136,-149,l),
(135,-151,l),
(155,-151,l),
(430,59,l),
(430,59,l),
(466,88,o),
(493,125,o),
(513,164,c),
(528,161,o),
(544,159,o),
(561,159,cs),
(660,159,o),
(730,218,o),
(763,285,c)
);
},
{
closed = 1;
nodes = (
(462,175,o),
(391,244,o),
(413,366,cs),
(433,481,o),
(531,549,o),
(630,549,cs),
(759,549,o),
(792,448,o),
(777,362,cs),
(777,361,ls),
(762,280,o),
(693,175,o),
(564,175,cs)
);
},
{
closed = 1;
nodes = (
(147,16,o),
(82,94,o),
(103,214,cs),
(132,378,l),
(139,378,o),
(146,378,o),
(153,378,cs),
(241,378,o),
(330,410,o),
(357,563,cs),
(386,724,l),
(841,724,l),
(791,441,l),
(780,507,o),
(734,565,o),
(633,565,cs),
(522,565,o),
(417,490,o),
(396,366,cs),
(377,260,o),
(422,191,o),
(499,168,c),
(457,87,o),
(377,16,o),
(272,16,cs)
);
}
);
width = 909;
}
);
note = dvKH_RA;
},
{
glyphname = dvG_RA;
lastChange = "2022-10-20 16:08:56 +0000";
layers = (
{
layerId = m01;
shapes = (
{
closed = 1;
nodes = (
(476,0,l),
(493,0,l),
(620,724,l),
(782,724,l),
(785,740,l),
(32,740,l),
(29,724,l),
(361,724,l),
(314,454,ls),
(303,393,o),
(268,329,o),
(181,329,cs),
(98,329,o),
(82,394,o),
(92,451,cs),
(98,482,l),
(81,482,l),
(75,452,ls),
(63,383,o),
(87,313,o),
(178,313,cs),
(272,313,o),
(318,380,o),
(331,454,cs),
(378,724,l),
(603,724,l),
(534,332,l),
(121,-20,l),
(143,-20,l),
(530,310,l)
);
}
);
width = 683;
}
);
note = dvG_RA;
},
{
glyphname = dvGH_RA;
lastChange = "2022-10-20 16:08:56 +0000";
layers = (
{
layerId = m01;
shapes = (
{
closed = 1;
nodes = (
(171,132,o),
(87,185,o),
(108,299,cs),
(122,382,o),
(191,451,o),
(333,451,cs),
(387,451,l),
(390,467,l),
(336,467,ls),
(210,467,o),
(168,521,o),
(186,622,cs),
(204,724,l),
(645,724,l),
(581,364,ls),
(557,227,o),
(429,132,o),
(292,132,cs)
);
},
{
closed = 1;
nodes = (
(33,724,l),
(187,724,l),
(169,622,ls),
(149,513,o),
(203,468,o),
(275,460,c),
(275,458,l),
(190,451,o),
(108,395,o),
(91,299,cs),
(69,178,o),
(152,116,o),
(289,116,cs),
(329,116,o),
(369,123,o),
(404,136,c),
(148,-58,l),
(171,-58,l),
(478,177,ls),
(515,203,o),
(545,237,o),
(566,276,c),
(517,0,l),
(534,0,l),
(662,724,l),
(824,724,l),
(826,740,l),
(35,740,l)
);
}
);
width = 721;
}
);
note = dvGH_RA;
},
{
glyphname = dvNG_RA;
lastChange = "2022-10-20 16:08:56 +0000";
layers = (
{
layerId = m01;
shapes = (
{
closed = 1;
nodes = (
(602,391,o),
(614,401,o),
(617,415,cs),
(619,429,o),
(611,439,o),
(597,439,cs),
(582,439,o),
(570,429,o),
(568,415,cs),
(565,401,o),
(573,391,o),
(588,391,cs)
);
},
{
closed = 1;
nodes = (
(43,724,l),
(522,724,l),
(494,562,l),
(334,562,ls),
(251,562,o),
(150,535,o),
(131,429,cs),
(115,338,o),
(181,298,o),
(273,298,cs),
(318,298,ls),
(407,298,o),
(501,268,o),
(480,150,cs),
(466,72,o),
(398,7,o),
(274,7,cs),
(124,7,o),
(71,88,o),
(88,184,c),
(71,184,l),
(53,81,o),
(110,0,o),
(247,-8,c),
(41,-179,l),
(64,-179,l),
(267,-10,l),
(411,-179,l),
(434,-179,l),
(288,-9,l),
(411,-3,o),
(482,66,o),
(497,150,cs),
(519,276,o),
(422,314,o),
(322,314,cs),
(277,314,ls),
(200,314,o),
(133,343,o),
(148,429,cs),
(166,528,o),
(263,546,o),
(339,546,cs),
(508,546,l),
(539,724,l),
(735,724,l),
(738,740,l),
(46,740,l)
);
}
);
width = 622;
}
);
note = dvNG_RA;
},
{
glyphname = dvC_RA;
lastChange = "2022-10-20 16:08:56 +0000";
layers = (
{
layerId = m01;
shapes = (
{
closed = 1;
nodes = (
(31,724,l),
(640,724,l),
(572,333,ls),
(553,227,o),
(447,131,o),
(327,131,cs),
(220,131,o),
(138,200,o),
(160,324,cs),
(180,436,o),
(275,525,o),
(408,525,cs),
(437,525,l),
(440,541,l),
(83,541,l),
(80,525,l),
(321,525,l),
(226,496,o),
(160,421,o),
(143,324,cs),
(119,190,o),
(207,115,o),
(325,115,cs),
(353,115,o),
(381,120,o),
(408,129,c),
(178,-46,l),
(201,-46,l),
(480,167,ls),
(511,190,o),
(539,220,o),
(557,253,c),
(513,0,l),
(530,0,l),
(657,724,l),
(819,724,l),
(822,740,l),
(34,740,l)
);
}
);
width = 718;
}
);
note = dvC_RA;
},
{
glyphname = dvCH_RA;
lastChange = "2022-10-20 16:08:56 +0000";
layers = (
{
layerId = m01;
shapes = (
{
closed = 1;
nodes = (
(39,724,l),
(188,724,l),
(165,589,ls),
(145,480,o),
(199,435,o),
(271,427,c),
(271,425,l),
(181,417,o),
(94,359,o),
(75,251,cs),
(50,110,o),
(163,33,o),
(347,33,cs),
(353,33,o),
(358,33,o),
(364,33,c),
(159,-136,l),
(182,-136,l),
(385,33,l),
(529,-136,l),
(552,-136,l),
(404,36,l),
(587,56,o),
(738,171,o),
(771,356,cs),
(795,494,o),
(727,557,o),
(646,561,c),
(674,724,l),
(920,724,l),
(923,740,l),
(42,740,l)
);
},
{
closed = 1;
nodes = (
(182,49,o),
(68,116,o),
(92,251,cs),
(108,342,o),
(181,418,o),
(329,418,cs),
(353,418,l),
(356,434,l),
(332,434,ls),
(206,434,o),
(164,488,o),
(182,589,cs),
(205,724,l),
(657,724,l),
(629,561,l),
(556,558,o),
(469,516,o),
(448,397,cs),
(442,365,o),
(442,329,o),
(449,290,c),
(466,290,l),
(460,329,o),
(459,365,o),
(465,397,cs),
(485,510,o),
(572,545,o),
(634,545,cs),
(707,545,o),
(777,488,o),
(753,355,cs),
(720,167,o),
(544,49,o),
(349,49,cs)
);
}
);
width = 811;
}
);
note = dvCH_RA;
},
{
glyphname = dvJ_RA;
lastChange = "2022-10-20 16:08:56 +0000";
layers = (
{
layerId = m01;
shapes = (
{
closed = 1;
nodes = (
(29,724,l),
(743,724,l),
(705,509,l),
(431,509,l),
(414,409,ls),
(397,313,o),
(328,245,o),
(236,245,cs),
(148,245,o),
(105,313,o),
(122,409,cs),
(139,509,l),
(122,509,l),
(105,410,ls),
(86,304,o),
(133,229,o),
(232,229,cs),
(336,229,o),
(412,304,o),
(431,410,cs),
(445,493,l),
(702,493,l),
(674,332,l),
(261,-20,l),
(283,-20,l),
(670,310,l),
(616,0,l),
(633,0,l),
(760,724,l),
(922,724,l),
(925,740,l),
(32,740,l)
);
}
);
width = 823;
}
);
note = dvJ_RA;
},
{
glyphname = dvJH_RA;
lastChange = "2022-10-20 16:08:56 +0000";
layers = (
{
layerId = m01;
shapes = (
{
closed = 1;
nodes = (
(798,724,l),
(726,314,l),
(270,314,ls),
(191,314,o),
(123,343,o),
(138,429,cs),
(156,528,o),
(255,546,o),
(332,546,cs),
(501,546,l),
(532,724,l)
);
},
{
closed = 1;
nodes = (
(671,0,l),
(688,0,l),
(815,724,l),
(977,724,l),
(980,740,l),
(39,740,l),
(36,724,l),
(515,724,l),
(487,562,l),
(327,562,ls),
(243,562,o),
(140,535,o),
(121,429,cs),
(105,338,o),
(174,298,o),
(266,298,cs),
(311,298,ls),
(432,298,o),
(489,242,o),
(473,150,cs),
(461,80,o),
(402,16,o),
(288,16,cs),
(156,16,o),
(105,92,o),
(105,173,c),
(90,173,l),
(47,-71,l),
(64,-71,l),
(97,117,l),
(102,88,o),
(140,0,o),
(285,0,cs),
(410,0,o),
(476,70,o),
(490,150,cs),
(506,239,o),
(461,284,o),
(399,300,c),
(723,299,l),
(715,250,l),
(415,-100,l),
(436,-100,l),
(710,221,l)
);
}
);
width = 871;
}
);
note = dvJH_RA;
},
{
glyphname = dvNY_RA;
lastChange = "2022-10-20 16:08:56 +0000";
layers = (
{
layerId = m01;
shapes = (
{
closed = 1;
nodes = (
(34,724,l),
(762,724,l),
(701,383,l),
(521,383,l),
(533,484,o),
(484,583,o),
(338,583,cs),
(201,583,o),
(130,497,o),
(101,428,c),
(118,428,l),
(143,489,o),
(211,567,o),
(335,567,cs),
(471,567,o),
(520,473,o),
(502,370,cs),
(483,262,o),
(401,168,o),
(265,168,cs),
(145,168,o),
(95,244,o),
(97,306,c),
(80,306,l),
(78,239,o),
(128,151,o),
(262,151,cs),
(412,151,o),
(499,259,o),
(519,367,c),
(699,367,l),
(683,278,l),
(275,-70,l),
(297,-70,l),
(679,256,l),
(634,0,l),
(651,0,l),
(779,724,l),
(941,724,l),
(943,740,l),
(36,740,l)
);
}
);
width = 787;
}
);
note = dvNY_RA;
},
{
glyphname = dvTT_RA;
lastChange = "2022-10-20 16:08:56 +0000";
layers = (
{
layerId = m01;
shapes = (
{
closed = 1;
nodes = (
(37,724,l),
(496,724,l),
(469,573,l),
(418,573,ls),
(257,573,o),
(116,492,o),
(84,311,cs),
(60,174,o),
(139,75,o),
(270,64,c),
(63,-107,l),
(86,-107,l),
(289,62,l),
(433,-107,l),
(456,-107,l),
(310,63,l),
(455,70,o),
(569,174,o),
(595,320,c),
(578,320,l),
(553,179,o),
(437,79,o),
(298,79,cs),
(162,79,o),
(77,176,o),
(101,312,cs),
(131,479,o),
(262,557,o),
(415,557,cs),
(483,557,l),
(513,724,l),
(761,724,l),
(764,740,l),
(40,740,l)
);
}
);
width = 654;
}
);
note = dvTT_RA;
},
{
glyphname = dvTTH_RA;
lastChange = "2022-10-20 16:08:56 +0000";
layers = (
{
layerId = m01;
shapes = (
{
closed = 1;
nodes = (
(162,79,o),
(77,176,o),
(101,311,cs),
(125,447,o),
(244,543,o),
(380,543,cs),
(516,543,o),
(601,447,o),
(577,311,cs),
(553,176,o),
(434,79,o),
(298,79,cs)
);
},
{
closed = 1;
nodes = (
(439,-107,l),
(462,-107,l),
(316,64,l),
(453,73,o),
(570,173,o),
(594,311,cs),
(619,453,o),
(532,555,o),
(391,559,c),
(420,724,l),
(787,724,l),
(790,740,l),
(40,740,l),
(37,724,l),
(403,724,l),
(374,559,l),
(232,555,o),
(109,453,o),
(84,311,cs),
(60,173,o),
(141,72,o),
(275,64,c),
(69,-107,l),
(92,-107,l),
(295,62,l)
);
}
);
width = 680;
}
);
note = dvTTH_RA;
},
{
glyphname = dvDD_RA;
lastChange = "2022-10-20 16:08:56 +0000";
layers = (
{
layerId = m01;
shapes = (
{
closed = 1;
nodes = (
(43,724,l),
(514,724,l),
(486,562,l),
(334,562,ls),
(251,562,o),
(150,535,o),
(131,429,cs),
(115,338,o),
(181,298,o),
(273,298,cs),
(318,298,ls),
(407,298,o),
(501,268,o),
(480,150,cs),
(466,72,o),
(398,7,o),
(274,7,cs),
(124,7,o),
(71,88,o),
(88,184,c),
(71,184,l),
(53,83,o),
(107,3,o),
(240,-8,c),
(33,-179,l),
(56,-179,l),
(259,-10,l),
(403,-179,l),
(426,-179,l),
(280,-9,l),
(407,-6,o),
(482,64,o),
(497,150,cs),
(519,276,o),
(422,314,o),
(322,314,cs),
(277,314,ls),
(200,314,o),
(133,343,o),
(148,429,cs),
(166,528,o),
(263,546,o),
(339,546,cs),
(500,546,l),
(531,724,l),
(695,724,l),
(698,740,l),
(46,740,l)
);
}
);
width = 582;
}
);
note = dvDD_RA;
},
{
glyphname = dvDDH_RA;
lastChange = "2022-10-20 16:08:56 +0000";
layers = (
{
layerId = m01;
shapes = (
{
closed = 1;
nodes = (
(40,724,l),
(517,724,l),
(491,573,l),
(432,573,ls),
(265,573,o),
(119,487,o),
(85,294,cs),
(58,145,o),
(144,39,o),
(284,25,c),
(77,-147,l),
(100,-147,l),
(303,22,l),
(447,-147,l),
(470,-147,l),
(324,23,l),
(449,23,o),
(552,102,o),
(571,211,cs),
(587,304,o),
(536,371,o),
(442,371,cs),
(364,371,o),
(289,319,o),
(274,233,cs),
(273,226,o),
(272,216,o),
(272,210,c),
(289,210,l),
(289,216,o),
(289,225,o),
(291,232,cs),
(304,308,o),
(372,355,o),
(439,355,cs),
(521,355,o),
(569,294,o),
(554,211,cs),
(536,112,o),
(440,39,o),
(322,39,cs),
(171,39,o),
(75,143,o),
(102,295,cs),
(133,474,o),
(270,557,o),
(429,557,cs),
(505,557,l),
(534,724,l),
(738,724,l),
(741,740,l),
(43,740,l)
);
}
);
width = 628;
}
);
note = dvDDH_RA;
},
{
glyphname = dvNN_RA;
lastChange = "2022-10-20 16:08:56 +0000";
layers = (
{
layerId = m01;
shapes = (
{
closed = 1;
nodes = (
(163,301,o),
(119,369,o),
(136,465,cs),
(181,724,l),
(473,724,l),
(428,465,ls),
(411,369,o),
(345,301,o),
(253,301,cs)
);
},
{
closed = 1;
nodes = (
(29,724,l),
(164,724,l),
(119,466,ls),
(100,360,o),
(148,285,o),
(249,285,cs),
(353,285,o),
(426,360,o),
(445,466,cs),
(490,724,l),
(740,724,l),
(671,331,l),
(259,-20,l),
(281,-20,l),
(667,309,l),
(613,0,l),
(630,0,l),
(757,724,l),
(919,724,l),
(922,740,l),
(32,740,l)
);
}
);
width = 820;
}
);
note = dvNN_RA;
},
{
glyphname = dvT_RA;
lastChange = "2022-10-20 16:08:56 +0000";
layers = (
{
layerId = m01;
shapes = (
{
closed = 1;
nodes = (
(27,724,l),
(599,724,l),
(544,412,l),
(523,474,o),
(466,543,o),
(345,543,cs),
(218,543,o),
(101,462,o),
(75,313,c),
(92,313,l),
(116,450,o),
(225,527,o),
(342,527,cs),
(457,527,o),
(526,459,o),
(537,370,c),
(105,2,l),
(105,0,l),
(125,0,l),
(533,348,l),
(472,0,l),
(489,0,l),
(616,724,l),
(778,724,l),
(781,740,l),
(30,740,l)
);
}
);
width = 681;
}
);
note = dvT_RA;
},
{
glyphname = dvTH_RA;
lastChange = "2022-10-20 16:08:56 +0000";
layers = (
{
layerId = m01;
shapes = (
{
closed = 1;
nodes = (
(538,0,l),
(555,0,l),
(683,724,l),
(845,724,l),
(847,740,l),
(668,740,l),
(598,343,ls),
(576,215,o),
(452,130,o),
(326,130,cs),
(162,130,o),
(92,231,o),
(127,395,c),
(220,395,ls),
(340,395,o),
(469,434,o),
(495,581,cs),
(512,674,o),
(462,749,o),
(358,749,cs),
(251,749,o),
(172,678,o),
(155,577,cs),
(152,560,o),
(150,540,o),
(150,525,c),
(167,525,l),
(167,542,o),
(168,559,o),
(171,575,cs),
(188,668,o),
(256,733,o),
(355,733,cs),
(450,733,o),
(493,665,o),
(478,581,cs),
(453,439,o),
(323,411,o),
(223,411,cs),
(115,411,l),
(112,399,o),
(109,387,o),
(107,376,cs),
(79,217,o),
(155,114,o),
(322,114,cs),
(356,114,o),
(387,119,o),
(415,128,c),
(118,-76,l),
(118,-78,l),
(140,-78,l),
(493,164,ls),
(536,192,o),
(567,229,o),
(584,264,c)
);
}
);
width = 741;
}
);
note = dvTH_RA;
},
{
glyphname = dvD_RA;
lastChange = "2022-10-20 16:08:56 +0000";
layers = (
{
layerId = m01;
shapes = (
{
closed = 1;
nodes = (
(31,724,l),
(520,724,l),
(496,588,l),
(392,588,ls),
(251,588,o),
(114,515,o),
(86,355,cs),
(63,221,o),
(131,129,o),
(272,129,cs),
(301,129,o),
(330,134,o),
(356,143,c),
(112,-43,l),
(135,-43,l),
(426,179,ls),
(427,180,o),
(428,181,o),
(430,182,cs),
(431,183,l),
(431,183,l),
(452,199,o),
(468,219,o),
(480,240,c),
(438,0,l),
(455,0,l),
(511,321,l),
(496,321,l),
(474,193,o),
(357,145,o),
(277,145,cs),
(148,145,o),
(81,228,o),
(103,355,cs),
(129,502,o),
(256,572,o),
(389,572,cs),
(510,572,l),
(537,724,l),
(708,724,l),
(711,740,l),
(34,740,l)
);
}
);
width = 607;
}
);
note = dvD_RA;
},
{
glyphname = dvDH_RA;
lastChange = "2022-10-20 16:08:56 +0000";
layers = (
{
layerId = m01;
shapes = (
{
closed = 1;
nodes = (
(308,116,o),
(342,122,o),
(375,134,c),
(122,-58,l),
(146,-58,l),
(449,173,ls),
(485,200,o),
(516,234,o),
(538,275,c),
(489,0,l),
(506,0,l),
(634,724,l),
(796,724,l),
(799,740,l),
(620,740,l),
(553,364,ls),
(529,227,o),
(405,132,o),
(274,132,cs),
(171,132,o),
(91,180,o),
(109,284,cs),
(123,361,o),
(186,424,o),
(305,424,cs),
(359,424,l),
(362,440,l),
(308,440,ls),
(190,440,o),
(143,504,o),
(159,593,cs),
(172,671,o),
(234,733,o),
(322,733,cs),
(411,733,o),
(447,671,o),
(435,601,cs),
(434,596,o),
(433,587,o),
(429,573,c),
(446,573,l),
(449,585,o),
(451,595,o),
(452,600,cs),
(467,687,o),
(420,749,o),
(325,749,cs),
(229,749,o),
(157,681,o),
(142,594,cs),
(124,495,o),
(180,444,o),
(246,432,c),
(246,430,l),
(180,424,o),
(108,372,o),
(92,284,cs),
(73,173,o),
(154,116,o),
(272,116,cs)
);
}
);
width = 694;
}
);
note = dvDH_RA;
},
{
glyphname = dvN_RA;
lastChange = "2022-10-20 16:08:56 +0000";
layers = (
{
layerId = m01;
shapes = (
{
closed = 1;
nodes = (
(130,176,o),
(75,241,o),
(91,334,cs),
(108,430,o),
(188,495,o),
(286,495,cs),
(381,495,o),
(438,429,o),
(421,336,cs),
(405,242,o),
(325,176,o),
(230,176,cs)
);
},
{
closed = 1;
nodes = (
(33,724,l),
(704,724,l),
(666,511,l),
(291,511,ls),
(180,511,o),
(93,440,o),
(74,334,cs),
(56,233,o),
(115,160,o),
(227,160,cs),
(333,160,o),
(420,233,o),
(438,336,cs),
(453,418,o),
(413,477,o),
(357,496,c),
(664,496,l),
(627,289,l),
(217,-60,l),
(239,-60,l),
(623,267,l),
(576,0,l),
(593,0,l),
(721,724,l),
(883,724,l),
(886,740,l),
(36,740,l)
);
}
);
width = 780;
}
);
note = dvN_RA;
},
{
glyphname = dvP_RA;
lastChange = "2022-10-20 16:08:56 +0000";
layers = (
{
layerId = m01;
shapes = (
{
closed = 1;
nodes = (
(154,247,o),
(110,330,o),
(134,469,cs),
(179,724,l),
(553,724,l),
(502,435,ls),
(484,333,o),
(403,247,o),
(285,247,cs)
);
},
{
closed = 1;
nodes = (
(27,724,l),
(162,724,l),
(117,469,ls),
(91,320,o),
(143,231,o),
(281,231,cs),
(309,231,o),
(335,235,o),
(360,243,c),
(56,1,l),
(79,1,l),
(421,275,l),
(449,295,o),
(472,322,o),
(488,352,c),
(426,0,l),
(443,0,l),
(570,724,l),
(732,724,l),
(735,740,l),
(30,740,l)
);
}
);
width = 635;
}
);
note = dvP_RA;
},
{
glyphname = dvPH_RA;
lastChange = "2022-10-20 16:08:56 +0000";
layers = (
{
layerId = m01;
shapes = (
{
closed = 1;
nodes = (
(151,247,o),
(110,330,o),
(134,469,cs),
(179,724,l),
(533,724,l),
(482,435,ls),
(464,333,o),
(387,247,o),
(275,247,cs)
);
},
{
closed = 1;
nodes = (
(27,724,l),
(162,724,l),
(117,469,ls),
(91,320,o),
(140,231,o),
(271,231,cs),
(296,231,o),
(319,235,o),
(340,242,c),
(38,0,l),
(61,0,l),
(405,276,ls),
(431,296,o),
(453,322,o),
(468,352,c),
(406,0,l),
(423,0,l),
(485,351,ls),
(502,449,o),
(578,568,o),
(722,568,cs),
(828,568,o),
(905,490,o),
(882,359,cs),
(858,221,o),
(759,143,o),
(650,143,cs),
(631,143,o),
(610,145,o),
(594,149,c),
(591,133,l),
(604,130,o),
(626,127,o),
(647,127,cs),
(766,127,o),
(873,212,o),
(899,359,cs),
(924,499,o),
(841,584,o),
(725,584,cs),
(611,584,o),
(537,515,o),
(500,438,c),
(550,724,l),
(1083,724,l),
(1086,740,l),
(30,740,l)
);
}
);
width = 986;
}
);
note = dvPH_RA;
},
{
glyphname = dvB_RA;
lastChange = "2022-10-20 16:08:56 +0000";
layers = (
{
layerId = m01;
shapes = (
{
closed = 1;
nodes = (
(461,180,ls),
(492,205,o),
(515,234,o),
(531,264,c),
(485,0,l),
(502,0,l),
(629,724,l),
(791,724,l),
(794,740,l),
(34,740,l),
(31,724,l),
(612,724,l),
(563,444,l),
(549,523,o),
(487,593,o),
(367,593,cs),
(235,593,o),
(112,502,o),
(86,353,cs),
(60,207,o),
(156,120,o),
(287,120,cs),
(322,120,o),
(354,126,o),
(382,137,c),
(142,-46,l),
(165,-46,l)
);
},
{
closed = 1;
nodes = (
(518,577,o),
(566,458,o),
(547,355,cs),
(539,307,o),
(512,251,o),
(467,207,c),
(199,519,l),
(246,557,o),
(305,577,o),
(365,577,cs)
);
},
{
closed = 1;
nodes = (
(168,136,o),
(79,215,o),
(103,353,cs),
(115,418,o),
(145,470,o),
(186,508,c),
(455,196,l),
(413,160,o),
(359,136,o),
(290,136,cs)
);
}
);
width = 690;
}
);
note = dvB_RA;
},
{
glyphname = dvBH_RA;
lastChange = "2022-10-20 16:08:56 +0000";
layers = (
{
layerId = m01;
shapes = (
{
closed = 1;
nodes = (
(140,172,o),
(91,223,o),
(104,300,cs),
(118,379,o),
(188,429,o),
(275,429,cs),
(397,429,l),
(382,344,ls),
(363,234,o),
(301,172,o),
(219,172,cs)
);
},
{
closed = 1;
nodes = (
(305,156,o),
(377,221,o),
(399,345,cs),
(414,429,l),
(634,429,l),
(609,290,l),
(198,-60,l),
(222,-60,l),
(605,267,l),
(558,0,l),
(575,0,l),
(703,724,l),
(865,724,l),
(868,740,l),
(689,740,l),
(637,445,l),
(417,445,l),
(436,557,ls),
(457,676,o),
(424,749,o),
(327,749,cs),
(245,749,o),
(176,690,o),
(159,592,cs),
(156,578,o),
(156,563,o),
(155,548,c),
(172,548,l),
(172,564,o),
(173,578,o),
(176,592,cs),
(191,681,o),
(252,732,o),
(324,732,cs),
(412,732,o),
(438,664,o),
(419,556,cs),
(400,445,l),
(278,445,ls),
(180,445,o),
(103,388,o),
(87,300,cs),
(72,215,o),
(123,156,o),
(216,156,cs)
);
}
);
width = 743;
}
);
note = dvBH_RA;
},
{
glyphname = dvM_RA;
lastChange = "2022-10-20 16:08:56 +0000";
layers = (
{
layerId = m01;
shapes = (
{
closed = 1;
nodes = (
(102,182,o),
(54,237,o),
(68,320,cs),
(83,405,o),
(154,459,o),
(241,459,cs),
(363,459,l),
(344,354,ls),
(325,244,o),
(263,182,o),
(181,182,cs)
);
},
{
closed = 1;
nodes = (
(615,475,l),
(383,475,l),
(427,724,l),
(659,724,l)
);
},
{
closed = 1;
nodes = (
(33,724,l),
(410,724,l),
(366,475,l),
(244,475,ls),
(146,475,o),
(68,414,o),
(51,320,cs),
(35,229,o),
(85,166,o),
(178,166,cs),
(270,166,o),
(339,228,o),
(362,355,cs),
(380,459,l),
(612,459,l),
(583,292,l),
(168,-60,l),
(192,-60,l),
(578,269,l),
(531,0,l),
(548,0,l),
(676,724,l),
(838,724,l),
(841,740,l),
(36,740,l)
);
}
);
width = 735;
}
);
note = dvM_RA;
},
{
glyphname = dvY_RA;
lastChange = "2022-10-20 16:08:56 +0000";
layers = (
{
layerId = m01;
shapes = (
{
closed = 1;
nodes = (
(155,154,o),
(81,253,o),
(111,420,cs),
(112,424,o),
(113,431,o),
(115,439,c),
(118,439,ls),
(246,439,o),
(350,480,o),
(377,635,cs),
(393,724,l),
(644,724,l),
(581,368,ls),
(558,238,o),
(433,154,o),
(308,154,cs)
);
},
{
closed = 1;
nodes = (
(33,724,l),
(376,724,l),
(360,635,ls),
(334,486,o),
(233,455,o),
(121,455,cs),
(103,455,l),
(100,445,o),
(97,431,o),
(95,420,cs),
(65,249,o),
(138,138,o),
(304,138,cs),
(338,138,o),
(369,143,o),
(398,152,c),
(95,-56,l),
(95,-58,l),
(117,-58,l),
(474,187,ls),
(517,215,o),
(548,251,o),
(566,285,c),
(516,0,l),
(533,0,l),
(661,724,l),
(823,724,l),
(825,740,l),
(35,740,l)
);
}
);
width = 720;
}
);
note = dvY_RA;
},
{
glyphname = dvL_RA;
lastChange = "2022-10-20 16:08:56 +0000";
layers = (
{
layerId = m01;
shapes = (
{
closed = 1;
nodes = (
(702,104,o),
(793,208,o),
(817,341,cs),
(838,461,o),
(796,556,o),
(681,560,c),
(710,724,l),
(1004,724,l),
(1007,740,l),
(42,740,l),
(39,724,l),
(693,724,l),
(664,560,l),
(549,555,o),
(488,463,o),
(464,387,c),
(462,387,l),
(465,464,o),
(435,560,o),
(321,560,cs),
(196,560,o),
(114,467,o),
(92,341,cs),
(68,208,o),
(123,104,o),
(270,104,cs),
(281,104,o),
(292,105,o),
(303,106,c),
(306,123,l),
(295,122,o),
(285,121,o),
(275,121,cs),
(137,121,o),
(87,217,o),
(109,341,cs),
(129,456,o),
(203,544,o),
(319,544,cs),
(426,544,o),
(465,448,o),
(439,303,cs),
(438,295,l),
(455,295,l),
(456,303,ls),
(482,451,o),
(558,544,o),
(671,544,cs),
(782,544,o),
(819,452,o),
(800,341,cs),
(778,217,o),
(694,121,o),
(556,121,cs),
(546,121,o),
(536,122,o),
(525,123,c),
(522,106,l),
(533,105,o),
(544,104,o),
(555,104,cs)
);
},
{
closed = 1;
nodes = (
(294,-135,l),
(317,-135,l),
(520,34,l),
(664,-135,l),
(687,-135,l),
(533,44,l),
(510,44,l)
);
}
);
width = 895;
}
);
note = dvL_RA;
},
{
glyphname = dvV_RA;
lastChange = "2022-10-20 16:08:56 +0000";
layers = (
{
layerId = m01;
shapes = (
{
closed = 1;
nodes = (
(160,141,o),
(79,220,o),
(104,359,cs),
(127,493,o),
(240,572,o),
(357,572,cs),
(514,572,o),
(556,455,o),
(538,355,cs),
(538,354,ls),
(522,262,o),
(438,141,o),
(281,141,cs)
);
},
{
closed = 1;
nodes = (
(782,724,l),
(785,740,l),
(34,740,l),
(31,724,l),
(603,724,l),
(553,441,l),
(541,519,o),
(484,588,o),
(360,588,cs),
(233,588,o),
(112,501,o),
(87,359,cs),
(61,211,o),
(148,125,o),
(279,125,cs),
(313,125,o),
(344,130,o),
(372,140,c),
(132,-43,l),
(155,-43,l),
(447,180,l),
(447,180,l),
(481,205,o),
(506,237,o),
(523,271,c),
(476,0,l),
(493,0,l),
(620,724,l)
);
}
);
width = 681;
}
);
note = dvV_RA;
},
{
glyphname = dvSH_RA;
lastChange = "2022-10-20 16:08:56 +0000";
layers = (
{
layerId = m01;
shapes = (
{
closed = 1;
nodes = (
(264,399,ls),
(183,450,o),
(151,507,o),
(171,595,cs),
(187,667,o),
(258,733,o),
(346,733,cs),
(443,733,o),
(488,662,o),
(474,587,cs),
(460,504,o),
(408,452,o),
(330,400,cs),
(298,378,l)
);
},
{
closed = 1;
nodes = (
(546,0,l),
(563,0,l),
(691,724,l),
(853,724,l),
(855,740,l),
(676,740,l),
(581,199,l),
(311,369,l),
(338,387,ls),
(420,442,o),
(476,500,o),
(491,586,cs),
(506,670,o),
(456,749,o),
(349,749,cs),
(244,749,o),
(167,669,o),
(152,583,cs),
(137,498,o),
(174,436,o),
(255,385,cs),
(283,368,l),
(38,203,l),
(37,200,l),
(58,200,l),
(296,359,l),
(479,244,l),
(172,2,l),
(172,0,l),
(193,0,l),
(492,236,l),
(578,182,l)
);
}
);
width = 756;
}
);
note = dvSH_RA;
},
{
glyphname = dvSS_RA;
lastChange = "2022-10-20 16:08:56 +0000";
layers = (
{
layerId = m01;
shapes = (
{
closed = 1;
nodes = (
(154,247,o),
(110,330,o),
(134,469,cs),
(176,703,l),
(482,371,l),
(447,299,o),
(377,247,o),
(285,247,cs)
);
},
{
closed = 1;
nodes = (
(502,435,ls),
(500,419,o),
(495,403,o),
(489,388,c),
(179,724,l),
(553,724,l)
);
},
{
closed = 1;
nodes = (
(27,724,l),
(162,724,l),
(117,469,ls),
(91,320,o),
(143,231,o),
(281,231,cs),
(309,231,o),
(335,235,o),
(360,243,c),
(56,1,l),
(79,1,l),
(421,275,l),
(449,295,o),
(472,322,o),
(488,352,c),
(426,0,l),
(443,0,l),
(570,724,l),
(732,724,l),
(735,740,l),
(30,740,l)
);
}
);
width = 635;
}
);
note = dvSS_RA;
},
{
glyphname = dvS_RA;
lastChange = "2022-10-20 16:08:56 +0000";
layers = (
{
layerId = m01;
shapes = (
{
closed = 1;
nodes = (
(490,724,l),
(764,724,l),
(708,409,l),
(301,409,l),
(380,430,o),
(450,497,o),
(470,611,cs)
);
},
{
closed = 1;
nodes = (
(32,724,l),
(474,724,l),
(454,611,ls),
(432,487,o),
(341,410,o),
(221,410,cs),
(111,410,l),
(70,175,ls),
(51,66,o),
(90,-9,o),
(197,-9,cs),
(289,-9,o),
(358,64,o),
(379,178,cs),
(380,189,l),
(363,189,l),
(362,178,ls),
(343,75,o),
(280,7,o),
(199,7,cs),
(103,7,o),
(70,77,o),
(87,174,cs),
(126,394,l),
(706,394,l),
(692,318,l),
(358,-50,l),
(379,-50,l),
(687,290,l),
(636,0,l),
(653,0,l),
(781,724,l),
(943,724,l),
(946,740,l),
(35,740,l)
);
}
);
width = 841;
}
);
note = dvS_RA;
},
{
glyphname = dvH_RA;
lastChange = "2022-10-20 16:08:56 +0000";
layers = (
{
layerId = m01;
shapes = (
{
closed = 1;
nodes = (
(449,26,l),
(422,-32,o),
(348,-102,o),
(235,-102,cs),
(99,-102,o),
(50,-5,o),
(70,105,cs),
(89,213,o),
(177,311,o),
(303,311,cs),
(388,311,o),
(436,268,o),
(454,225,c),
(287,89,l),
(310,89,l),
(473,222,l),
(456,274,o),
(405,327,o),
(306,327,cs),
(286,327,o),
(267,325,o),
(248,320,c),
(186,335,o),
(141,373,o),
(153,440,cs),
(167,522,o),
(242,549,o),
(319,549,cs),
(511,549,l),
(542,724,l),
(695,724,l),
(698,740,l),
(41,740,l),
(38,724,l),
(525,724,l),
(497,565,l),
(322,565,ls),
(233,565,o),
(152,531,o),
(136,440,cs),
(122,361,o),
(177,324,o),
(220,312,c),
(129,279,o),
(68,194,o),
(53,105,cs),
(32,-11,o),
(83,-119,o),
(232,-119,cs),
(359,-119,o),
(437,-38,o),
(466,26,c)
);
}
);
width = 587;
}
);
note = dvH_RA;
},
{
glyphname = dvLL_RA;
lastChange = "2022-10-20 16:08:56 +0000";
layers = (
{
layerId = m01;
shapes = (
{
closed = 1;
nodes = (
(153,149,o),
(81,231,o),
(102,351,cs),
(124,478,o),
(225,560,o),
(341,560,cs),
(463,560,o),
(527,474,o),
(505,351,cs),
(484,234,o),
(389,149,o),
(269,149,cs)
);
},
{
closed = 1;
nodes = (
(569,149,o),
(504,234,o),
(525,351,cs),
(547,474,o),
(641,560,o),
(763,560,cs),
(879,560,o),
(950,478,o),
(928,351,cs),
(907,231,o),
(805,149,o),
(689,149,cs)
);
},
{
closed = 1;
nodes = (
(831,-37,l),
(854,-37,l),
(708,134,l),
(826,144,o),
(924,232,o),
(945,351,cs),
(968,482,o),
(896,570,o),
(779,576,c),
(805,724,l),
(1131,724,l),
(1134,740,l),
(34,740,l),
(31,724,l),
(788,724,l),
(762,576,l),
(639,576,o),
(560,494,o),
(528,417,c),
(526,417,l),
(520,494,o),
(471,576,o),
(344,576,cs),
(219,576,o),
(109,487,o),
(85,351,cs),
(63,225,o),
(138,133,o),
(266,133,cs),
(383,133,o),
(473,210,o),
(504,294,c),
(506,294,l),
(507,215,o),
(563,141,o),
(668,134,c),
(461,-37,l),
(484,-37,l),
(687,132,l)
);
}
);
width = 1030;
}
);
note = dvLL_RA;
},
{
glyphname = dvKx_RA;
lastChange = "2022-10-20 16:08:56 +0000";
layers = (
{
layerId = m01;
shapes = (
{
closed = 1;
nodes = (
(466,0,l),
(482,0,l),
(544,351,ls),
(561,449,o),
(637,568,o),
(781,568,cs),
(887,568,o),
(964,490,o),
(941,359,cs),
(917,221,o),
(818,143,o),
(709,143,cs),
(690,143,o),
(669,145,o),
(653,149,c),
(650,133,l),
(663,130,o),
(685,127,o),
(706,127,cs),
(825,127,o),
(932,212,o),
(958,359,cs),
(983,499,o),
(900,584,o),
(784,584,cs),
(671,584,o),
(597,517,o),
(559,440,c),
(609,724,l),
(1142,724,l),
(1145,740,l),
(34,740,l),
(31,724,l),
(593,724,l),
(544,443,l),
(532,518,o),
(480,584,o),
(366,584,cs),
(246,584,o),
(132,499,o),
(107,359,cs),
(81,212,o),
(162,127,o),
(285,127,cs),
(314,127,o),
(341,131,o),
(365,139,c),
(122,-46,l),
(145,-46,l),
(430,172,ls),
(467,198,o),
(495,232,o),
(513,268,c)
);
},
{
closed = 1;
nodes = (
(175,143,o),
(100,221,o),
(124,359,cs),
(147,490,o),
(253,568,o),
(363,568,cs),
(509,568,o),
(546,453,o),
(528,355,cs),
(528,354,ls),
(512,263,o),
(434,143,o),
(288,143,cs)
);
},
{
closed = 1;
nodes = (
(45,47,o),
(57,57,o),
(59,71,cs),
(62,85,o),
(54,95,o),
(40,95,cs),
(25,95,o),
(13,85,o),
(10,71,cs),
(8,57,o),
(16,47,o),
(31,47,cs)
);
}
);
width = 1041;
}
);
note = dvKx_RA;
},
{
glyphname = dvKHx_RA;
lastChange = "2022-10-20 16:08:56 +0000";
layers = (
{
layerId = m01;
shapes = (
{
closed = 1;
nodes = (
(713,0,l),
(730,0,l),
(858,724,l),
(1020,724,l),
(1023,740,l),
(44,740,l),
(41,724,l),
(369,724,l),
(340,563,ls),
(315,419,o),
(231,394,o),
(162,394,cs),
(118,394,l),
(86,214,ls),
(63,82,o),
(136,0,o),
(268,0,cs),
(297,0,o),
(324,5,o),
(349,13,c),
(136,-149,l),
(135,-151,l),
(155,-151,l),
(430,59,l),
(430,59,l),
(466,88,o),
(493,125,o),
(513,164,c),
(528,161,o),
(544,159,o),
(561,159,cs),
(660,159,o),
(730,218,o),
(763,285,c)
);
},
{
closed = 1;
nodes = (
(462,175,o),
(391,244,o),
(413,366,cs),
(433,481,o),
(531,549,o),
(630,549,cs),
(759,549,o),
(792,448,o),
(777,362,cs),
(777,361,ls),
(762,280,o),
(693,175,o),
(564,175,cs)
);
},
{
closed = 1;
nodes = (
(51,-83,o),
(63,-73,o),
(66,-59,cs),
(68,-45,o),
(60,-35,o),
(46,-35,cs),
(31,-35,o),
(19,-45,o),
(17,-59,cs),
(14,-73,o),
(22,-83,o),
(37,-83,cs)
);
},
{
closed = 1;
nodes = (
(147,16,o),
(82,94,o),
(103,214,cs),
(132,378,l),
(139,378,o),
(146,378,o),
(153,378,cs),
(241,378,o),
(330,410,o),
(357,563,cs),
(386,724,l),
(841,724,l),
(791,441,l),
(780,507,o),
(734,565,o),
(633,565,cs),
(522,565,o),
(417,490,o),
(396,366,cs),
(377,260,o),
(422,191,o),
(499,168,c),
(457,87,o),
(377,16,o),
(272,16,cs)
);
}
);
width = 909;
}
);
note = dvKHx_RA;
},
{
glyphname = dvGx_RA;
lastChange = "2022-10-20 16:08:56 +0000";
layers = (
{
layerId = m01;
shapes = (
{
closed = 1;
nodes = (
(476,0,l),
(493,0,l),
(620,724,l),
(782,724,l),
(785,740,l),
(32,740,l),
(29,724,l),
(361,724,l),
(314,454,ls),
(303,393,o),
(268,329,o),
(181,329,cs),
(98,329,o),
(82,394,o),
(92,451,cs),
(98,482,l),
(81,482,l),
(75,452,ls),
(63,383,o),
(87,313,o),
(178,313,cs),
(272,313,o),
(318,380,o),
(331,454,cs),
(378,724,l),
(603,724,l),
(534,332,l),
(121,-20,l),
(143,-20,l),
(530,310,l)
);
},
{
closed = 1;
nodes = (
(53,107,o),
(65,117,o),
(68,131,cs),
(70,145,o),
(62,155,o),
(48,155,cs),
(33,155,o),
(21,145,o),
(19,131,cs),
(16,117,o),
(24,107,o),
(39,107,cs)
);
}
);
width = 683;
}
);
note = dvGx_RA;
},
{
glyphname = dvJx_RA;
lastChange = "2022-10-20 16:08:56 +0000";
layers = (
{
layerId = m01;
shapes = (
{
closed = 1;
nodes = (
(29,724,l),
(743,724,l),
(705,509,l),
(431,509,l),
(414,409,ls),
(397,313,o),
(328,245,o),
(236,245,cs),
(148,245,o),
(105,313,o),
(122,409,cs),
(139,509,l),
(122,509,l),
(105,410,ls),
(86,304,o),
(133,229,o),
(232,229,cs),
(336,229,o),
(412,304,o),
(431,410,cs),
(445,493,l),
(702,493,l),
(674,332,l),
(261,-20,l),
(283,-20,l),
(670,310,l),
(616,0,l),
(633,0,l),
(760,724,l),
(922,724,l),
(925,740,l),
(32,740,l)
);
},
{
closed = 1;
nodes = (
(91,37,o),
(103,47,o),
(105,61,cs),
(108,75,o),
(100,85,o),
(86,85,cs),
(71,85,o),
(59,75,o),
(56,61,cs),
(54,47,o),
(62,37,o),
(77,37,cs)
);
}
);
width = 823;
}
);
note = dvJx_RA;
},
{
glyphname = dvPHx_RA;
lastChange = "2022-10-20 16:08:56 +0000";
layers = (
{
layerId = m01;
shapes = (
{
closed = 1;
nodes = (
(191,247,o),
(150,330,o),
(174,469,cs),
(219,724,l),
(573,724,l),
(522,435,ls),
(504,333,o),
(427,247,o),
(315,247,cs)
);
},
{
closed = 1;
nodes = (
(27,724,l),
(202,724,l),
(157,469,ls),
(131,320,o),
(180,231,o),
(311,231,cs),
(336,231,o),
(359,235,o),
(380,242,c),
(78,0,l),
(101,0,l),
(445,276,ls),
(471,296,o),
(493,322,o),
(508,352,c),
(446,0,l),
(463,0,l),
(525,351,ls),
(542,449,o),
(618,568,o),
(762,568,cs),
(868,568,o),
(945,490,o),
(922,359,cs),
(898,221,o),
(799,143,o),
(690,143,cs),
(671,143,o),
(650,145,o),
(634,149,c),
(631,133,l),
(644,130,o),
(666,127,o),
(687,127,cs),
(806,127,o),
(913,212,o),
(939,359,cs),
(964,499,o),
(881,584,o),
(765,584,cs),
(651,584,o),
(577,515,o),
(540,438,c),
(590,724,l),
(1123,724,l),
(1126,740,l),
(30,740,l)
);
},
{
closed = 1;
nodes = (
(37,137,o),
(49,147,o),
(51,161,cs),
(54,175,o),
(45,185,o),
(31,185,cs),
(16,185,o),
(5,175,o),
(2,161,cs),
(0,147,o),
(8,137,o),
(23,137,cs)
);
}
);
width = 1026;
}
);
note = dvPHx_RA;
},
{
glyphname = dvK_R;
lastChange = "2022-10-20 16:08:56 +0000";
layers = (
{
layerId = m01;
shapes = (
{
closed = 1;
nodes = (
(446,0,l),
(462,0,l),
(524,351,ls),
(541,449,o),
(617,568,o),
(761,568,cs),
(867,568,o),
(944,490,o),
(921,359,c),
(938,359,l),
(963,499,o),
(880,584,o),
(764,584,cs),
(651,584,o),
(577,517,o),
(539,440,c),
(589,724,l),
(1002,724,l),
(1005,740,l),
(34,740,l),
(31,724,l),
(573,724,l),
(524,443,l),
(512,518,o),
(460,584,o),
(346,584,cs),
(226,584,o),
(112,499,o),
(87,359,cs),
(61,212,o),
(142,127,o),
(265,127,cs),
(294,127,o),
(321,131,o),
(345,139,c),
(102,-46,l),
(125,-46,l),
(410,172,ls),
(447,198,o),
(475,232,o),
(493,268,c)
);
},
{
closed = 1;
nodes = (
(155,143,o),
(80,221,o),
(104,359,cs),
(127,490,o),
(233,568,o),
(343,568,cs),
(489,568,o),
(526,453,o),
(508,355,cs),
(508,354,ls),
(492,263,o),
(414,143,o),
(268,143,cs)
);
}
);
width = 771;
}
);
note = dvK_R;
},
{
glyphname = dvKH_R;
lastChange = "2022-10-20 16:08:56 +0000";
layers = (
{
layerId = m01;
shapes = (
{
closed = 1;
nodes = (
(41,724,l),
(369,724,l),
(340,563,ls),
(315,419,o),
(231,394,o),
(162,394,cs),
(118,394,l),
(86,214,ls),
(63,82,o),
(136,0,o),
(268,0,cs),
(297,0,o),
(324,5,o),
(349,13,c),
(136,-149,l),
(135,-151,l),
(155,-151,l),
(430,59,l),
(430,59,l),
(466,88,o),
(494,126,o),
(513,165,c),
(530,162,o),
(546,160,o),
(564,160,cs),
(686,160,o),
(784,237,o),
(806,362,cs),
(828,487,o),
(760,565,o),
(636,565,cs),
(513,565,o),
(417,487,o),
(395,362,cs),
(378,264,o),
(418,192,o),
(500,169,c),
(461,90,o),
(379,16,o),
(272,16,cs),
(147,16,o),
(82,94,o),
(103,214,cs),
(132,378,l),
(139,378,o),
(146,378,o),
(153,378,cs),
(241,378,o),
(330,410,o),
(357,563,cs),
(386,724,l),
(870,724,l),
(873,740,l),
(44,740,l)
);
},
{
closed = 1;
nodes = (
(454,176,o),
(392,250,o),
(412,362,cs),
(432,476,o),
(520,549,o),
(633,549,cs),
(747,549,o),
(809,476,o),
(789,362,cs),
(769,250,o),
(681,176,o),
(567,176,cs)
);
}
);
width = 679;
}
);
note = dvKH_R;
},
{
glyphname = dvG_R;
lastChange = "2022-10-20 16:08:56 +0000";
layers = (
{
layerId = m01;
shapes = (
{
closed = 1;
nodes = (
(533,312,l),
(536,334,l),
(121,-20,l),
(143,-20,l)
);
},
{
closed = 1;
nodes = (
(29,724,l),
(361,724,l),
(314,454,ls),
(303,393,o),
(268,329,o),
(181,329,cs),
(98,329,o),
(82,394,o),
(92,451,cs),
(98,482,l),
(81,482,l),
(75,452,ls),
(63,383,o),
(87,313,o),
(178,313,cs),
(272,313,o),
(318,380,o),
(331,454,cs),
(378,724,l),
(605,724,l),
(608,740,l),
(32,740,l)
);
}
);
width = 420;
}
);
note = dvG_R;
},
{
glyphname = dvGH_R;
lastChange = "2022-10-20 16:08:56 +0000";
layers = (
{
layerId = m01;
shapes = (
{
closed = 1;
nodes = (
(33,724,l),
(187,724,l),
(169,622,ls),
(149,513,o),
(203,468,o),
(275,460,c),
(275,458,l),
(190,451,o),
(108,395,o),
(91,299,cs),
(69,178,o),
(152,116,o),
(289,116,cs),
(329,116,o),
(369,123,o),
(404,136,c),
(148,-58,l),
(171,-58,l),
(478,177,ls),
(539,221,o),
(582,287,o),
(596,364,c),
(581,364,l),
(557,227,o),
(429,132,o),
(292,132,cs),
(171,132,o),
(87,185,o),
(108,299,cs),
(122,382,o),
(191,451,o),
(333,451,cs),
(387,451,l),
(390,467,l),
(336,467,ls),
(210,467,o),
(168,521,o),
(186,622,cs),
(204,724,l),
(660,724,l),
(662,740,l),
(35,740,l)
);
}
);
width = 456;
}
);
note = dvGH_R;
},
{
glyphname = dvNG_R;
lastChange = "2022-10-20 16:08:56 +0000";
layers = (
{
layerId = m01;
shapes = (
{
closed = 1;
nodes = (
(618,391,o),
(630,401,o),
(632,415,cs),
(635,429,o),
(627,439,o),
(613,439,cs),
(598,439,o),
(586,429,o),
(583,415,cs),
(581,401,o),
(589,391,o),
(604,391,cs)
);
},
{
closed = 1;
nodes = (
(332,-357,l),
(351,-357,l),
(267,-179,l),
(249,-179,l)
);
},
{
closed = 1;
nodes = (
(59,724,l),
(538,724,l),
(509,562,l),
(349,562,ls),
(266,562,o),
(166,535,o),
(147,429,cs),
(131,338,o),
(197,298,o),
(289,298,cs),
(334,298,ls),
(423,298,o),
(516,268,o),
(496,150,cs),
(482,72,o),
(413,7,o),
(289,7,cs),
(139,7,o),
(87,88,o),
(104,184,c),
(87,184,l),
(69,81,o),
(125,0,o),
(263,-8,c),
(57,-179,l),
(80,-179,l),
(282,-10,l),
(427,-179,l),
(450,-179,l),
(304,-9,l),
(427,-3,o),
(498,66,o),
(513,150,cs),
(535,276,o),
(438,314,o),
(338,314,cs),
(293,314,ls),
(216,314,o),
(149,343,o),
(164,429,cs),
(181,528,o),
(279,546,o),
(355,546,cs),
(524,546,l),
(555,724,l),
(751,724,l),
(754,740,l),
(62,740,l)
);
}
);
width = 622;
}
);
note = dvNG_R;
},
{
glyphname = dvC_R;
lastChange = "2022-10-20 16:08:56 +0000";
layers = (
{
layerId = m01;
shapes = (
{
closed = 1;
nodes = (
(31,724,l),
(654,724,l),
(657,740,l),
(34,740,l)
);
},
{
closed = 1;
nodes = (
(80,525,l),
(321,525,l),
(226,496,o),
(160,421,o),
(143,324,cs),
(119,190,o),
(207,115,o),
(325,115,cs),
(353,115,o),
(381,120,o),
(408,129,c),
(178,-46,l),
(201,-46,l),
(480,167,ls),
(536,208,o),
(576,269,o),
(586,333,c),
(572,333,l),
(553,227,o),
(447,131,o),
(327,131,cs),
(220,131,o),
(138,200,o),
(160,324,cs),
(180,436,o),
(275,525,o),
(408,525,cs),
(437,525,l),
(440,541,l),
(83,541,l)
);
}
);
width = 467;
}
);
note = dvC_R;
},
{
glyphname = dvCH_R;
lastChange = "2022-10-20 16:08:56 +0000";
layers = (
{
layerId = m01;
shapes = (
{
closed = 1;
nodes = (
(39,724,l),
(188,724,l),
(165,589,ls),
(145,480,o),
(199,435,o),
(271,427,c),
(271,425,l),
(181,417,o),
(94,359,o),
(75,251,cs),
(50,110,o),
(163,33,o),
(347,33,cs),
(353,33,o),
(358,33,o),
(364,33,c),
(159,-136,l),
(182,-136,l),
(385,33,l),
(529,-136,l),
(552,-136,l),
(404,36,l),
(587,56,o),
(738,171,o),
(771,356,cs),
(796,499,o),
(722,561,o),
(637,561,cs),
(563,561,o),
(469,520,o),
(448,397,cs),
(442,365,o),
(442,329,o),
(449,290,c),
(466,290,l),
(460,329,o),
(459,365,o),
(465,397,cs),
(485,510,o),
(572,545,o),
(634,545,cs),
(707,545,o),
(777,488,o),
(753,355,cs),
(720,167,o),
(544,49,o),
(349,49,cs),
(182,49,o),
(68,116,o),
(92,251,cs),
(108,342,o),
(181,418,o),
(329,418,cs),
(353,418,l),
(356,434,l),
(332,434,ls),
(206,434,o),
(164,488,o),
(182,589,cs),
(205,724,l),
(920,724,l),
(923,740,l),
(42,740,l)
);
}
);
width = 811;
}
);
note = dvCH_R;
},
{
glyphname = dvJ_R;
lastChange = "2022-10-20 16:08:56 +0000";
layers = (
{
layerId = m01;
shapes = (
{
closed = 1;
nodes = (
(261,-20,l),
(283,-20,l),
(676,315,l),
(680,337,l)
);
},
{
closed = 1;
nodes = (
(29,724,l),
(748,724,l),
(751,740,l),
(32,740,l)
);
},
{
closed = 1;
nodes = (
(336,229,o),
(412,304,o),
(431,410,cs),
(445,493,l),
(707,493,l),
(710,509,l),
(431,509,l),
(414,409,ls),
(397,313,o),
(328,245,o),
(236,245,cs),
(148,245,o),
(105,313,o),
(122,409,cs),
(139,509,l),
(122,509,l),
(105,410,ls),
(86,304,o),
(133,229,o),
(232,229,cs)
);
}
);
width = 541;
}
);
note = dvJ_R;
},
{
glyphname = dvJH_R;
lastChange = "2022-10-20 16:08:56 +0000";
layers = (
{
layerId = m01;
shapes = (
{
closed = 1;
nodes = (
(97,117,l),
(102,88,o),
(140,0,o),
(285,0,cs),
(410,0,o),
(476,70,o),
(490,150,cs),
(506,239,o),
(461,284,o),
(399,300,c),
(672,299,l),
(675,314,l),
(270,314,ls),
(191,314,o),
(123,343,o),
(138,429,cs),
(156,528,o),
(255,546,o),
(332,546,cs),
(501,546,l),
(532,724,l),
(747,724,l),
(750,740,l),
(39,740,l),
(36,724,l),
(515,724,l),
(487,562,l),
(327,562,ls),
(243,562,o),
(140,535,o),
(121,429,cs),
(105,338,o),
(174,298,o),
(266,298,cs),
(311,298,ls),
(432,298,o),
(489,242,o),
(473,150,cs),
(461,80,o),
(402,16,o),
(288,16,cs),
(156,16,o),
(105,92,o),
(105,173,c),
(90,173,l),
(47,-71,l),
(64,-71,l)
);
},
{
closed = 1;
nodes = (
(645,146,l),
(650,175,l),
(415,-100,l),
(436,-100,l)
);
}
);
width = 577;
}
);
note = dvJH_R;
},
{
glyphname = dvNY_R;
lastChange = "2022-10-20 16:08:56 +0000";
layers = (
{
layerId = m01;
shapes = (
{
closed = 1;
nodes = (
(412,151,o),
(499,259,o),
(519,367,c),
(656,367,l),
(658,383,l),
(521,383,l),
(533,484,o),
(484,583,o),
(338,583,cs),
(201,583,o),
(130,497,o),
(101,428,c),
(118,428,l),
(143,489,o),
(211,567,o),
(335,567,cs),
(471,567,o),
(520,473,o),
(502,370,cs),
(483,262,o),
(401,168,o),
(265,168,cs),
(145,168,o),
(95,244,o),
(97,306,c),
(80,306,l),
(78,239,o),
(128,151,o),
(262,151,cs)
);
},
{
closed = 1;
nodes = (
(275,-70,l),
(297,-70,l),
(628,213,l),
(632,235,l)
);
},
{
closed = 1;
nodes = (
(34,724,l),
(719,724,l),
(721,740,l),
(36,740,l)
);
}
);
width = 552;
}
);
note = dvNY_R;
},
{
glyphname = dvTT_R;
lastChange = "2022-10-20 16:08:56 +0000";
layers = (
{
layerId = m01;
shapes = (
{
closed = 1;
nodes = (
(354,-285,l),
(373,-285,l),
(288,-107,l),
(270,-107,l)
);
},
{
closed = 1;
nodes = (
(53,724,l),
(512,724,l),
(485,573,l),
(434,573,ls),
(273,573,o),
(132,492,o),
(100,311,cs),
(76,174,o),
(155,75,o),
(286,64,c),
(79,-107,l),
(102,-107,l),
(305,62,l),
(449,-107,l),
(472,-107,l),
(326,63,l),
(470,70,o),
(585,174,o),
(610,320,c),
(593,320,l),
(568,179,o),
(453,79,o),
(314,79,cs),
(178,79,o),
(93,176,o),
(117,312,cs),
(146,479,o),
(278,557,o),
(431,557,cs),
(499,557,l),
(529,724,l),
(777,724,l),
(779,740,l),
(55,740,l)
);
}
);
width = 654;
}
);
note = dvTT_R;
},
{
glyphname = dvTTH_R;
lastChange = "2022-10-20 16:08:56 +0000";
layers = (
{
layerId = m01;
shapes = (
{
closed = 1;
nodes = (
(178,79,o),
(93,176,o),
(117,311,cs),
(141,447,o),
(260,543,o),
(396,543,cs),
(532,543,o),
(617,447,o),
(593,311,cs),
(569,176,o),
(450,79,o),
(314,79,cs)
);
},
{
closed = 1;
nodes = (
(455,-107,l),
(478,-107,l),
(332,64,l),
(469,73,o),
(585,173,o),
(610,311,cs),
(635,453,o),
(548,555,o),
(406,559,c),
(436,724,l),
(803,724,l),
(805,740,l),
(55,740,l),
(53,724,l),
(419,724,l),
(389,559,l),
(248,555,o),
(125,453,o),
(100,311,cs),
(75,173,o),
(157,72,o),
(291,64,c),
(85,-107,l),
(108,-107,l),
(311,62,l)
);
},
{
closed = 1;
nodes = (
(355,-285,l),
(374,-285,l),
(289,-107,l),
(271,-107,l)
);
}
);
width = 680;
}
);
note = dvTTH_R;
},
{
glyphname = dvDD_R;
lastChange = "2022-10-20 16:08:56 +0000";
layers = (
{
layerId = m01;
shapes = (
{
closed = 1;
nodes = (
(320,-357,l),
(339,-357,l),
(255,-179,l),
(237,-179,l)
);
},
{
closed = 1;
nodes = (
(59,724,l),
(530,724,l),
(501,562,l),
(349,562,ls),
(266,562,o),
(166,535,o),
(147,429,cs),
(131,338,o),
(197,298,o),
(289,298,cs),
(334,298,ls),
(423,298,o),
(516,268,o),
(496,150,cs),
(482,72,o),
(413,7,o),
(289,7,cs),
(139,7,o),
(87,88,o),
(104,184,c),
(87,184,l),
(69,83,o),
(123,3,o),
(256,-8,c),
(49,-179,l),
(72,-179,l),
(274,-10,l),
(419,-179,l),
(442,-179,l),
(296,-9,l),
(423,-6,o),
(498,64,o),
(513,150,cs),
(535,276,o),
(438,314,o),
(338,314,cs),
(293,314,ls),
(216,314,o),
(149,343,o),
(164,429,cs),
(181,528,o),
(279,546,o),
(355,546,cs),
(516,546,l),
(547,724,l),
(711,724,l),
(714,740,l),
(62,740,l)
);
}
);
width = 582;
}
);
note = dvDD_R;
},
{
glyphname = dvDDH_R;
lastChange = "2022-10-20 16:08:56 +0000";
layers = (
{
layerId = m01;
shapes = (
{
closed = 1;
nodes = (
(371,-325,l),
(390,-325,l),
(305,-147,l),
(287,-147,l)
);
},
{
closed = 1;
nodes = (
(56,724,l),
(533,724,l),
(506,573,l),
(447,573,ls),
(280,573,o),
(134,487,o),
(100,294,cs),
(74,145,o),
(159,39,o),
(300,25,c),
(92,-147,l),
(115,-147,l),
(318,22,l),
(462,-147,l),
(485,-147,l),
(339,23,l),
(464,23,o),
(567,102,o),
(587,211,cs),
(603,304,o),
(552,371,o),
(458,371,cs),
(380,371,o),
(305,319,o),
(289,233,cs),
(288,226,o),
(287,216,o),
(287,210,c),
(304,210,l),
(304,216,o),
(305,225,o),
(306,232,cs),
(320,308,o),
(388,355,o),
(455,355,cs),
(537,355,o),
(584,294,o),
(570,211,cs),
(552,112,o),
(455,39,o),
(337,39,cs),
(186,39,o),
(91,143,o),
(117,295,cs),
(149,474,o),
(286,557,o),
(445,557,cs),
(521,557,l),
(550,724,l),
(754,724,l),
(757,740,l),
(59,740,l)
);
}
);
width = 628;
}
);
note = dvDDH_R;
},
{
glyphname = dvNN_R;
lastChange = "2022-10-20 16:08:56 +0000";
layers = (
{
layerId = m01;
shapes = (
{
closed = 1;
nodes = (
(259,-20,l),
(281,-20,l),
(634,281,l),
(638,303,l)
);
},
{
closed = 1;
nodes = (
(29,724,l),
(164,724,l),
(119,466,ls),
(100,360,o),
(148,285,o),
(249,285,cs),
(353,285,o),
(426,360,o),
(445,466,cs),
(490,724,l),
(712,724,l),
(715,740,l),
(32,740,l)
);
},
{
closed = 1;
nodes = (
(163,301,o),
(119,369,o),
(136,465,cs),
(181,724,l),
(473,724,l),
(428,465,ls),
(411,369,o),
(345,301,o),
(253,301,cs)
);
}
);
width = 546;
}
);
note = dvNN_R;
},
{
glyphname = dvT_R;
lastChange = "2022-10-20 16:08:56 +0000";
layers = (
{
layerId = m01;
shapes = (
{
closed = 1;
nodes = (
(92,313,l),
(116,450,o),
(227,527,o),
(347,527,cs),
(462,527,o),
(527,459,o),
(537,370,c),
(105,2,l),
(105,0,l),
(125,0,l),
(554,366,l),
(547,459,o),
(482,543,o),
(350,543,cs),
(220,543,o),
(101,462,o),
(75,313,c)
);
},
{
closed = 1;
nodes = (
(27,724,l),
(617,724,l),
(620,740,l),
(30,740,l)
);
}
);
width = 439;
}
);
note = dvT_R;
},
{
glyphname = dvTH_R;
lastChange = "2022-10-20 16:08:56 +0000";
layers = (
{
layerId = m01;
shapes = (
{
closed = 1;
nodes = (
(598,343,l),
(576,215,o),
(463,130,o),
(326,130,cs),
(162,130,o),
(92,231,o),
(127,395,c),
(220,395,ls),
(340,395,o),
(469,434,o),
(495,581,cs),
(512,674,o),
(462,749,o),
(358,749,cs),
(251,749,o),
(172,678,o),
(155,577,cs),
(152,560,o),
(150,540,o),
(150,525,c),
(167,525,l),
(167,542,o),
(168,559,o),
(171,575,cs),
(188,668,o),
(256,733,o),
(355,733,cs),
(450,733,o),
(493,665,o),
(478,581,cs),
(453,439,o),
(323,411,o),
(223,411,cs),
(115,411,l),
(112,399,o),
(109,387,o),
(107,376,cs),
(79,217,o),
(155,114,o),
(322,114,cs),
(357,114,o),
(390,119,o),
(420,128,c),
(122,-76,l),
(122,-78,l),
(144,-78,l),
(497,164,ls),
(559,205,o),
(602,268,o),
(615,343,c)
);
}
);
width = 469;
}
);
note = dvTH_R;
},
{
glyphname = dvD_R;
lastChange = "2022-10-20 16:08:56 +0000";
layers = (
{
layerId = m01;
shapes = (
{
closed = 1;
nodes = (
(523,-278,l),
(542,-278,l),
(458,-100,l),
(440,-100,l)
);
},
{
closed = 1;
nodes = (
(52,724,l),
(541,724,l),
(517,588,l),
(413,588,ls),
(272,588,o),
(135,515,o),
(107,355,cs),
(83,221,o),
(152,129,o),
(293,129,cs),
(322,129,o),
(351,134,o),
(376,143,c),
(133,-43,l),
(156,-43,l),
(447,179,ls),
(448,180,o),
(449,181,o),
(450,182,cs),
(452,183,l),
(452,183,l),
(472,199,o),
(489,219,o),
(501,240,c),
(458,0,l),
(475,0,l),
(532,321,l),
(517,321,l),
(494,193,o),
(378,145,o),
(298,145,cs),
(169,145,o),
(101,228,o),
(124,355,cs),
(150,502,o),
(277,572,o),
(410,572,cs),
(531,572,l),
(558,724,l),
(729,724,l),
(732,740,l),
(55,740,l)
);
}
);
width = 607;
}
);
note = dvD_R;
},
{
glyphname = dvDH_R;
lastChange = "2022-10-20 16:08:56 +0000";
layers = (
{
layerId = m01;
shapes = (
{
closed = 1;
nodes = (
(315,116,o),
(354,123,o),
(389,135,c),
(135,-58,l),
(159,-58,l),
(460,172,l),
(515,211,o),
(551,268,o),
(563,334,c),
(548,334,l),
(527,215,o),
(415,132,o),
(274,132,cs),
(171,132,o),
(91,180,o),
(109,284,cs),
(123,361,o),
(186,424,o),
(305,424,cs),
(359,424,l),
(362,440,l),
(308,440,ls),
(190,440,o),
(143,504,o),
(159,593,cs),
(172,671,o),
(234,733,o),
(322,733,cs),
(411,733,o),
(447,671,o),
(435,601,cs),
(434,596,o),
(433,587,o),
(429,573,c),
(446,573,l),
(449,585,o),
(451,595,o),
(452,600,cs),
(467,687,o),
(420,749,o),
(325,749,cs),
(229,749,o),
(157,681,o),
(142,594,cs),
(124,495,o),
(180,444,o),
(246,432,c),
(246,430,l),
(180,424,o),
(108,372,o),
(92,284,cs),
(73,173,o),
(154,116,o),
(272,116,cs)
);
}
);
width = 429;
}
);
note = dvDH_R;
},
{
glyphname = dvN_R;
lastChange = "2022-10-20 16:08:56 +0000";
layers = (
{
layerId = m01;
shapes = (
{
closed = 1;
nodes = (
(333,160,o),
(420,233,o),
(438,336,cs),
(453,418,o),
(413,477,o),
(357,496,c),
(671,496,l),
(673,511,l),
(291,511,ls),
(180,511,o),
(93,440,o),
(74,334,cs),
(56,233,o),
(115,160,o),
(227,160,cs)
);
},
{
closed = 1;
nodes = (
(130,176,o),
(75,241,o),
(91,334,cs),
(108,430,o),
(188,495,o),
(286,495,cs),
(381,495,o),
(438,429,o),
(421,336,cs),
(405,242,o),
(325,176,o),
(230,176,cs)
);
},
{
closed = 1;
nodes = (
(217,-60,l),
(239,-60,l),
(631,274,l),
(635,296,l)
);
},
{
closed = 1;
nodes = (
(33,724,l),
(711,724,l),
(714,740,l),
(36,740,l)
);
}
);
width = 505;
}
);
note = dvN_R;
},
{
glyphname = dvP_R;
lastChange = "2022-10-20 16:08:56 +0000";
layers = (
{
layerId = m01;
shapes = (
{
closed = 1;
nodes = (
(27,724,l),
(162,724,l),
(117,469,ls),
(91,320,o),
(143,231,o),
(281,231,cs),
(309,231,o),
(336,235,o),
(361,244,c),
(57,1,l),
(80,1,l),
(420,274,l),
(471,310,o),
(506,367,o),
(518,435,c),
(502,435,l),
(484,333,o),
(403,247,o),
(285,247,cs),
(154,247,o),
(110,330,o),
(134,469,cs),
(179,724,l),
(569,724,l),
(572,740,l),
(30,740,l)
);
}
);
width = 378;
}
);
note = dvP_R;
},
{
glyphname = dvPH_R;
lastChange = "2022-10-20 16:08:56 +0000";
layers = (
{
layerId = m01;
shapes = (
{
closed = 1;
nodes = (
(151,247,o),
(110,330,o),
(134,469,cs),
(179,724,l),
(533,724,l),
(482,435,ls),
(464,333,o),
(387,247,o),
(275,247,cs)
);
},
{
closed = 1;
nodes = (
(27,724,l),
(162,724,l),
(117,469,ls),
(91,320,o),
(140,231,o),
(271,231,cs),
(296,231,o),
(319,235,o),
(340,242,c),
(38,0,l),
(61,0,l),
(405,276,ls),
(431,296,o),
(453,322,o),
(468,352,c),
(406,0,l),
(423,0,l),
(485,351,ls),
(502,449,o),
(578,568,o),
(722,568,cs),
(848,568,o),
(905,490,o),
(882,359,c),
(899,359,l),
(924,499,o),
(861,584,o),
(725,584,cs),
(611,584,o),
(537,515,o),
(500,438,c),
(550,724,l),
(963,724,l),
(966,740,l),
(30,740,l)
);
}
);
width = 771;
}
);
note = dvPH_R;
},
{
glyphname = dvB_R;
lastChange = "2022-10-20 16:08:56 +0000";
layers = (
{
layerId = m01;
shapes = (
{
closed = 1;
nodes = (
(31,724,l),
(628,724,l),
(631,740,l),
(34,740,l)
);
},
{
closed = 1;
nodes = (
(319,120,o),
(350,125,o),
(378,135,c),
(140,-46,l),
(163,-46,l),
(447,171,l),
(509,215,o),
(551,283,o),
(563,355,cs),
(582,461,o),
(533,593,o),
(367,593,cs),
(235,593,o),
(112,502,o),
(86,353,cs),
(60,207,o),
(156,120,o),
(287,120,cs)
);
},
{
closed = 1;
nodes = (
(518,577,o),
(566,458,o),
(547,355,cs),
(539,307,o),
(512,251,o),
(467,207,c),
(199,519,l),
(246,557,o),
(305,577,o),
(365,577,cs)
);
},
{
closed = 1;
nodes = (
(170,136,o),
(79,215,o),
(103,353,cs),
(115,418,o),
(145,470,o),
(186,508,c),
(455,196,l),
(413,160,o),
(359,136,o),
(290,136,cs)
);
}
);
width = 439;
}
);
note = dvB_R;
},
{
glyphname = dvBH_R;
lastChange = "2022-10-20 16:08:56 +0000";
layers = (
{
layerId = m01;
shapes = (
{
closed = 1;
nodes = (
(140,172,o),
(91,223,o),
(104,300,cs),
(118,379,o),
(188,429,o),
(275,429,cs),
(397,429,l),
(382,344,ls),
(363,234,o),
(301,172,o),
(219,172,cs)
);
},
{
closed = 1;
nodes = (
(305,156,o),
(377,221,o),
(399,345,cs),
(414,429,l),
(607,429,l),
(610,445,l),
(417,445,l),
(436,557,ls),
(457,676,o),
(424,749,o),
(327,749,cs),
(245,749,o),
(176,690,o),
(159,592,cs),
(156,578,o),
(156,563,o),
(155,548,c),
(172,548,l),
(172,564,o),
(173,578,o),
(176,592,cs),
(191,681,o),
(252,732,o),
(324,732,cs),
(412,732,o),
(438,664,o),
(419,556,cs),
(400,445,l),
(278,445,ls),
(180,445,o),
(103,388,o),
(87,300,cs),
(72,215,o),
(123,156,o),
(216,156,cs)
);
},
{
closed = 1;
nodes = (
(198,-60,l),
(222,-60,l),
(574,240,l),
(578,263,l)
);
}
);
width = 483;
}
);
note = dvBH_R;
},
{
glyphname = dvM_R;
lastChange = "2022-10-20 16:08:56 +0000";
layers = (
{
layerId = m01;
shapes = (
{
closed = 1;
nodes = (
(102,182,o),
(54,237,o),
(68,320,cs),
(83,405,o),
(154,459,o),
(241,459,cs),
(363,459,l),
(344,354,ls),
(325,244,o),
(263,182,o),
(181,182,cs)
);
},
{
closed = 1;
nodes = (
(168,-60,l),
(192,-60,l),
(574,265,l),
(578,288,l)
);
},
{
closed = 1;
nodes = (
(33,724,l),
(410,724,l),
(366,475,l),
(244,475,ls),
(146,475,o),
(68,414,o),
(51,320,cs),
(35,229,o),
(85,166,o),
(178,166,cs),
(270,166,o),
(339,228,o),
(362,355,cs),
(380,459,l),
(609,459,l),
(612,475,l),
(383,475,l),
(427,724,l),
(657,724,l),
(660,740,l),
(36,740,l)
);
}
);
width = 480;
}
);
note = dvM_R;
},
{
glyphname = dvY_R;
lastChange = "2022-10-20 16:08:56 +0000";
layers = (
{
layerId = m01;
shapes = (
{
closed = 1;
nodes = (
(33,724,l),
(376,724,l),
(360,635,ls),
(334,486,o),
(233,455,o),
(121,455,cs),
(103,455,l),
(100,445,o),
(97,431,o),
(95,420,cs),
(65,249,o),
(138,138,o),
(304,138,cs),
(337,138,o),
(369,143,o),
(399,152,c),
(95,-56,l),
(95,-58,l),
(117,-58,l),
(474,187,l),
(474,187,l),
(537,228,o),
(583,292,o),
(597,368,c),
(581,368,l),
(558,238,o),
(433,154,o),
(308,154,cs),
(155,154,o),
(81,253,o),
(111,420,cs),
(112,424,o),
(113,431,o),
(115,439,c),
(118,439,ls),
(246,439,o),
(350,480,o),
(377,635,cs),
(393,724,l),
(660,724,l),
(662,740,l),
(35,740,l)
);
}
);
width = 458;
}
);
note = dvY_R;
},
{
glyphname = dvL_R;
lastChange = "2022-10-20 16:08:56 +0000";
layers = (
{
layerId = m01;
shapes = (
{
closed = 1;
nodes = (
(718,104,o),
(809,208,o),
(832,341,cs),
(854,461,o),
(811,556,o),
(697,560,c),
(726,724,l),
(1020,724,l),
(1023,740,l),
(58,740,l),
(55,724,l),
(709,724,l),
(680,560,l),
(564,555,o),
(504,463,o),
(480,387,c),
(478,387,l),
(481,464,o),
(451,560,o),
(337,560,cs),
(212,560,o),
(130,467,o),
(107,341,cs),
(84,208,o),
(139,104,o),
(286,104,cs),
(297,104,o),
(308,105,o),
(319,106,c),
(322,123,l),
(311,122,o),
(301,121,o),
(291,121,cs),
(153,121,o),
(103,217,o),
(124,341,cs),
(145,456,o),
(218,544,o),
(334,544,cs),
(441,544,o),
(480,448,o),
(455,303,cs),
(453,295,l),
(470,295,l),
(472,303,ls),
(498,451,o),
(573,544,o),
(686,544,cs),
(797,544,o),
(835,452,o),
(815,341,cs),
(794,217,o),
(710,121,o),
(572,121,cs),
(562,121,o),
(552,122,o),
(541,123,c),
(538,106,l),
(549,105,o),
(560,104,o),
(571,104,cs)
);
},
{
closed = 1;
nodes = (
(310,-135,l),
(333,-135,l),
(535,34,l),
(680,-135,l),
(703,-135,l),
(549,44,l),
(526,44,l)
);
},
{
closed = 1;
nodes = (
(582,-313,l),
(601,-313,l),
(517,-135,l),
(499,-135,l)
);
}
);
width = 895;
}
);
note = dvL_R;
},
{
glyphname = dvV_R;
lastChange = "2022-10-20 16:08:56 +0000";
layers = (
{
layerId = m01;
shapes = (
{
closed = 1;
nodes = (
(161,141,o),
(79,220,o),
(104,359,cs),
(127,493,o),
(241,572,o),
(360,572,cs),
(515,572,o),
(556,455,o),
(538,355,cs),
(522,262,o),
(439,141,o),
(284,141,cs)
);
},
{
closed = 1;
nodes = (
(315,125,o),
(345,130,o),
(373,140,c),
(133,-43,l),
(156,-43,l),
(441,175,l),
(441,175,l),
(507,222,o),
(544,293,o),
(555,355,cs),
(573,458,o),
(530,588,o),
(363,588,cs),
(234,588,o),
(112,501,o),
(87,359,cs),
(61,211,o),
(149,125,o),
(282,125,cs)
);
},
{
closed = 1;
nodes = (
(31,724,l),
(620,724,l),
(623,740,l),
(34,740,l)
);
}
);
width = 426;
}
);
note = dvV_R;
},
{
glyphname = dvSH_R;
lastChange = "2022-10-20 16:08:56 +0000";
layers = (
{
layerId = m01;
shapes = (
{
closed = 1;
nodes = (
(264,399,ls),
(183,450,o),
(151,507,o),
(171,595,cs),
(187,667,o),
(258,733,o),
(346,733,cs),
(443,733,o),
(488,662,o),
(474,587,cs),
(460,504,o),
(408,452,o),
(330,400,cs),
(298,378,l)
);
},
{
closed = 1;
nodes = (
(37,200,l),
(58,200,l),
(296,359,l),
(480,244,l),
(172,2,l),
(172,0,l),
(193,0,l),
(493,236,l),
(496,253,l),
(311,369,l),
(338,387,ls),
(420,442,o),
(476,500,o),
(491,586,cs),
(506,670,o),
(456,749,o),
(349,749,cs),
(244,749,o),
(167,669,o),
(152,583,cs),
(137,498,o),
(174,436,o),
(255,385,cs),
(283,368,l),
(38,203,l)
);
}
);
width = 477;
}
);
note = dvSH_R;
},
{
glyphname = dvSS_R;
lastChange = "2022-10-20 16:08:56 +0000";
layers = (
{
layerId = m01;
shapes = (
{
closed = 1;
nodes = (
(154,247,o),
(110,330,o),
(134,469,cs),
(176,703,l),
(484,369,l),
(469,318,o),
(394,247,o),
(285,247,cs)
);
},
{
closed = 1;
nodes = (
(27,724,l),
(162,724,l),
(117,469,ls),
(91,320,o),
(143,231,o),
(281,231,cs),
(313,231,o),
(342,236,o),
(368,245,c),
(62,1,l),
(85,1,l),
(428,276,l),
(469,305,o),
(495,343,o),
(501,376,c),
(179,724,l),
(562,724,l),
(565,740,l),
(30,740,l)
);
}
);
width = 390;
}
);
note = dvSS_R;
},
{
glyphname = dvS_R;
lastChange = "2022-10-20 16:08:56 +0000";
layers = (
{
layerId = m01;
shapes = (
{
closed = 1;
nodes = (
(380,189,l),
(363,189,l),
(362,178,ls),
(343,75,o),
(280,7,o),
(199,7,cs),
(103,7,o),
(70,77,o),
(87,174,cs),
(126,394,l),
(644,394,l),
(646,409,l),
(301,409,l),
(380,430,o),
(450,497,o),
(470,611,cs),
(490,724,l),
(702,724,l),
(705,740,l),
(35,740,l),
(32,724,l),
(474,724,l),
(454,611,ls),
(432,487,o),
(341,410,o),
(221,410,cs),
(111,410,l),
(70,175,ls),
(51,66,o),
(90,-9,o),
(197,-9,cs),
(289,-9,o),
(358,64,o),
(379,178,cs)
);
},
{
closed = 1;
nodes = (
(358,-50,l),
(379,-50,l),
(610,205,l),
(615,233,l)
);
}
);
width = 536;
}
);
note = dvS_R;
},
{
glyphname = dvH_R;
lastChange = "2022-10-20 16:08:56 +0000";
layers = (
{
layerId = m01;
shapes = (
{
closed = 1;
nodes = (
(473,26,l),
(446,-32,o),
(373,-102,o),
(260,-102,cs),
(124,-102,o),
(75,-5,o),
(94,105,cs),
(113,213,o),
(202,311,o),
(328,311,cs),
(413,311,o),
(460,268,o),
(478,225,c),
(311,89,l),
(334,89,l),
(498,222,l),
(480,274,o),
(429,327,o),
(330,327,cs),
(310,327,o),
(291,325,o),
(272,320,c),
(211,335,o),
(166,373,o),
(177,440,cs),
(192,522,o),
(267,549,o),
(344,549,cs),
(536,549,l),
(566,724,l),
(719,724,l),
(722,740,l),
(65,740,l),
(62,724,l),
(549,724,l),
(521,565,l),
(346,565,ls),
(257,565,o),
(176,531,o),
(160,440,cs),
(146,361,o),
(202,324,o),
(245,312,c),
(154,279,o),
(93,194,o),
(77,105,cs),
(57,-11,o),
(108,-119,o),
(257,-119,cs),
(384,-119,o),
(461,-38,o),
(490,26,c)
);
},
{
closed = 1;
nodes = (
(312,-397,l),
(331,-397,l),
(246,-219,l),
(228,-219,l)
);
}
);
width = 587;
}
);
note = dvH_R;
},
{
glyphname = dvLL_R;
lastChange = "2022-10-20 16:08:56 +0000";
layers = (
{
layerId = m01;
shapes = (
{
closed = 1;
nodes = (
(383,133,o),
(473,210,o),
(504,294,c),
(506,294,l),
(507,215,o),
(563,141,o),
(668,134,c),
(461,-37,l),
(484,-37,l),
(687,132,l),
(831,-37,l),
(854,-37,l),
(708,134,l),
(826,144,o),
(924,232,o),
(945,351,cs),
(969,487,o),
(891,576,o),
(766,576,cs),
(639,576,o),
(560,494,o),
(528,417,c),
(526,417,l),
(520,494,o),
(471,576,o),
(344,576,cs),
(219,576,o),
(109,487,o),
(85,351,cs),
(63,225,o),
(138,133,o),
(266,133,cs)
);
},
{
closed = 1;
nodes = (
(153,149,o),
(81,231,o),
(102,351,cs),
(124,478,o),
(225,560,o),
(341,560,cs),
(463,560,o),
(527,474,o),
(505,351,cs),
(484,234,o),
(389,149,o),
(269,149,cs)
);
},
{
closed = 1;
nodes = (
(569,149,o),
(504,234,o),
(525,351,cs),
(547,474,o),
(641,560,o),
(763,560,cs),
(879,560,o),
(950,478,o),
(928,351,cs),
(907,231,o),
(805,149,o),
(689,149,cs)
);
},
{
closed = 1;
nodes = (
(31,724,l),
(1131,724,l),
(1134,740,l),
(34,740,l)
);
}
);
width = 1030;
}
);
note = dvLL_R;
},
{
glyphname = dvKx_R;
lastChange = "2022-10-20 16:08:56 +0000";
layers = (
{
layerId = m01;
shapes = (
{
closed = 1;
nodes = (
(466,0,l),
(482,0,l),
(544,351,ls),
(561,449,o),
(637,568,o),
(781,568,cs),
(887,568,o),
(964,490,o),
(941,359,c),
(958,359,l),
(983,499,o),
(900,584,o),
(784,584,cs),
(671,584,o),
(597,517,o),
(559,440,c),
(609,724,l),
(1022,724,l),
(1025,740,l),
(34,740,l),
(31,724,l),
(593,724,l),
(544,443,l),
(532,518,o),
(480,584,o),
(366,584,cs),
(246,584,o),
(132,499,o),
(107,359,cs),
(81,212,o),
(162,127,o),
(285,127,cs),
(314,127,o),
(341,131,o),
(365,139,c),
(122,-46,l),
(145,-46,l),
(430,172,ls),
(467,198,o),
(495,232,o),
(513,268,c)
);
},
{
closed = 1;
nodes = (
(175,143,o),
(100,221,o),
(124,359,cs),
(147,490,o),
(253,568,o),
(363,568,cs),
(509,568,o),
(546,453,o),
(528,355,cs),
(528,354,ls),
(512,263,o),
(434,143,o),
(288,143,cs)
);
},
{
closed = 1;
nodes = (
(45,47,o),
(57,57,o),
(59,71,cs),
(62,85,o),
(54,95,o),
(40,95,cs),
(25,95,o),
(13,85,o),
(10,71,cs),
(8,57,o),
(16,47,o),
(31,47,cs)
);
}
);
width = 791;
}
);
note = dvKx_R;
},
{
glyphname = dvKHx_R;
lastChange = "2022-10-20 16:08:56 +0000";
layers = (
{
layerId = m01;
shapes = (
{
closed = 1;
nodes = (
(41,724,l),
(369,724,l),
(340,563,ls),
(315,419,o),
(231,394,o),
(162,394,cs),
(118,394,l),
(86,214,ls),
(63,82,o),
(136,0,o),
(268,0,cs),
(297,0,o),
(324,5,o),
(349,13,c),
(136,-149,l),
(135,-151,l),
(155,-151,l),
(430,59,l),
(430,59,l),
(466,88,o),
(494,126,o),
(513,165,c),
(530,162,o),
(546,160,o),
(564,160,cs),
(686,160,o),
(784,237,o),
(806,362,cs),
(828,487,o),
(760,565,o),
(636,565,cs),
(513,565,o),
(417,487,o),
(395,362,cs),
(378,264,o),
(418,192,o),
(500,169,c),
(461,90,o),
(379,16,o),
(272,16,cs),
(147,16,o),
(82,94,o),
(103,214,cs),
(132,378,l),
(139,378,o),
(146,378,o),
(153,378,cs),
(241,378,o),
(330,410,o),
(357,563,cs),
(386,724,l),
(870,724,l),
(873,740,l),
(44,740,l)
);
},
{
closed = 1;
nodes = (
(51,-83,o),
(63,-73,o),
(66,-59,cs),
(68,-45,o),
(60,-35,o),
(46,-35,cs),
(31,-35,o),
(19,-45,o),
(17,-59,cs),
(14,-73,o),
(22,-83,o),
(37,-83,cs)
);
},
{
closed = 1;
nodes = (
(454,176,o),
(392,250,o),
(412,362,cs),
(432,476,o),
(520,549,o),
(633,549,cs),
(747,549,o),
(809,476,o),
(789,362,cs),
(769,250,o),
(681,176,o),
(567,176,cs)
);
}
);
width = 679;
}
);
note = dvKHx_R;
},
{
glyphname = dvGx_R;
lastChange = "2022-10-20 16:08:56 +0000";
layers = (
{
layerId = m01;
shapes = (
{
closed = 1;
nodes = (
(533,312,l),
(536,334,l),
(121,-20,l),
(143,-20,l)
);
},
{
closed = 1;
nodes = (
(29,724,l),
(361,724,l),
(314,454,ls),
(303,393,o),
(268,329,o),
(181,329,cs),
(98,329,o),
(82,394,o),
(92,451,cs),
(98,482,l),
(81,482,l),
(75,452,ls),
(63,383,o),
(87,313,o),
(178,313,cs),
(272,313,o),
(318,380,o),
(331,454,cs),
(378,724,l),
(605,724,l),
(608,740,l),
(32,740,l)
);
},
{
closed = 1;
nodes = (
(53,107,o),
(65,117,o),
(68,131,cs),
(70,145,o),
(62,155,o),
(48,155,cs),
(33,155,o),
(21,145,o),
(19,131,cs),
(16,117,o),
(24,107,o),
(39,107,cs)
);
}
);
width = 420;
}
);
note = dvGx_R;
},
{
glyphname = dvJx_R;
lastChange = "2022-10-20 16:08:56 +0000";
layers = (
{
layerId = m01;
shapes = (
{
closed = 1;
nodes = (
(261,-20,l),
(283,-20,l),
(676,315,l),
(680,337,l)
);
},
{
closed = 1;
nodes = (
(29,724,l),
(748,724,l),
(751,740,l),
(32,740,l)
);
},
{
closed = 1;
nodes = (
(336,229,o),
(412,304,o),
(431,410,cs),
(445,493,l),
(707,493,l),
(710,509,l),
(431,509,l),
(414,409,ls),
(397,313,o),
(328,245,o),
(236,245,cs),
(148,245,o),
(105,313,o),
(122,409,cs),
(139,509,l),
(122,509,l),
(105,410,ls),
(86,304,o),
(133,229,o),
(232,229,cs)
);
},
{
closed = 1;
nodes = (
(91,37,o),
(103,47,o),
(105,61,cs),
(108,75,o),
(100,85,o),
(86,85,cs),
(71,85,o),
(59,75,o),
(56,61,cs),
(54,47,o),
(62,37,o),
(77,37,cs)
);
}
);
width = 541;
}
);
note = dvJx_R;
},
{
glyphname = dvPHx_R;
lastChange = "2022-10-20 16:08:56 +0000";
layers = (
{
layerId = m01;
shapes = (
{
closed = 1;
nodes = (
(191,247,o),
(150,330,o),
(174,469,cs),
(219,724,l),
(573,724,l),
(522,435,ls),
(504,333,o),
(427,247,o),
(315,247,cs)
);
},
{
closed = 1;
nodes = (
(27,724,l),
(202,724,l),
(157,469,ls),
(131,320,o),
(180,231,o),
(311,231,cs),
(336,231,o),
(359,235,o),
(380,242,c),
(78,0,l),
(101,0,l),
(445,276,ls),
(471,296,o),
(493,322,o),
(508,352,c),
(446,0,l),
(463,0,l),
(525,351,ls),
(542,449,o),
(618,568,o),
(762,568,cs),
(888,568,o),
(945,490,o),
(922,359,c),
(939,359,l),
(964,499,o),
(901,584,o),
(765,584,cs),
(651,584,o),
(577,515,o),
(540,438,c),
(590,724,l),
(1003,724,l),
(1006,740,l),
(30,740,l)
);
},
{
closed = 1;
nodes = (
(37,137,o),
(49,147,o),
(51,161,cs),
(54,175,o),
(45,185,o),
(31,185,cs),
(16,185,o),
(5,175,o),
(2,161,cs),
(0,147,o),
(8,137,o),
(23,137,cs)
);
}
);
width = 811;
}
);
note = dvPHx_R;
},
{
glyphname = dvK_KA;
lastChange = "2022-10-20 16:08:56 +0000";
layers = (
{
layerId = m01;
shapes = (
{
closed = 1;
nodes = (
(639,584,o),
(571,519,o),
(536,444,c),
(585,724,l),
(1383,724,l),
(1334,443,l),
(1322,518,o),
(1270,584,o),
(1156,584,cs),
(1057,584,o),
(963,527,o),
(918,428,c),
(912,527,o),
(845,584,o),
(750,584,cs)
);
},
{
closed = 1;
nodes = (
(151,143,o),
(76,221,o),
(100,359,cs),
(123,490,o),
(229,568,o),
(339,568,cs),
(485,568,o),
(522,453,o),
(504,355,cs),
(504,354,ls),
(488,263,o),
(410,143,o),
(264,143,cs)
);
},
{
closed = 1;
nodes = (
(1256,0,l),
(1272,0,l),
(1334,351,ls),
(1351,449,o),
(1427,568,o),
(1571,568,cs),
(1677,568,o),
(1754,490,o),
(1731,359,cs),
(1707,221,o),
(1608,143,o),
(1499,143,cs),
(1480,143,o),
(1459,145,o),
(1443,149,c),
(1440,133,l),
(1453,130,o),
(1475,127,o),
(1496,127,cs),
(1615,127,o),
(1722,212,o),
(1748,359,cs),
(1773,499,o),
(1690,584,o),
(1574,584,cs),
(1461,584,o),
(1387,517,o),
(1349,440,c),
(1399,724,l),
(1932,724,l),
(1935,740,l),
(30,740,l),
(27,724,l),
(569,724,l),
(520,443,l),
(508,518,o),
(456,584,o),
(342,584,cs),
(222,584,o),
(108,499,o),
(83,359,cs),
(57,212,o),
(138,127,o),
(261,127,cs),
(373,127,o),
(451,193,o),
(489,268,c),
(442,0,l),
(458,0,l),
(520,351,ls),
(537,449,o),
(603,568,o),
(747,568,cs),
(853,568,o),
(920,490,o),
(897,359,cs),
(871,212,o),
(952,127,o),
(1075,127,cs),
(1187,127,o),
(1265,193,o),
(1303,268,c)
);
},
{
closed = 1;
nodes = (
(965,143,o),
(890,221,o),
(914,359,cs),
(937,490,o),
(1043,568,o),
(1153,568,cs),
(1299,568,o),
(1336,453,o),
(1318,355,cs),
(1318,354,ls),
(1302,263,o),
(1224,143,o),
(1078,143,cs)
);
}
);
width = 1835;
}
);
note = dvK_KA;
},
{
glyphname = dvKx_KxA;
lastChange = "2022-10-20 16:08:56 +0000";
layers = (
{
layerId = m01;
shapes = (
{
closed = 1;
nodes = (
(641,584,o),
(573,519,o),
(538,444,c),
(587,724,l),
(1385,724,l),
(1336,443,l),
(1324,518,o),
(1272,584,o),
(1158,584,cs),
(1059,584,o),
(965,527,o),
(920,428,c),
(914,527,o),
(847,584,o),
(752,584,cs)
);
},
{
closed = 1;
nodes = (
(153,143,o),
(78,221,o),
(102,359,cs),
(125,490,o),
(231,568,o),
(341,568,cs),
(487,568,o),
(523,453,o),
(506,355,cs),
(506,354,ls),
(490,263,o),
(412,143,o),
(266,143,cs)
);
},
{
closed = 1;
nodes = (
(245,-21,o),
(257,-11,o),
(259,3,cs),
(262,17,o),
(253,27,o),
(239,27,cs),
(224,27,o),
(213,17,o),
(210,3,cs),
(208,-11,o),
(216,-21,o),
(231,-21,cs)
);
},
{
closed = 1;
nodes = (
(1059,-21,o),
(1071,-11,o),
(1073,3,cs),
(1076,17,o),
(1067,27,o),
(1053,27,cs),
(1038,27,o),
(1027,17,o),
(1024,3,cs),
(1022,-11,o),
(1030,-21,o),
(1045,-21,cs)
);
},
{
closed = 1;
nodes = (
(1258,0,l),
(1274,0,l),
(1336,351,ls),
(1353,449,o),
(1429,568,o),
(1573,568,cs),
(1679,568,o),
(1756,490,o),
(1733,359,cs),
(1709,221,o),
(1610,143,o),
(1501,143,cs),
(1482,143,o),
(1461,145,o),
(1445,149,c),
(1442,133,l),
(1455,130,o),
(1477,127,o),
(1498,127,cs),
(1617,127,o),
(1724,212,o),
(1750,359,cs),
(1775,499,o),
(1692,584,o),
(1576,584,cs),
(1463,584,o),
(1389,517,o),
(1351,440,c),
(1401,724,l),
(1934,724,l),
(1937,740,l),
(32,740,l),
(29,724,l),
(571,724,l),
(522,443,l),
(510,518,o),
(458,584,o),
(344,584,cs),
(224,584,o),
(110,499,o),
(85,359,cs),
(59,212,o),
(140,127,o),
(263,127,cs),
(375,127,o),
(453,193,o),
(491,268,c),
(444,0,l),
(460,0,l),
(522,351,ls),
(539,449,o),
(605,568,o),
(749,568,cs),
(855,568,o),
(922,490,o),
(899,359,cs),
(873,212,o),
(954,127,o),
(1077,127,cs),
(1189,127,o),
(1267,193,o),
(1305,268,c)
);
},
{
closed = 1;
nodes = (
(967,143,o),
(892,221,o),
(916,359,cs),
(939,490,o),
(1045,568,o),
(1155,568,cs),
(1301,568,o),
(1337,453,o),
(1320,355,cs),
(1320,354,ls),
(1304,263,o),
(1226,143,o),
(1080,143,cs)
);
}
);
width = 1835;
}
);
note = dvKx_KxA;
},
{
glyphname = dvK_KHA;
lastChange = "2022-10-20 16:08:56 +0000";
layers = (
{
layerId = m01;
shapes = (
{
closed = 1;
nodes = (
(918,394,l),
(926,513,o),
(856,584,o),
(750,584,cs),
(639,584,o),
(571,519,o),
(536,444,c),
(585,724,l),
(1154,724,l),
(1126,563,ls),
(1101,419,o),
(1016,394,o),
(947,394,cs)
);
},
{
closed = 1;
nodes = (
(151,143,o),
(76,221,o),
(100,359,cs),
(123,490,o),
(229,568,o),
(339,568,cs),
(485,568,o),
(522,453,o),
(504,355,cs),
(504,354,ls),
(488,263,o),
(410,143,o),
(264,143,cs)
);
},
{
closed = 1;
nodes = (
(1499,0,l),
(1516,0,l),
(1643,724,l),
(1805,724,l),
(1808,740,l),
(30,740,l),
(27,724,l),
(569,724,l),
(520,443,l),
(508,518,o),
(456,584,o),
(342,584,cs),
(222,584,o),
(108,499,o),
(83,359,cs),
(57,212,o),
(138,127,o),
(261,127,cs),
(373,127,o),
(451,193,o),
(489,268,c),
(442,0,l),
(458,0,l),
(520,351,ls),
(537,449,o),
(603,568,o),
(747,568,cs),
(853,568,o),
(920,490,o),
(897,359,cs),
(871,214,ls),
(848,82,o),
(922,0,o),
(1054,0,cs),
(1170,0,o),
(1255,77,o),
(1301,164,c),
(1315,161,o),
(1331,159,o),
(1347,159,cs),
(1446,159,o),
(1515,218,o),
(1549,285,c)
);
},
{
closed = 1;
nodes = (
(1248,175,o),
(1177,244,o),
(1198,366,cs),
(1219,481,o),
(1317,549,o),
(1416,549,cs),
(1545,549,o),
(1578,448,o),
(1563,362,cs),
(1562,361,ls),
(1548,280,o),
(1479,175,o),
(1350,175,cs)
);
},
{
closed = 1;
nodes = (
(933,16,o),
(867,94,o),
(888,214,cs),
(917,378,l),
(924,378,o),
(931,378,o),
(938,378,cs),
(1026,378,o),
(1116,410,o),
(1143,563,cs),
(1171,724,l),
(1626,724,l),
(1577,441,l),
(1566,507,o),
(1519,565,o),
(1418,565,cs),
(1307,565,o),
(1203,490,o),
(1181,366,cs),
(1163,260,o),
(1207,191,o),
(1284,168,c),
(1243,87,o),
(1163,16,o),
(1058,16,cs)
);
}
);
width = 1708;
}
);
note = dvK_KHA;
},
{
glyphname = dvK_CA;
lastChange = "2022-10-20 16:08:56 +0000";
layers = (
{
layerId = m01;
shapes = (
{
closed = 1;
nodes = (
(906,131,o),
(824,201,o),
(847,330,cs),
(868,447,o),
(964,539,o),
(1097,539,cs),
(1126,539,l),
(1129,555,l),
(768,555,ls),
(645,555,o),
(570,494,o),
(532,421,c),
(585,724,l),
(1326,724,l),
(1257,333,ls),
(1239,227,o),
(1133,131,o),
(1013,131,cs)
);
},
{
closed = 1;
nodes = (
(151,143,o),
(76,221,o),
(100,359,cs),
(123,490,o),
(229,568,o),
(339,568,cs),
(485,568,o),
(522,453,o),
(504,355,cs),
(504,354,ls),
(488,263,o),
(410,143,o),
(264,143,cs)
);
},
{
closed = 1;
nodes = (
(517,335,ls),
(534,433,o),
(608,539,o),
(765,539,cs),
(1011,539,l),
(916,509,o),
(848,431,o),
(830,330,cs),
(805,191,o),
(893,115,o),
(1011,115,cs),
(1109,115,o),
(1198,174,o),
(1243,253,c),
(1199,0,l),
(1216,0,l),
(1343,724,l),
(1505,724,l),
(1508,740,l),
(30,740,l),
(27,724,l),
(569,724,l),
(520,443,l),
(508,518,o),
(456,584,o),
(342,584,cs),
(222,584,o),
(108,499,o),
(83,359,cs),
(57,212,o),
(138,127,o),
(261,127,cs),
(373,127,o),
(451,193,o),
(489,268,c),
(442,0,l),
(458,0,l)
);
}
);
width = 1408;
}
);
note = dvK_CA;
},
{
glyphname = dvK_JA;
lastChange = "2022-10-20 16:08:56 +0000";
layers = (
{
layerId = m01;
shapes = (
{
closed = 1;
nodes = (
(151,143,o),
(76,221,o),
(100,359,cs),
(123,490,o),
(229,568,o),
(339,568,cs),
(485,568,o),
(522,453,o),
(504,355,cs),
(504,354,ls),
(488,263,o),
(410,143,o),
(264,143,cs)
);
},
{
closed = 1;
nodes = (
(914,359,ls),
(939,499,o),
(866,584,o),
(750,584,cs),
(639,584,o),
(571,519,o),
(536,444,c),
(585,724,l),
(1544,724,l),
(1507,509,l),
(1233,509,l),
(1203,339,ls),
(1186,243,o),
(1117,175,o),
(1025,175,cs),
(937,175,o),
(894,243,o),
(911,339,cs)
);
},
{
closed = 1;
nodes = (
(894,340,ls),
(875,234,o),
(922,159,o),
(1021,159,cs),
(1125,159,o),
(1201,234,o),
(1220,340,cs),
(1247,493,l),
(1504,493,l),
(1417,0,l),
(1434,0,l),
(1561,724,l),
(1723,724,l),
(1726,740,l),
(30,740,l),
(27,724,l),
(569,724,l),
(520,443,l),
(508,518,o),
(456,584,o),
(342,584,cs),
(222,584,o),
(108,499,o),
(83,359,cs),
(57,212,o),
(138,127,o),
(261,127,cs),
(373,127,o),
(451,193,o),
(489,268,c),
(442,0,l),
(458,0,l),
(520,351,ls),
(537,449,o),
(603,568,o),
(747,568,cs),
(853,568,o),
(920,490,o),
(897,359,cs)
);
}
);
width = 1626;
}
);
note = dvK_JA;
},
{
glyphname = dvK_TTA;
lastChange = "2022-10-20 16:08:56 +0000";
layers = (
{
layerId = m01;
shapes = (
{
closed = 1;
nodes = (
(639,584,o),
(571,519,o),
(536,444,c),
(585,724,l),
(1297,724,l),
(1271,573,l),
(1220,573,ls),
(1092,573,o),
(977,522,o),
(919,411,c),
(918,520,o),
(851,584,o),
(750,584,cs)
);
},
{
closed = 1;
nodes = (
(151,143,o),
(76,221,o),
(100,359,cs),
(123,490,o),
(229,568,o),
(339,568,cs),
(485,568,o),
(522,453,o),
(504,355,cs),
(504,354,ls),
(488,263,o),
(410,143,o),
(264,143,cs)
);
},
{
closed = 1;
nodes = (
(520,351,ls),
(537,449,o),
(603,568,o),
(747,568,cs),
(853,568,o),
(920,490,o),
(897,359,c),
(897,359,l),
(892,344,o),
(889,328,o),
(886,311,cs),
(860,166,o),
(951,63,o),
(1097,63,cs),
(1248,63,o),
(1370,169,o),
(1396,320,c),
(1379,320,l),
(1354,179,o),
(1239,79,o),
(1100,79,cs),
(964,79,o),
(879,176,o),
(903,312,cs),
(932,479,o),
(1064,557,o),
(1217,557,cs),
(1285,557,l),
(1314,724,l),
(1562,724,l),
(1565,740,l),
(30,740,l),
(27,724,l),
(569,724,l),
(520,443,l),
(508,518,o),
(456,584,o),
(342,584,cs),
(222,584,o),
(108,499,o),
(83,359,cs),
(57,212,o),
(138,127,o),
(261,127,cs),
(373,127,o),
(451,193,o),
(489,268,c),
(442,0,l),
(458,0,l)
);
}
);
width = 1465;
}
);
note = dvK_TTA;
},
{
glyphname = dvK_NNA;
lastChange = "2022-10-20 16:08:56 +0000";
layers = (
{
layerId = m01;
shapes = (
{
closed = 1;
nodes = (
(585,724,l),
(959,724,l),
(913,462,l),
(896,538,o),
(835,584,o),
(750,584,cs),
(639,584,o),
(571,519,o),
(536,444,c)
);
},
{
closed = 1;
nodes = (
(151,143,o),
(76,221,o),
(100,359,cs),
(123,490,o),
(229,568,o),
(339,568,cs),
(485,568,o),
(522,453,o),
(504,355,cs),
(504,354,ls),
(488,263,o),
(410,143,o),
(264,143,cs)
);
},
{
closed = 1;
nodes = (
(946,234,o),
(902,302,o),
(919,398,cs),
(976,724,l),
(1268,724,l),
(1211,398,ls),
(1194,302,o),
(1128,234,o),
(1036,234,cs)
);
},
{
closed = 1;
nodes = (
(520,351,ls),
(537,449,o),
(603,568,o),
(747,568,cs),
(843,568,o),
(908,504,o),
(902,401,cs),
(902,399,ls),
(883,293,o),
(931,218,o),
(1032,218,cs),
(1136,218,o),
(1209,293,o),
(1228,399,cs),
(1285,724,l),
(1535,724,l),
(1408,0,l),
(1425,0,l),
(1552,724,l),
(1714,724,l),
(1717,740,l),
(30,740,l),
(27,724,l),
(569,724,l),
(520,443,l),
(508,518,o),
(456,584,o),
(342,584,cs),
(222,584,o),
(108,499,o),
(83,359,cs),
(57,212,o),
(138,127,o),
(261,127,cs),
(373,127,o),
(451,193,o),
(489,268,c),
(442,0,l),
(458,0,l)
);
}
);
width = 1617;
}
);
note = dvK_NNA;
},
{
glyphname = dvK_TA;
lastChange = "2022-10-20 16:08:56 +0000";
layers = (
{
layerId = m01;
shapes = (
{
closed = 1;
nodes = (
(27,724,l),
(612,724,l),
(570,483,l),
(56,483,l),
(53,468,l),
(304,468,l),
(203,448,o),
(109,377,o),
(86,243,cs),
(59,90,o),
(139,2,o),
(303,2,cs),
(327,2,l),
(330,18,l),
(306,18,ls),
(151,18,o),
(77,99,o),
(103,243,cs),
(130,397,o),
(248,467,o),
(411,467,cs),
(567,467,l),
(485,0,l),
(501,0,l),
(546,259,ls),
(562,350,o),
(646,470,o),
(808,470,cs),
(919,470,o),
(1000,388,o),
(976,252,cs),
(951,109,o),
(848,24,o),
(721,24,cs),
(700,24,o),
(672,27,o),
(656,30,c),
(653,14,l),
(668,11,o),
(695,8,o),
(718,8,cs),
(855,8,o),
(966,100,o),
(993,252,cs),
(1019,398,o),
(929,486,o),
(808,486,cs),
(682,486,o),
(600,417,o),
(561,341,c),
(628,724,l),
(1196,724,l),
(1199,740,l),
(30,740,l)
);
}
);
width = 1099;
}
);
note = dvK_TA;
},
{
glyphname = dvKx_TA;
lastChange = "2022-10-20 16:08:56 +0000";
layers = (
{
layerId = m01;
shapes = (
{
closed = 1;
nodes = (
(637,579,o),
(572,516,o),
(538,444,c),
(587,724,l),
(1379,724,l),
(1340,503,l),
(1174,503,ls),
(1048,503,o),
(946,462,o),
(889,372,c),
(910,517,o),
(839,579,o),
(741,579,cs)
);
},
{
closed = 1;
nodes = (
(153,143,o),
(78,221,o),
(102,359,cs),
(125,490,o),
(231,568,o),
(341,568,cs),
(487,568,o),
(523,453,o),
(506,355,cs),
(506,354,ls),
(490,263,o),
(412,143,o),
(266,143,cs)
);
},
{
closed = 1;
nodes = (
(245,-21,o),
(257,-11,o),
(259,3,cs),
(262,17,o),
(253,27,o),
(239,27,cs),
(224,27,o),
(213,17,o),
(210,3,cs),
(208,-11,o),
(216,-21,o),
(231,-21,cs)
);
},
{
closed = 1;
nodes = (
(522,351,ls),
(538,447,o),
(602,563,o),
(738,563,cs),
(839,563,o),
(908,491,o),
(862,317,c),
(854,298,o),
(848,276,o),
(844,253,cs),
(816,94,o),
(896,2,o),
(1060,2,cs),
(1084,2,l),
(1087,18,l),
(1063,18,ls),
(908,18,o),
(835,103,o),
(861,253,cs),
(890,414,o),
(1008,487,o),
(1171,487,cs),
(1337,487,l),
(1252,0,l),
(1269,0,l),
(1396,724,l),
(1558,724,l),
(1561,740,l),
(32,740,l),
(29,724,l),
(571,724,l),
(522,443,l),
(510,518,o),
(458,584,o),
(344,584,cs),
(224,584,o),
(110,499,o),
(85,359,cs),
(59,212,o),
(140,127,o),
(263,127,cs),
(375,127,o),
(453,193,o),
(491,268,c),
(444,0,l),
(460,0,l)
);
}
);
width = 1459;
}
);
note = dvKx_TA;
},
{
glyphname = dvK_T_YA;
lastChange = "2022-10-20 16:08:56 +0000";
layers = (
{
layerId = m01;
shapes = (
{
closed = 1;
nodes = (
(635,579,o),
(570,516,o),
(536,444,c),
(585,724,l),
(1558,724,l),
(1543,635,ls),
(1516,486,o),
(1416,455,o),
(1304,455,cs),
(1292,455,l),
(1283,488,o),
(1249,533,o),
(1130,533,cs),
(1017,533,o),
(934,487,o),
(886,393,c),
(896,524,o),
(833,579,o),
(739,579,cs)
);
},
{
closed = 1;
nodes = (
(151,143,o),
(76,221,o),
(100,359,cs),
(123,490,o),
(229,568,o),
(339,568,cs),
(485,568,o),
(522,453,o),
(504,355,cs),
(504,354,ls),
(488,263,o),
(410,143,o),
(264,143,cs)
);
},
{
closed = 1;
nodes = (
(1338,154,o),
(1263,246,o),
(1290,400,cs),
(1297,439,l),
(1301,439,ls),
(1429,439,o),
(1532,480,o),
(1560,635,cs),
(1575,724,l),
(1826,724,l),
(1764,368,ls),
(1741,238,o),
(1616,154,o),
(1491,154,cs)
);
},
{
closed = 1;
nodes = (
(520,351,ls),
(537,447,o),
(600,563,o),
(736,563,cs),
(837,563,o),
(900,495,o),
(861,323,cs),
(857,310,o),
(854,297,o),
(852,283,cs),
(824,124,o),
(903,32,o),
(1067,32,cs),
(1091,32,l),
(1094,48,l),
(1070,48,ls),
(915,48,o),
(842,133,o),
(869,283,cs),
(897,441,o),
(987,517,o),
(1129,517,cs),
(1295,517,o),
(1279,425,o),
(1278,421,cs),
(1274,400,ls),
(1246,241,o),
(1321,138,o),
(1487,138,cs),
(1620,138,o),
(1713,216,o),
(1749,285,c),
(1699,0,l),
(1716,0,l),
(1843,724,l),
(2005,724,l),
(2008,740,l),
(30,740,l),
(27,724,l),
(569,724,l),
(520,443,l),
(508,518,o),
(456,584,o),
(342,584,cs),
(222,584,o),
(108,499,o),
(83,359,cs),
(57,212,o),
(138,127,o),
(261,127,cs),
(373,127,o),
(451,193,o),
(489,268,c),
(442,0,l),
(458,0,l)
);
}
);
width = 1908;
}
);
note = dvK_T_YA;
},
{
glyphname = dvK_T_RA;
lastChange = "2022-10-20 16:08:56 +0000";
layers = (
{
layerId = m01;
shapes = (
{
closed = 1;
nodes = (
(645,584,o),
(573,518,o),
(536,442,c),
(585,724,l),
(1423,724,l),
(1368,412,l),
(1347,474,o),
(1290,543,o),
(1169,543,cs),
(1065,543,o),
(968,489,o),
(922,387,c),
(923,519,o),
(849,584,o),
(753,584,cs)
);
},
{
closed = 1;
nodes = (
(151,143,o),
(76,221,o),
(100,359,cs),
(123,490,o),
(229,568,o),
(339,568,cs),
(485,568,o),
(522,453,o),
(504,355,cs),
(504,354,ls),
(488,263,o),
(410,143,o),
(264,143,cs)
);
},
{
closed = 1;
nodes = (
(520,351,ls),
(537,449,o),
(611,568,o),
(750,568,cs),
(851,568,o),
(930,488,o),
(900,318,c),
(900,318,l),
(899,313,l),
(916,313,l),
(940,450,o),
(1049,527,o),
(1166,527,cs),
(1281,527,o),
(1350,459,o),
(1361,370,c),
(929,2,l),
(929,0,l),
(949,0,l),
(1357,348,l),
(1296,0,l),
(1313,0,l),
(1440,724,l),
(1602,724,l),
(1605,740,l),
(30,740,l),
(27,724,l),
(569,724,l),
(520,443,l),
(508,518,o),
(456,584,o),
(342,584,cs),
(222,584,o),
(108,499,o),
(83,359,cs),
(57,212,o),
(138,127,o),
(261,127,cs),
(373,127,o),
(451,193,o),
(489,268,c),
(442,0,l),
(458,0,l)
);
}
);
width = 1505;
}
);
note = dvK_T_RA;
},
{
glyphname = dvK_T_VA;
lastChange = "2022-10-20 16:08:56 +0000";
layers = (
{
layerId = m01;
shapes = (
{
closed = 1;
nodes = (
(635,579,o),
(570,516,o),
(536,444,c),
(585,724,l),
(1779,724,l),
(1730,441,l),
(1717,519,o),
(1660,588,o),
(1536,588,cs),
(1461,588,o),
(1388,557,o),
(1335,503,c),
(1176,503,ls),
(1042,503,o),
(936,457,o),
(880,355,c),
(900,514,o),
(837,579,o),
(739,579,cs)
);
},
{
closed = 1;
nodes = (
(151,143,o),
(76,221,o),
(100,359,cs),
(123,490,o),
(229,568,o),
(339,568,cs),
(485,568,o),
(522,453,o),
(504,355,cs),
(504,354,ls),
(488,263,o),
(410,143,o),
(264,143,cs)
);
},
{
closed = 1;
nodes = (
(1337,141,o),
(1256,220,o),
(1280,359,cs),
(1304,493,o),
(1417,572,o),
(1534,572,cs),
(1691,572,o),
(1732,455,o),
(1714,355,cs),
(1714,354,ls),
(1698,262,o),
(1615,141,o),
(1458,141,cs)
);
},
{
closed = 1;
nodes = (
(1958,724,l),
(1961,740,l),
(30,740,l),
(27,724,l),
(569,724,l),
(520,443,l),
(508,518,o),
(456,584,o),
(342,584,cs),
(222,584,o),
(108,499,o),
(83,359,cs),
(57,212,o),
(138,127,o),
(261,127,cs),
(373,127,o),
(451,193,o),
(489,268,c),
(442,0,l),
(458,0,l),
(520,351,ls),
(537,447,o),
(600,563,o),
(736,563,cs),
(839,563,o),
(900,484,o),
(852,282,cs),
(850,273,o),
(848,263,o),
(846,253,cs),
(818,94,o),
(898,2,o),
(1062,2,cs),
(1086,2,l),
(1089,18,l),
(1065,18,ls),
(910,18,o),
(837,103,o),
(863,253,cs),
(892,414,o),
(1011,487,o),
(1174,487,cs),
(1322,487,l),
(1292,452,o),
(1272,409,o),
(1263,359,cs),
(1237,211,o),
(1324,125,o),
(1455,125,cs),
(1577,125,o),
(1660,194,o),
(1700,271,c),
(1652,0,l),
(1669,0,l),
(1796,724,l)
);
}
);
width = 1861;
}
);
note = dvK_T_VA;
},
{
glyphname = dvK_THA;
lastChange = "2022-10-20 16:08:56 +0000";
layers = (
{
layerId = m01;
shapes = (
{
closed = 1;
nodes = (
(150,143,o),
(75,221,o),
(99,359,cs),
(122,490,o),
(228,568,o),
(338,568,cs),
(484,568,o),
(521,453,o),
(504,355,cs),
(503,354,ls),
(487,263,o),
(409,143,o),
(263,143,cs)
);
},
{
closed = 1;
nodes = (
(638,584,o),
(570,519,o),
(535,444,c),
(585,724,l),
(1091,724,l),
(1091,725,l),
(1106,730,o),
(1125,733,o),
(1147,733,cs),
(1242,733,o),
(1285,665,o),
(1270,581,cs),
(1245,439,o),
(1115,411,o),
(1015,411,cs),
(919,411,l),
(923,515,o),
(854,584,o),
(749,584,cs)
);
},
{
closed = 1;
nodes = (
(1330,0,l),
(1347,0,l),
(1475,724,l),
(1637,724,l),
(1639,740,l),
(1460,740,l),
(1390,343,ls),
(1368,215,o),
(1244,130,o),
(1118,130,cs),
(954,130,o),
(884,231,o),
(920,395,c),
(1013,395,ls),
(1133,395,o),
(1261,434,o),
(1287,581,cs),
(1304,674,o),
(1254,749,o),
(1150,749,cs),
(1128,749,o),
(1107,746,o),
(1087,740,c),
(29,740,l),
(27,724,l),
(569,724,l),
(519,443,l),
(507,518,o),
(455,584,o),
(341,584,cs),
(221,584,o),
(107,499,o),
(82,359,cs),
(56,212,o),
(137,127,o),
(260,127,cs),
(372,127,o),
(450,193,o),
(488,268,c),
(441,0,l),
(457,0,l),
(519,351,ls),
(536,449,o),
(602,568,o),
(746,568,cs),
(852,568,o),
(919,490,o),
(899,377,c),
(899,377,l),
(899,376,ls),
(871,217,o),
(947,114,o),
(1114,114,cs),
(1249,114,o),
(1341,193,o),
(1377,264,c)
);
}
);
width = 1540;
}
);
note = dvK_THA;
},
{
glyphname = dvK_DA;
lastChange = "2022-10-20 16:08:56 +0000";
layers = (
{
layerId = m01;
shapes = (
{
closed = 1;
nodes = (
(639,584,o),
(571,519,o),
(536,444,c),
(585,724,l),
(1330,724,l),
(1306,588,l),
(1202,588,ls),
(1084,588,o),
(969,537,o),
(918,426,c),
(913,526,o),
(846,584,o),
(750,584,cs)
);
},
{
closed = 1;
nodes = (
(151,143,o),
(76,221,o),
(100,359,cs),
(123,490,o),
(229,568,o),
(339,568,cs),
(485,568,o),
(522,453,o),
(504,355,cs),
(504,354,ls),
(488,263,o),
(410,143,o),
(264,143,cs)
);
},
{
closed = 1;
nodes = (
(520,351,ls),
(537,449,o),
(603,568,o),
(747,568,cs),
(853,568,o),
(920,490,o),
(897,359,c),
(897,359,l),
(897,358,o),
(897,357,o),
(896,355,cs),
(873,221,o),
(942,129,o),
(1083,129,cs),
(1173,129,o),
(1256,177,o),
(1290,240,c),
(1248,0,l),
(1265,0,l),
(1321,321,l),
(1306,321,l),
(1284,193,o),
(1167,145,o),
(1087,145,cs),
(958,145,o),
(891,228,o),
(913,355,cs),
(939,502,o),
(1067,572,o),
(1200,572,cs),
(1321,572,l),
(1347,724,l),
(1518,724,l),
(1521,740,l),
(30,740,l),
(27,724,l),
(569,724,l),
(520,443,l),
(508,518,o),
(456,584,o),
(342,584,cs),
(222,584,o),
(108,499,o),
(83,359,cs),
(57,212,o),
(138,127,o),
(261,127,cs),
(373,127,o),
(451,193,o),
(489,268,c),
(442,0,l),
(458,0,l)
);
}
);
width = 1421;
}
);
note = dvK_DA;
},
{
glyphname = dvK_NA;
lastChange = "2022-10-20 16:08:56 +0000";
layers = (
{
layerId = m01;
shapes = (
{
closed = 1;
nodes = (
(639,584,o),
(571,519,o),
(536,444,c),
(585,724,l),
(1500,724,l),
(1463,511,l),
(1108,511,ls),
(1025,511,o),
(956,472,o),
(918,408,c),
(919,519,o),
(852,584,o),
(750,584,cs)
);
},
{
closed = 1;
nodes = (
(151,143,o),
(76,221,o),
(100,359,cs),
(123,490,o),
(229,568,o),
(339,568,cs),
(485,568,o),
(522,453,o),
(504,355,cs),
(504,354,ls),
(488,263,o),
(410,143,o),
(264,143,cs)
);
},
{
closed = 1;
nodes = (
(947,176,o),
(891,241,o),
(908,334,cs),
(925,430,o),
(1005,495,o),
(1103,495,cs),
(1198,495,o),
(1254,429,o),
(1238,336,cs),
(1221,242,o),
(1142,176,o),
(1047,176,cs)
);
},
{
closed = 1;
nodes = (
(520,351,ls),
(537,449,o),
(603,568,o),
(747,568,cs),
(852,568,o),
(919,492,o),
(898,363,c),
(895,354,o),
(892,344,o),
(891,334,cs),
(873,233,o),
(932,160,o),
(1044,160,cs),
(1150,160,o),
(1237,233,o),
(1255,336,cs),
(1269,418,o),
(1230,477,o),
(1173,496,c),
(1460,496,l),
(1373,0,l),
(1390,0,l),
(1517,724,l),
(1679,724,l),
(1682,740,l),
(30,740,l),
(27,724,l),
(569,724,l),
(520,443,l),
(508,518,o),
(456,584,o),
(342,584,cs),
(222,584,o),
(108,499,o),
(83,359,cs),
(57,212,o),
(138,127,o),
(261,127,cs),
(373,127,o),
(451,193,o),
(489,268,c),
(442,0,l),
(458,0,l)
);
}
);
width = 1582;
}
);
note = dvK_NA;
},
{
glyphname = dvK_PA;
lastChange = "2022-10-20 16:08:56 +0000";
layers = (
{
layerId = m01;
shapes = (
{
closed = 1;
nodes = (
(585,724,l),
(922,724,l),
(879,479,l),
(860,546,o),
(810,584,o),
(740,584,cs),
(636,584,o),
(570,520,o),
(536,446,c)
);
},
{
closed = 1;
nodes = (
(151,143,o),
(76,221,o),
(100,359,cs),
(123,490,o),
(229,568,o),
(339,568,cs),
(485,568,o),
(522,453,o),
(504,355,cs),
(504,354,ls),
(488,263,o),
(410,143,o),
(264,143,cs)
);
},
{
closed = 1;
nodes = (
(914,247,o),
(870,330,o),
(894,469,cs),
(939,724,l),
(1313,724,l),
(1262,435,ls),
(1244,333,o),
(1163,247,o),
(1045,247,cs)
);
},
{
closed = 1;
nodes = (
(520,351,ls),
(537,449,o),
(601,568,o),
(737,568,cs),
(817,568,o),
(870,512,o),
(872,419,c),
(865,300,o),
(919,231,o),
(1041,231,cs),
(1134,231,o),
(1208,279,o),
(1248,352,c),
(1186,0,l),
(1203,0,l),
(1330,724,l),
(1492,724,l),
(1495,740,l),
(30,740,l),
(27,724,l),
(569,724,l),
(520,443,l),
(508,518,o),
(456,584,o),
(342,584,cs),
(222,584,o),
(108,499,o),
(83,359,cs),
(57,212,o),
(138,127,o),
(261,127,cs),
(373,127,o),
(451,193,o),
(489,268,c),
(442,0,l),
(458,0,l)
);
}
);
width = 1395;
}
);
note = dvK_PA;
},
{
glyphname = dvK_P_RA;
lastChange = "2022-10-20 16:08:56 +0000";
layers = (
{
layerId = m01;
shapes = (
{
closed = 1;
nodes = (
(585,724,l),
(922,724,l),
(879,479,l),
(860,546,o),
(810,584,o),
(740,584,cs),
(636,584,o),
(570,520,o),
(536,446,c)
);
},
{
closed = 1;
nodes = (
(151,143,o),
(76,221,o),
(100,359,cs),
(123,490,o),
(229,568,o),
(339,568,cs),
(485,568,o),
(522,453,o),
(504,355,cs),
(504,354,ls),
(488,263,o),
(410,143,o),
(264,143,cs)
);
},
{
closed = 1;
nodes = (
(914,247,o),
(870,330,o),
(894,469,cs),
(939,724,l),
(1313,724,l),
(1262,435,ls),
(1244,333,o),
(1163,247,o),
(1045,247,cs)
);
},
{
closed = 1;
nodes = (
(520,351,ls),
(537,449,o),
(601,568,o),
(737,568,cs),
(817,568,o),
(870,512,o),
(872,419,c),
(865,300,o),
(919,231,o),
(1041,231,cs),
(1069,231,o),
(1095,235,o),
(1120,243,c),
(816,1,l),
(839,1,l),
(1181,275,l),
(1209,295,o),
(1232,322,o),
(1248,352,c),
(1186,0,l),
(1203,0,l),
(1330,724,l),
(1492,724,l),
(1495,740,l),
(30,740,l),
(27,724,l),
(569,724,l),
(520,443,l),
(508,518,o),
(456,584,o),
(342,584,cs),
(222,584,o),
(108,499,o),
(83,359,cs),
(57,212,o),
(138,127,o),
(261,127,cs),
(373,127,o),
(451,193,o),
(489,268,c),
(442,0,l),
(458,0,l)
);
}
);
width = 1395;
}
);
note = dvK_P_RA;
},
{
glyphname = dvK_PHA;
lastChange = "2022-10-20 16:08:56 +0000";
layers = (
{
layerId = m01;
shapes = (
{
closed = 1;
nodes = (
(585,724,l),
(951,724,l),
(908,477,l),
(886,545,o),
(828,584,o),
(750,584,cs),
(639,584,o),
(571,519,o),
(536,444,c)
);
},
{
closed = 1;
nodes = (
(151,143,o),
(76,221,o),
(100,359,cs),
(123,490,o),
(229,568,o),
(339,568,cs),
(485,568,o),
(522,453,o),
(504,355,cs),
(504,354,ls),
(488,263,o),
(410,143,o),
(264,143,cs)
);
},
{
closed = 1;
nodes = (
(956,247,o),
(911,310,o),
(917,418,c),
(917,418,l),
(918,420,ls),
(918,435,o),
(920,452,o),
(923,469,cs),
(968,724,l),
(1322,724,l),
(1271,435,ls),
(1253,333,o),
(1176,247,o),
(1064,247,cs)
);
},
{
closed = 1;
nodes = (
(520,351,ls),
(537,449,o),
(603,568,o),
(747,568,cs),
(834,568,o),
(894,516,o),
(901,427,c),
(890,303,o),
(942,231,o),
(1060,231,cs),
(1149,231,o),
(1219,279,o),
(1257,352,c),
(1195,0,l),
(1212,0,l),
(1274,351,ls),
(1291,449,o),
(1367,568,o),
(1511,568,cs),
(1617,568,o),
(1694,490,o),
(1671,359,cs),
(1647,221,o),
(1548,143,o),
(1439,143,cs),
(1420,143,o),
(1399,145,o),
(1383,149,c),
(1380,133,l),
(1393,130,o),
(1415,127,o),
(1436,127,cs),
(1555,127,o),
(1662,212,o),
(1688,359,cs),
(1713,499,o),
(1630,584,o),
(1514,584,cs),
(1400,584,o),
(1326,515,o),
(1289,438,c),
(1339,724,l),
(1872,724,l),
(1875,740,l),
(30,740,l),
(27,724,l),
(569,724,l),
(520,443,l),
(508,518,o),
(456,584,o),
(342,584,cs),
(222,584,o),
(108,499,o),
(83,359,cs),
(57,212,o),
(138,127,o),
(261,127,cs),
(373,127,o),
(451,193,o),
(489,268,c),
(442,0,l),
(458,0,l)
);
}
);
width = 1775;
}
);
note = dvK_PHA;
},
{
glyphname = dvKx_PHA;
lastChange = "2022-10-20 16:08:56 +0000";
layers = (
{
layerId = m01;
shapes = (
{
closed = 1;
nodes = (
(587,724,l),
(953,724,l),
(910,477,l),
(888,545,o),
(830,584,o),
(752,584,cs),
(641,584,o),
(573,519,o),
(538,444,c)
);
},
{
closed = 1;
nodes = (
(153,143,o),
(78,221,o),
(102,359,cs),
(125,490,o),
(231,568,o),
(341,568,cs),
(487,568,o),
(523,453,o),
(506,355,cs),
(506,354,ls),
(490,263,o),
(412,143,o),
(266,143,cs)
);
},
{
closed = 1;
nodes = (
(958,247,o),
(913,310,o),
(919,418,c),
(919,418,l),
(920,420,ls),
(920,435,o),
(922,452,o),
(925,469,cs),
(970,724,l),
(1324,724,l),
(1273,435,ls),
(1255,333,o),
(1178,247,o),
(1066,247,cs)
);
},
{
closed = 1;
nodes = (
(522,351,ls),
(539,449,o),
(605,568,o),
(749,568,cs),
(836,568,o),
(896,516,o),
(903,427,c),
(892,303,o),
(944,231,o),
(1062,231,cs),
(1151,231,o),
(1221,279,o),
(1259,352,c),
(1197,0,l),
(1214,0,l),
(1276,351,ls),
(1293,449,o),
(1369,568,o),
(1513,568,cs),
(1619,568,o),
(1696,490,o),
(1673,359,cs),
(1649,221,o),
(1550,143,o),
(1441,143,cs),
(1422,143,o),
(1401,145,o),
(1385,149,c),
(1382,133,l),
(1395,130,o),
(1417,127,o),
(1438,127,cs),
(1557,127,o),
(1664,212,o),
(1690,359,cs),
(1715,499,o),
(1632,584,o),
(1516,584,cs),
(1402,584,o),
(1327,515,o),
(1291,438,c),
(1341,724,l),
(1874,724,l),
(1877,740,l),
(32,740,l),
(29,724,l),
(571,724,l),
(522,443,l),
(510,518,o),
(458,584,o),
(344,584,cs),
(224,584,o),
(110,499,o),
(85,359,cs),
(59,212,o),
(140,127,o),
(263,127,cs),
(375,127,o),
(453,193,o),
(491,268,c),
(444,0,l),
(460,0,l)
);
},
{
closed = 1;
nodes = (
(245,-21,o),
(257,-11,o),
(259,3,cs),
(262,17,o),
(253,27,o),
(239,27,cs),
(224,27,o),
(213,17,o),
(210,3,cs),
(208,-11,o),
(216,-21,o),
(231,-21,cs)
);
}
);
width = 1775;
}
);
note = dvKx_PHA;
},
{
glyphname = dvKx_PHxA;
lastChange = "2022-10-20 16:08:56 +0000";
layers = (
{
layerId = m01;
shapes = (
{
closed = 1;
nodes = (
(587,724,l),
(954,724,l),
(910,475,l),
(889,544,o),
(831,584,o),
(752,584,cs),
(641,584,o),
(573,519,o),
(538,444,c)
);
},
{
closed = 1;
nodes = (
(153,143,o),
(78,221,o),
(102,359,cs),
(125,490,o),
(231,568,o),
(341,568,cs),
(487,568,o),
(523,453,o),
(506,355,cs),
(506,354,ls),
(490,263,o),
(412,143,o),
(266,143,cs)
);
},
{
closed = 1;
nodes = (
(245,-21,o),
(257,-11,o),
(259,3,cs),
(262,17,o),
(253,27,o),
(239,27,cs),
(224,27,o),
(213,17,o),
(210,3,cs),
(208,-11,o),
(216,-21,o),
(231,-21,cs)
);
},
{
closed = 1;
nodes = (
(1044,83,o),
(1056,93,o),
(1058,107,cs),
(1061,121,o),
(1053,131,o),
(1039,131,cs),
(1024,131,o),
(1012,121,o),
(1009,107,cs),
(1007,93,o),
(1015,83,o),
(1030,83,cs)
);
},
{
closed = 1;
nodes = (
(943,247,o),
(902,330,o),
(926,469,cs),
(971,724,l),
(1325,724,l),
(1274,435,ls),
(1256,333,o),
(1179,247,o),
(1067,247,cs)
);
},
{
closed = 1;
nodes = (
(522,351,ls),
(539,449,o),
(605,568,o),
(749,568,cs),
(838,568,o),
(899,513,o),
(904,420,c),
(896,301,o),
(947,231,o),
(1063,231,cs),
(1152,231,o),
(1222,279,o),
(1260,352,c),
(1198,0,l),
(1215,0,l),
(1277,351,ls),
(1294,449,o),
(1370,568,o),
(1514,568,cs),
(1620,568,o),
(1697,490,o),
(1674,359,cs),
(1650,221,o),
(1551,143,o),
(1442,143,cs),
(1423,143,o),
(1402,145,o),
(1386,149,c),
(1383,133,l),
(1396,130,o),
(1418,127,o),
(1439,127,cs),
(1558,127,o),
(1665,212,o),
(1691,359,cs),
(1716,499,o),
(1633,584,o),
(1517,584,cs),
(1403,584,o),
(1328,515,o),
(1292,438,c),
(1342,724,l),
(1875,724,l),
(1878,740,l),
(32,740,l),
(29,724,l),
(571,724,l),
(522,443,l),
(510,518,o),
(458,584,o),
(344,584,cs),
(224,584,o),
(110,499,o),
(85,359,cs),
(59,212,o),
(140,127,o),
(263,127,cs),
(375,127,o),
(453,193,o),
(491,268,c),
(444,0,l),
(460,0,l)
);
}
);
width = 1776;
}
);
note = dvKx_PHxA;
},
{
glyphname = dvKx_BA;
lastChange = "2022-10-20 16:08:56 +0000";
layers = (
{
layerId = m01;
shapes = (
{
closed = 1;
nodes = (
(641,584,o),
(573,519,o),
(538,444,c),
(587,724,l),
(1424,724,l),
(1375,444,l),
(1361,523,o),
(1299,593,o),
(1179,593,cs),
(1070,593,o),
(967,531,o),
(921,426,c),
(914,526,o),
(848,584,o),
(752,584,cs)
);
},
{
closed = 1;
nodes = (
(153,143,o),
(78,221,o),
(102,359,cs),
(125,490,o),
(231,568,o),
(341,568,cs),
(487,568,o),
(523,453,o),
(506,355,cs),
(506,354,ls),
(490,263,o),
(412,143,o),
(266,143,cs)
);
},
{
closed = 1;
nodes = (
(1297,0,l),
(1314,0,l),
(1441,724,l),
(1603,724,l),
(1606,740,l),
(32,740,l),
(29,724,l),
(571,724,l),
(522,443,l),
(510,518,o),
(458,584,o),
(344,584,cs),
(224,584,o),
(110,499,o),
(85,359,cs),
(59,212,o),
(140,127,o),
(263,127,cs),
(375,127,o),
(453,193,o),
(491,268,c),
(444,0,l),
(460,0,l),
(522,351,ls),
(539,449,o),
(605,568,o),
(749,568,cs),
(855,568,o),
(922,490,o),
(899,359,c),
(899,359,l),
(899,357,o),
(898,355,o),
(898,353,cs),
(872,207,o),
(968,120,o),
(1099,120,cs),
(1217,120,o),
(1302,188,o),
(1343,265,c)
);
},
{
closed = 1;
nodes = (
(245,-21,o),
(257,-11,o),
(259,3,cs),
(262,17,o),
(253,27,o),
(239,27,cs),
(224,27,o),
(213,17,o),
(210,3,cs),
(208,-11,o),
(216,-21,o),
(231,-21,cs)
);
},
{
closed = 1;
nodes = (
(1329,577,o),
(1377,458,o),
(1359,355,cs),
(1351,307,o),
(1324,251,o),
(1279,207,c),
(1011,519,l),
(1058,557,o),
(1116,577,o),
(1176,577,cs)
);
},
{
closed = 1;
nodes = (
(980,136,o),
(891,215,o),
(915,353,cs),
(926,418,o),
(956,470,o),
(998,508,c),
(1267,196,l),
(1225,160,o),
(1171,136,o),
(1102,136,cs)
);
}
);
width = 1504;
}
);
note = dvKx_BA;
},
